<?xml version="1.0" encoding="UTF-8" standalone="no"?><!DOCTYPE svg PUBLIC "-//W3C//DTD SVG 1.1//EN" "http://www.w3.org/Graphics/SVG/1.1/DTD/svg11.dtd"><svg width="100%" height="100%" viewBox="0 0 3630 1223" version="1.1" xmlns="http://www.w3.org/2000/svg" xmlns:xlink="http://www.w3.org/1999/xlink" xml:space="preserve" xmlns:serif="http://www.serif.com/" style="fill-rule:evenodd;clip-rule:evenodd;stroke-linecap:round;stroke-miterlimit:6;"><g><path d="M38.017,647.311c64.584,-3.125 152.088,-17.621 170.134,-68.45c1.833,-4.587 3.475,-9.341 4.929,-14.208c2.916,-9.742 5.096,-19.971 6.591,-30.458c4.496,-31.446 35.946,-26.955 60.375,-19.005c4.867,0.4 9.721,0.555 14.567,0.521c24.217,-0.221 48.15,-5.179 69.854,-18.416c3.875,-3.205 7.334,-6.684 10.467,-10.392c15.796,-17.733 21.896,-43.292 27.696,-68.2c1.158,-4.988 2.308,-9.946 3.521,-14.804c9.25,-25.267 15.804,-49.413 21.895,-73.217c2.034,-7.954 4.013,-15.875 6.025,-23.837c24.78,-89.742 24.78,-202.242 103.946,-252.242c116.667,-75 145.834,125 225.954,188.912c4.025,4.575 7.784,9.292 11.1,14.275c3.313,4.98 6.184,10.221 8.43,15.834c1.358,3.116 2.725,6.225 4.091,9.296c9.021,16.566 16.434,32.716 31.479,43.52c11.655,8.371 31.846,16.375 36.167,18.534c31.221,19.654 73.667,66.737 94.121,64.579c6.962,-1.004 18.192,-6.617 28.242,-8.333c10.054,-1.713 18.929,0.475 21.175,15.075c-2.425,4.975 -2.425,13.308 -6.592,17.475c8.333,-8.334 12.5,-25 20.833,-25c79.167,-25 112.5,104.166 175,137.5c8.334,-66.667 45.834,-133.334 125,-120.834c33.334,4.167 66.667,12.5 96.959,29c7.266,2.875 14.575,5.738 21.879,8.625c21.916,8.663 43.841,17.575 64.708,28.063c4.638,2.329 9.221,4.737 13.746,7.233c6.329,2.513 12.071,5.808 17.462,9.679c26.913,17.4 43.58,71.567 72.746,54.9c29.167,-16.666 4.167,-100 54.167,-95.833c19.792,1.042 38.021,5.987 55.429,13.229c8.704,3.621 17.2,7.829 25.579,12.463c45.646,37.525 97.988,73.041 153.7,95.945c7.959,3.23 20.913,6.606 29.026,9.169c113.012,19.492 169.599,-64.139 257.099,-76.639c54.167,-4.167 95.834,41.666 149.538,54.445c7.379,1.192 15.566,1.75 23.875,2.875c8.3,1.121 20.785,4.973 28.647,8.34c12.913,6.737 164.331,37.115 178.595,38.872c63.421,7.813 1027.95,8.029 1035.07,9.291" style="fill:none;fill-rule:nonzero;stroke:#133a5b;stroke-width:12.5px;"/><path d="M38.164,647.263c63.762,-2.88 147.812,-16.663 167.146,-64.1c1.775,-4.35 3.541,-8.771 5.029,-13.342c3.004,-9.133 5.296,-18.721 6.9,-28.55c4.762,-29.525 35.1,-24.683 58.617,-16.504c4.683,0.496 9.345,0.762 14.008,0.85c13.812,0.233 27.483,-1.117 40.633,-4.759c7.9,-2.179 15.629,-5.187 23.1,-9.175c1.071,-0.566 2.129,-1.15 3.188,-1.758c3.721,-2.937 6.996,-6.171 10.054,-9.546c1.637,-1.808 3.208,-3.662 4.658,-5.616c11.792,-15.967 16.921,-37.05 22.392,-57.688c1.217,-4.592 2.192,-9.221 3.762,-13.583c8.371,-23.259 17.117,-44.088 23.48,-65.375c2.166,-7.242 4.075,-14.509 6.229,-21.763c4.254,-14.308 8.112,-29.129 11.65,-44.2c1.862,-7.996 3.679,-16.041 5.516,-24.091c14.367,-63.305 32.596,-127.025 91.413,-162.134c8.946,-5.337 17.329,-9.316 25.312,-11.95c95.946,-31.671 129.375,134.4 202.305,186.975c3.983,4.134 7.695,8.409 10.975,12.921c3.279,4.513 6.033,9.3 8.358,14.375c1.308,2.854 2.596,5.708 4.067,8.433c8.27,15.388 16.083,29.834 30.879,39.275c11.429,7.292 31.291,14.075 36.296,15.546c8.12,4.55 16.962,10.879 25.962,17.675c8.438,6.334 17.092,12.971 25.238,19.15c16.45,12.484 31.283,23 41.1,21.354c6.9,-1.154 17.837,-6.916 27.604,-9.095c10.058,-2.246 18.891,-1.113 21.412,12.029c-1.937,3.991 -2.504,11.383 -7.046,14.787c7.575,-8.333 10.792,-24.237 18.75,-23.858c74.705,-20.142 108.909,106.112 171.425,139.896c3.859,-22.859 11.43,-45.896 23.605,-65.096c20.82,-32.838 53.375,-56.504 101.65,-51.983c17.7,1.662 35.45,3.875 52.758,8.462c14.083,4.088 27.825,10.392 41.592,16.85c7.066,3.317 14.52,5.808 21.779,8.775c21.721,8.854 43.358,18.154 63.996,28.938c4.591,2.395 8.979,5.145 13.6,7.412c6.083,2.988 11.854,6.092 17.304,9.863c26.316,18.179 43.787,69.958 73.162,53.887c17.234,-9.387 16.671,-40.979 22.159,-65.237c4.008,-17.717 11.233,-31.255 31.262,-30.705c18.742,0.513 35.979,4.017 52.629,10.117c8.325,3.033 16.504,6.642 24.659,10.667c8.591,6.491 17.55,12.904 26.829,19.237c7.008,4.784 14.146,9.542 21.433,14.2c7.188,4.592 14.504,9.1 21.942,13.513c3.346,1.966 6.7,3.954 10.062,5.946c3.134,1.858 6.275,3.712 9.421,5.583c11.421,6.787 22.938,13.521 34.742,19.508c9.171,4.654 18.508,8.921 27.946,12.746c8.016,3.029 16.083,5.563 24.091,7.996c28.984,8.812 55.059,7.154 80.8,0.317c40.684,-10.734 78.588,-36.48 117.154,-55.05c7.759,-3.738 15.546,-7.188 23.384,-10.167c13.229,-4.996 26.591,-9.188 40.346,-10.483c26.375,-2.492 50.041,8.095 73.554,19.958c7.166,3.617 14.337,7.404 21.554,11.158c17.467,9.088 35.133,18.525 54.617,22.396c7.454,1.488 15.787,1.829 24.183,2.95c8.367,1.117 16.979,2.467 24.792,5.979c13.225,5.942 26.52,10.975 40.395,14.288c6.959,1.646 13.988,2.991 21.088,4.091c43.75,-3.862 118.155,10.275 158.88,21.65c15.379,4.321 1000.47,3.535 1015.3,3.885" style="fill:none;fill-rule:nonzero;stroke:#133a5b;stroke-width:12.5px;"/><path d="M38.302,647.218c62.946,-2.646 144.554,-15.354 164.167,-59.75c1.804,-4.075 3.592,-8.213 5.129,-12.479c3.075,-8.534 5.513,-17.467 7.208,-26.638c5.105,-27.604 34.263,-22.425 56.863,-14.012c4.496,0.596 8.975,0.975 13.437,1.179c13.246,0.6 26.309,-0.296 38.842,-3.371c7.558,-1.842 14.95,-4.467 22.1,-8.029c1.025,-0.504 2.046,-1.025 3.054,-1.563c3.563,-2.666 6.704,-5.62 9.638,-8.704c1.571,-1.65 3.087,-3.346 4.475,-5.141c11.341,-14.68 16.15,-34.192 21.929,-53.263c1.271,-4.192 2.337,-8.433 4.004,-12.358c8.871,-20.825 18.429,-38.738 25.067,-57.538c2.3,-6.516 4.221,-13.121 6.437,-19.687c4.363,-12.975 8.359,-26.371 12.075,-39.979c1.954,-7.242 3.863,-14.538 5.804,-21.817c14.8,-56.258 35.634,-113.563 95.321,-146.813c8.984,-5.004 17.396,-8.8 25.429,-11.362c95.688,-30.546 132.017,126.396 203.85,172.492c3.942,3.704 7.613,7.525 10.855,11.57c3.245,4.046 5.979,8.355 8.295,12.917c1.3,2.567 2.592,5.133 4.034,7.579c8.187,13.867 15.75,26.954 30.279,35.021c11.221,6.229 30.746,11.775 36.429,12.563c8.075,3.954 16.8,9.616 25.692,15.65c8.333,5.654 16.962,11.391 24.916,16.954c16.088,11.262 30.309,21.2 39.871,19.175c6.821,-1.45 17.488,-7.229 26.971,-9.859c10.079,-2.791 18.842,-2.704 21.642,8.988c-1.446,3.012 -2.579,9.45 -7.504,12.096c6.816,-8.334 9.087,-23.479 16.662,-22.725c70.258,-15.284 105.333,108.075 167.854,142.3c4.642,-21.109 12.754,-42.592 25.434,-60.346c21.745,-30.446 53.595,-54.946 100.075,-52.983c17.087,0.725 34.179,1.9 50.945,5.583c13.617,3.696 27.296,9.7 40.809,16.054c7.046,3.317 14.458,5.867 21.666,8.908c21.53,9.05 42.884,18.746 63.296,29.825c4.538,2.463 8.875,5.246 13.45,7.588c6.009,3.067 11.729,6.246 17.146,10.042c26.142,18.312 44,68.35 73.571,52.879c17.6,-9.138 17.729,-40.4 23.096,-64.513c3.916,-17.612 10.7,-30.262 29.579,-31.537c17.683,-1.196 33.942,2.046 49.829,6.996c7.946,2.458 15.813,5.462 23.746,8.883c8.367,5.721 17.187,11.371 26.45,17.004c6.962,4.238 14.062,8.513 21.337,12.717c7.18,4.133 14.5,8.258 21.967,12.266c3.375,1.817 6.763,3.675 10.125,5.592c3.163,1.783 6.321,3.604 9.463,5.475c11.341,6.767 22.662,13.829 34.358,19.908c8.958,4.655 18.092,8.85 27.35,12.546c8.075,2.838 16.125,5.109 24.083,7.238c28.771,7.691 54.263,4.741 80.025,-1.934c40.725,-10.383 78.813,-35.758 117.525,-53.495c7.788,-3.571 15.592,-6.846 23.463,-9.6c13.216,-4.63 26.587,-8.421 40.321,-9.509c26.279,-2.079 49.983,8.267 73.57,19.784c7.192,3.512 14.413,7.17 21.646,10.825c17.554,8.858 35.246,18.116 54.696,21.975c7.6,1.504 16.017,1.908 24.504,3.029c8.429,1.112 17.079,2.412 24.992,5.771c13.287,5.637 26.612,10.362 40.454,13.366c6.95,1.496 13.971,2.675 21.046,3.621c43.521,-4.329 84.887,0.575 125.396,10.342c15.241,3.721 31.096,8.5 46.087,14.404c42.059,17.579 994.587,-3.989 1020.61,-4.225" style="fill:none;fill-rule:nonzero;stroke:#133a5b;stroke-width:12.5px;"/><path d="M38.444,647.169c62.13,-2.4 141.296,-14.041 161.192,-55.4c1.825,-3.8 3.642,-7.646 5.217,-11.616c3.158,-7.93 5.725,-16.217 7.516,-24.725c5.409,-25.671 33.425,-20.155 55.105,-11.517c4.316,0.696 8.608,1.183 12.883,1.512c12.675,0.963 25.133,0.517 37.037,-1.987c7.221,-1.5 14.259,-3.783 21.113,-6.883c0.971,-0.438 1.942,-0.896 2.912,-1.367c3.409,-2.396 6.417,-5.067 9.221,-7.858c1.504,-1.496 2.963,-3.034 4.288,-4.675c10.866,-13.405 15.379,-31.342 21.475,-48.834c1.329,-3.804 2.475,-7.65 4.25,-11.137c9.366,-18.438 19.741,-33.354 26.641,-49.696c2.446,-5.788 4.38,-11.738 6.642,-17.617c4.483,-11.633 8.654,-23.596 12.517,-35.762c2.058,-6.484 4.037,-13.021 6.079,-19.534c15.242,-49.216 38.65,-100.116 99.233,-131.495c9.021,-4.671 17.467,-8.284 25.542,-10.775c95.421,-29.434 134.658,118.387 205.4,158.02c3.908,3.263 7.537,6.638 10.733,10.221c3.217,3.571 5.921,7.396 8.229,11.45c1.296,2.284 2.588,4.559 4.009,6.725c8.108,12.334 15.433,24.092 29.675,30.763c11.033,5.175 30.2,9.483 36.562,9.579c8.025,3.362 16.65,8.346 25.434,13.629c8.229,4.95 16.804,9.8 24.575,14.763c15.716,10.025 29.345,19.391 38.65,16.991c6.75,-1.741 17.154,-7.575 26.333,-10.621c10.108,-3.358 18.8,-4.291 21.879,5.942c-0.954,2.025 -2.667,7.517 -7.962,9.417c6.058,-8.334 7.383,-22.734 14.583,-21.592c65.796,-10.429 101.742,110.021 164.279,144.692c5.421,-19.35 14.079,-39.284 27.258,-55.588c22.696,-28.083 53.905,-51.366 98.492,-53.979c16.458,-0.967 32.913,-0.083 49.142,2.7c13.141,3.3 26.762,9.004 40.021,15.25c7.029,3.313 14.395,5.933 21.558,9.05c21.342,9.242 42.404,19.329 62.587,30.704c4.484,2.529 8.78,5.363 13.305,7.763c5.929,3.15 11.6,6.404 16.987,10.229c25.967,18.437 44.208,66.742 73.979,51.867c17.979,-8.892 18.784,-39.825 24.025,-63.788c3.829,-17.521 10.1,-31.146 27.913,-32.375c16.7,-1.154 31.887,0.113 47.025,3.888c7.566,1.887 15.125,4.275 22.829,7.087c8.133,4.963 16.825,9.842 26.071,14.779c6.916,3.692 13.979,7.488 21.241,11.229c7.175,3.68 14.5,7.392 21.996,11.025c3.409,1.655 6.813,3.405 10.192,5.234c3.175,1.721 6.35,3.487 9.483,5.362c11.271,6.746 22.396,14.142 33.996,20.313c8.733,4.65 17.671,8.787 26.754,12.346c8.125,2.65 16.146,4.662 24.059,6.483c28.566,6.575 53.458,2.25 79.254,-4.179c40.75,-10.159 79.041,-35.042 117.904,-51.946c7.812,-3.4 15.642,-6.504 23.537,-9.042c13.2,-4.246 26.588,-7.654 40.3,-8.525c26.18,-1.662 49.925,8.434 73.575,19.609c7.234,3.408 14.484,6.92 21.746,10.479c17.625,8.633 35.367,17.716 54.784,21.562c7.72,1.529 16.233,1.984 24.804,3.109c8.496,1.1 17.204,2.362 25.204,5.566c13.346,5.346 26.7,9.75 40.521,12.446c6.941,1.338 13.946,2.358 20.996,3.138c43.3,-4.788 84.316,-1.342 124.616,6.825c15.104,3.116 31.209,7.441 46.067,13.258c41.808,17.883 1018.13,-4.568 1038.93,-4.568" style="fill:none;fill-rule:nonzero;stroke:#133a5b;stroke-width:12.5px;"/><path d="M38.587,647.12c61.312,-2.162 138.037,-12.742 158.212,-51.05c1.855,-3.525 3.692,-7.079 5.317,-10.75c3.242,-7.329 5.929,-14.962 7.817,-22.817c5.712,-23.737 32.583,-17.891 53.354,-9.02c4.133,0.795 8.233,1.391 12.317,1.845c12.104,1.33 23.962,1.334 35.245,-0.604c6.871,-1.158 13.58,-3.071 20.105,-5.737c0.937,-0.384 1.862,-0.763 2.783,-1.175c3.254,-2.125 6.129,-4.509 8.804,-7.013c1.442,-1.341 2.833,-2.716 4.104,-4.196c10.404,-12.125 14.6,-28.52 21.021,-44.416c1.379,-3.409 2.608,-6.871 4.483,-9.913c9.905,-16.1 21.059,-27.925 28.23,-41.85c2.595,-5.037 4.529,-10.35 6.85,-15.546c4.591,-10.3 8.912,-20.829 12.941,-31.541c2.15,-5.729 4.221,-11.513 6.359,-17.263c15.687,-42.171 41.666,-86.671 103.154,-116.171c9.05,-4.341 17.529,-7.77 25.654,-10.187c95.142,-28.338 137.296,110.379 206.95,143.542c3.867,2.829 7.454,5.754 10.617,8.87c3.175,3.1 5.862,6.442 8.154,9.988c1.296,2 2.583,3.987 3.979,5.867c8.029,10.804 15.15,21.229 29.079,26.512c10.867,4.121 29.646,7.183 36.696,6.596c7.979,2.767 16.504,7.071 25.162,11.604c8.13,4.258 16.642,8.208 24.25,12.571c15.309,8.779 28.38,17.575 37.417,14.808c6.683,-2.046 16.825,-7.941 25.7,-11.387c10.158,-3.938 18.758,-5.879 22.113,2.904c-0.463,1.037 -2.738,5.583 -8.417,6.725c5.3,-8.333 5.683,-21.971 12.496,-20.454c61.337,-5.567 98.158,111.975 160.708,147.091c6.2,-17.6 15.429,-35.995 29.079,-50.833c23.688,-25.737 54.084,-51.867 96.921,-54.983c15.879,-1.159 31.642,-2.059 47.333,-0.175c12.671,2.908 26.23,8.308 39.23,14.446c7.016,3.312 14.341,5.995 21.454,9.191c21.141,9.434 41.925,19.909 61.883,31.588c4.429,2.587 8.675,5.471 13.158,7.941c5.85,3.23 11.475,6.55 16.821,10.405c25.804,18.575 44.392,65.075 74.396,50.858c18.329,-8.679 19.833,-39.25 24.954,-63.063c3.742,-17.42 9.546,-31.108 26.234,-33.212c15.7,-1.983 29.854,-1.85 44.233,0.775c7.183,1.312 14.429,3.092 21.904,5.3c7.904,4.192 16.458,8.312 25.696,12.55c6.862,3.146 13.896,6.458 21.15,9.737c7.167,3.225 14.5,6.538 22.017,9.788c3.445,1.487 6.866,3.117 10.262,4.875c3.192,1.65 6.383,3.375 9.517,5.258c11.187,6.725 22.125,14.434 33.616,20.709c8.513,4.645 17.255,8.716 26.159,12.15c8.179,2.45 16.179,4.208 24.041,5.72c28.367,5.463 52.659,-0.191 78.488,-6.425c40.783,-9.841 79.262,-34.325 118.275,-50.391c7.842,-3.242 15.687,-6.163 23.612,-8.484c13.192,-3.858 26.58,-6.887 40.275,-7.541c26.084,-1.25 49.871,8.591 73.592,19.429c7.258,3.304 14.55,6.683 21.833,10.142c17.717,8.408 35.484,17.312 54.875,21.145c7.855,1.555 16.455,2.059 25.113,3.184c8.562,1.096 17.321,2.312 25.408,5.362c13.404,5.042 26.792,9.142 40.575,11.529c6.942,1.18 13.934,2.042 20.959,2.663c43.075,-5.263 83.754,-3.35 123.833,3.296c14.975,2.479 31.325,6.391 46.062,12.125c41.555,18.179 1023.43,-4.919 1057.64,-4.919" style="fill:none;fill-rule:nonzero;stroke:#133a5b;stroke-width:12.5px;"/><path d="M38.734,647.075c60.491,-1.92 134.791,-11.433 155.225,-46.7c1.883,-3.25 3.754,-6.512 5.42,-9.887c3.321,-6.729 6.134,-13.708 8.125,-20.9c6.025,-21.808 31.742,-15.629 51.592,-6.529c3.946,0.891 7.867,1.604 11.758,2.171c11.542,1.7 22.788,2.158 33.446,0.787c6.529,-0.817 12.909,-2.35 19.109,-4.592c0.887,-0.316 1.775,-0.637 2.654,-0.979c3.083,-1.854 5.829,-3.954 8.387,-6.166c1.371,-1.192 2.704,-2.409 3.913,-3.73c9.937,-10.837 13.804,-25.72 20.562,-39.991c1.429,-3.025 2.767,-6.104 4.725,-8.692c10.492,-13.825 22.367,-22.412 29.821,-34.012c2.738,-4.263 4.675,-8.95 7.046,-13.463c4.712,-8.967 9.179,-18.058 13.371,-27.329c2.254,-4.975 4.404,-9.996 6.646,-14.979c16.129,-35.134 44.65,-73.25 107.066,-100.854c9.075,-4.009 17.6,-7.255 25.771,-9.6c94.858,-27.242 139.938,102.379 208.492,129.062c3.833,2.4 7.362,4.879 10.504,7.525c3.129,2.638 5.804,5.483 8.083,8.525c1.284,1.713 2.579,3.408 3.946,5.008c7.958,9.271 14.9,18.363 28.483,22.263c10.73,3.079 29.096,4.883 36.825,3.612c7.934,2.171 16.359,5.792 24.9,9.58c8.034,3.558 16.459,6.6 23.921,10.375c14.879,7.533 27.409,15.745 36.188,12.625c6.616,-2.346 16.487,-8.334 25.075,-12.155c10.191,-4.537 18.708,-7.462 22.337,-0.133c0.025,0.058 -2.816,3.654 -8.879,4.033c4.55,-8.333 3.979,-21.208 10.417,-19.316c56.883,-0.709 94.571,113.925 157.129,149.491c6.983,-15.85 16.804,-32.708 30.912,-46.079c24.7,-23.408 54.342,-50.341 95.35,-55.983c15.275,-2.104 30.367,-4.038 45.525,-3.054c12.188,2.512 25.7,7.616 38.43,13.637c7.012,3.317 14.287,6.067 21.35,9.338c20.954,9.629 41.45,20.496 61.179,32.466c4.375,2.659 8.579,5.584 13.008,8.121c5.779,3.309 11.346,6.709 16.667,10.588c25.625,18.708 44.629,63.529 74.804,49.846c18.717,-8.392 20.887,-38.671 25.879,-62.338c3.654,-17.325 9.008,-31.062 24.571,-34.046c14.704,-2.825 27.804,-3.808 41.429,-2.337c6.804,0.733 13.729,1.908 20.988,3.508c7.675,3.429 16.083,6.783 25.316,10.321c6.804,2.608 13.813,5.429 21.054,8.254c7.163,2.767 14.5,5.663 22.038,8.542c3.487,1.329 6.929,2.841 10.333,4.521c3.213,1.579 6.421,3.258 9.542,5.141c11.121,6.7 21.867,14.746 33.25,21.117c8.292,4.642 16.837,8.646 25.558,11.95c8.229,2.258 16.213,3.754 24.025,4.962c28.167,4.355 51.867,-2.629 77.717,-8.67c40.825,-9.542 79.487,-33.613 118.646,-48.846c7.871,-3.067 15.75,-5.813 23.691,-7.913c13.18,-3.483 26.575,-6.129 40.255,-6.566c25.979,-0.842 49.808,8.762 73.6,19.25c7.295,3.204 14.629,6.445 21.929,9.804c17.796,8.183 35.596,16.912 54.962,20.729c7.984,1.575 16.684,2.142 25.425,3.267c8.625,1.091 17.421,2.262 25.609,5.15c13.47,4.754 26.879,8.558 40.633,10.612c6.933,1.038 13.917,1.729 20.925,2.183c42.846,-5.72 83.187,-5.279 123.046,-0.229c14.833,1.879 31.437,5.342 46.046,10.988c41.308,18.483 1051.67,-5.266 1076.76,-5.266" style="fill:none;fill-rule:nonzero;stroke:#133a5b;stroke-width:12.5px;"/><path d="M38.872,647.027c59.675,-1.679 131.558,-10.138 152.246,-42.35c1.916,-2.979 3.816,-5.95 5.516,-9.021c3.413,-6.129 6.35,-12.45 8.442,-18.992c6.338,-19.866 30.892,-13.362 49.829,-4.033c3.767,0.992 7.492,1.812 11.196,2.508c10.971,2.054 21.608,2.967 31.65,2.167c6.192,-0.479 12.225,-1.646 18.117,-3.446c0.837,-0.254 1.675,-0.508 2.512,-0.787c2.929,-1.584 5.542,-3.392 7.967,-5.317c1.312,-1.038 2.579,-2.096 3.733,-3.267c9.45,-9.558 13.013,-22.937 20.104,-35.558c1.488,-2.65 2.938,-5.35 4.971,-7.471c11.142,-11.621 23.621,-16.812 31.396,-26.167c2.883,-3.466 4.829,-7.566 7.254,-11.395c4.829,-7.617 9.446,-15.28 13.804,-23.109c2.346,-4.212 4.588,-8.483 6.921,-12.704c16.571,-28.083 47.625,-59.829 110.988,-85.525c9.1,-3.692 17.662,-6.746 25.883,-9.021c94.571,-26.154 142.575,94.375 210.038,114.588c3.795,1.962 7.283,4 10.383,6.175c3.1,2.171 5.754,4.533 8.017,7.058c1.287,1.438 2.575,2.838 3.92,4.154c7.892,7.725 14.68,15.492 27.884,18.013c10.621,2.025 28.546,2.587 36.954,0.629c7.887,1.571 16.212,4.521 24.633,7.554c7.942,2.863 16.254,4.983 23.592,8.175c14.421,6.279 26.442,13.917 34.967,10.45c6.545,-2.662 16.145,-8.742 24.433,-12.912c10.246,-5.163 18.662,-9.055 22.575,-3.18c0.512,-0.929 -2.896,1.725 -9.342,1.346c3.792,-8.333 2.279,-20.458 8.342,-18.183c52.417,4.154 90.983,115.879 153.554,151.892c7.767,-14.096 18.196,-29.43 32.733,-41.325c25.763,-21.084 54.605,-48.83 93.775,-56.984c14.675,-3.054 29.1,-6.016 43.709,-5.941c11.725,2.125 25.171,6.929 37.646,12.841c6.995,3.313 14.233,6.134 21.25,9.475c20.754,9.821 40.966,21.079 60.462,33.359c4.329,2.712 8.488,5.687 12.867,8.291c5.696,3.388 11.225,6.859 16.504,10.767c25.471,18.825 44.842,61.921 75.221,48.837c19.083,-8.141 21.941,-38.104 26.808,-61.608c3.571,-17.229 8.479,-31.029 22.892,-34.887c13.729,-3.667 25.771,-5.763 38.633,-5.45c6.433,0.158 13.042,0.725 20.071,1.716c7.442,2.667 15.708,5.267 24.937,8.096c6.746,2.071 13.73,4.404 20.963,6.763c7.154,2.312 14.512,4.8 22.062,7.3c3.525,1.17 6.988,2.566 10.4,4.158c3.234,1.517 6.455,3.158 9.571,5.042c11.042,6.683 21.6,15.041 32.879,21.516c8.071,4.634 16.413,8.584 24.959,11.754c8.283,2.063 16.246,3.3 24.008,4.2c27.967,3.238 51.063,-5.07 76.942,-10.92c40.866,-9.23 79.721,-32.888 119.029,-47.288c7.892,-2.904 15.792,-5.479 23.762,-7.358c13.167,-3.104 26.571,-5.938 40.234,-5.579c25.871,0.679 49.75,8.925 73.608,19.07c7.325,3.105 14.7,6.209 22.021,9.467c17.871,7.958 35.721,16.508 55.046,20.313c8.116,1.6 16.912,2.212 25.741,3.345c8.684,1.08 17.538,2.217 25.813,4.946c13.525,4.463 26.971,7.946 40.692,9.692c6.933,0.883 13.9,1.408 20.875,1.708c42.633,-6.191 82.616,-7.196 122.27,-3.758c14.7,1.275 31.546,4.292 46.038,9.85c41.058,18.779 1077.77,-5.433 1095.07,-5.613" style="fill:none;fill-rule:nonzero;stroke:#133a5b;stroke-width:12.5px;"/><path d="M39.01,646.978c58.863,-1.438 128.321,-8.846 149.267,-38c1.946,-2.708 3.875,-5.392 5.617,-8.158c3.491,-5.534 6.558,-11.188 8.741,-17.075c6.646,-17.93 30.059,-11.1 48.079,-1.542c3.584,1.092 7.13,2.021 10.634,2.837c10.4,2.425 20.437,3.788 29.854,3.555c5.85,-0.138 11.546,-0.938 17.117,-2.296c0.791,-0.196 1.591,-0.384 2.375,-0.596c2.779,-1.313 5.254,-2.846 7.558,-4.475c1.242,-0.883 2.446,-1.783 3.546,-2.788c8.987,-8.258 12.241,-20.212 19.646,-31.137c1.545,-2.288 3.47,-4.233 5.208,-6.246c13.475,-7.075 24.775,-11.1 32.983,-18.329c2.996,-2.633 4.979,-6.179 7.463,-9.325c4.946,-6.271 9.708,-12.492 14.233,-18.888c2.433,-3.445 4.763,-6.975 7.204,-10.425c17.013,-21.045 50.575,-46.437 114.9,-70.208c9.117,-3.371 17.729,-6.229 25.992,-8.433c94.271,-25.104 145.217,86.375 211.587,100.116c3.763,1.521 7.205,3.117 10.271,4.821c3.059,1.704 5.696,3.579 7.942,5.596c1.287,1.146 2.575,2.263 3.892,3.3c7.837,6.158 14.5,12.588 27.279,13.754c10.554,0.967 28.004,0.292 37.091,-2.354c7.842,0.975 16.075,3.242 24.375,5.533c7.846,2.167 16.017,3.367 23.259,5.988c13.908,5.033 25.471,12.067 33.733,8.262c6.475,-2.983 15.808,-9.175 23.8,-13.679c10.296,-5.804 18.621,-10.641 22.813,-6.221c1,-1.908 -2.98,-0.204 -9.8,-1.341c3.029,-8.338 0.57,-19.696 6.25,-17.046c47.966,9.012 87.404,117.829 149.987,154.292c8.542,-12.346 19.621,-26.146 34.558,-36.575c26.875,-18.755 54.875,-47.342 92.196,-57.984c14.079,-4.012 27.834,-7.991 41.904,-8.816c11.255,1.729 24.634,6.233 36.859,12.037c6.983,3.317 14.175,6.196 21.141,9.617c20.559,10.016 40.488,21.662 59.759,34.233c4.271,2.783 8.383,5.804 12.721,8.471c5.62,3.467 11.091,7.017 16.337,10.95c25.304,18.967 45.054,60.317 75.638,47.829c19.45,-7.9 22.987,-37.525 27.733,-60.883c3.483,-17.142 7.958,-31.013 21.225,-35.721c12.758,-4.529 23.733,-7.729 35.829,-8.563c6.054,-0.42 12.346,-0.462 19.15,-0.079c7.213,1.9 15.338,3.75 24.563,5.867c6.687,1.537 13.641,3.392 20.862,5.283c7.146,1.871 14.521,3.913 22.092,6.05c3.562,1.004 7.046,2.288 10.471,3.804c3.254,1.446 6.479,3.046 9.595,4.934c10.971,6.662 21.33,15.337 32.509,21.916c7.85,4.621 15.991,8.513 24.358,11.555c8.333,1.87 16.283,2.85 23.996,3.441c27.771,2.129 50.271,-7.512 76.175,-13.162c40.9,-8.929 79.942,-32.175 119.392,-45.742c7.92,-2.733 15.845,-5.137 23.845,-6.792c13.159,-2.733 26.571,-5.129 40.209,-4.6c25.754,1 49.683,9.092 73.625,18.892c7.35,3 14.762,5.967 22.112,9.129c17.959,7.725 35.834,16.104 55.134,19.892c8.254,1.621 17.133,2.296 26.05,3.421c8.75,1.083 17.654,2.179 26.016,4.746c13.584,4.17 27.063,7.337 40.75,8.77c6.934,0.73 13.884,1.1 20.834,1.23c42.404,-6.65 82.037,-9.113 121.491,-7.284c14.559,0.675 31.659,3.25 46.021,8.717c40.804,19.079 1105.1,-6.064 1113.79,-5.96" style="fill:none;fill-rule:nonzero;stroke:#133a5b;stroke-width:12.5px;"/><path d="M39.156,646.933c58.042,-1.2 125.105,-7.558 146.284,-33.654c1.975,-2.434 3.929,-4.821 5.716,-7.288c3.575,-4.937 6.767,-9.929 9.046,-15.166c6.963,-15.975 29.221,-8.838 46.321,0.954c3.4,1.187 6.754,2.233 10.075,3.162c9.829,2.792 19.263,4.609 28.058,4.942c5.5,0.208 10.871,-0.217 16.113,-1.146c0.75,-0.137 1.496,-0.258 2.246,-0.404c2.621,-1.042 4.966,-2.288 7.137,-3.629c1.179,-0.729 2.321,-1.471 3.363,-2.317c8.521,-6.962 11.491,-17.525 19.183,-26.712c1.621,-1.934 3.642,-3.413 5.458,-5.025c14.08,-4.475 24.863,-7.221 34.563,-10.492c2.612,-2.375 5.133,-4.779 7.667,-7.242c5.066,-4.925 9.962,-9.704 14.662,-14.671c2.529,-2.679 4.95,-5.462 7.488,-8.145c17.454,-14.005 53.516,-33.088 118.816,-54.892c9.138,-3.054 17.788,-5.717 26.104,-7.842c93.984,-24.016 147.855,78.367 213.142,85.638c3.721,1.083 7.117,2.233 10.142,3.471c3.033,1.237 5.65,2.625 7.879,4.133c1.279,0.862 2.571,1.679 3.862,2.442c7.767,4.583 14.617,12.058 26.68,9.504c10.279,-2.175 27.45,-2.009 37.22,-5.338c7.796,0.379 15.942,1.963 24.109,3.509c7.762,1.462 15.762,1.745 22.925,3.791c13.362,3.809 24.508,10.213 32.516,6.079c6.4,-3.304 15.455,-9.625 23.163,-14.445c10.329,-6.467 18.579,-12.225 23.042,-9.259c1.483,-2.896 -3.055,-2.133 -10.255,-4.033c2.275,-8.333 -1.133,-18.933 4.171,-15.908c43.504,13.866 83.813,119.783 146.409,156.691c9.329,-10.591 21.062,-22.846 36.387,-31.821c28.025,-16.42 55.146,-45.887 90.617,-58.983c13.491,-4.983 26.562,-9.971 40.096,-11.696c10.783,1.334 24.104,5.546 36.07,11.234c6.963,3.312 14.117,6.262 21.034,9.758c20.366,10.208 40.008,22.25 59.05,35.121c4.225,2.841 8.291,5.908 12.575,8.646c5.55,3.55 10.966,7.166 16.187,11.133c25.129,19.092 45.254,58.708 76.042,46.812c19.821,-7.645 24.037,-36.954 28.658,-60.158c3.396,-17.042 7.459,-31.021 19.55,-36.558c11.809,-5.409 21.709,-9.684 33.042,-11.671c5.679,-1 11.642,-1.646 18.229,-1.871c6.979,1.133 14.95,2.229 24.183,3.638c6.625,1.008 13.559,2.366 20.771,3.791c7.138,1.417 14.525,3.046 22.109,4.813c3.604,0.837 7.104,2.004 10.541,3.45c3.271,1.375 6.517,2.929 9.625,4.821c10.896,6.645 21.063,15.633 32.138,22.325c7.633,4.604 15.575,8.441 23.754,11.35c8.396,1.675 16.325,2.395 23.983,2.683c27.575,1.021 49.479,-9.954 75.4,-15.413c40.95,-8.616 80.171,-31.45 119.775,-44.187c7.946,-2.563 15.9,-4.792 23.917,-6.229c13.15,-2.354 26.567,-4.321 40.192,-3.621c25.633,1.312 49.62,9.254 73.625,18.712c7.391,2.896 14.841,5.725 22.212,8.788c18.033,7.5 35.946,15.708 55.217,19.479c8.379,1.642 17.358,2.392 26.366,3.504c8.805,1.088 17.763,2.129 26.221,4.538c13.646,3.879 27.146,6.729 40.804,7.854c6.934,0.567 13.867,0.779 20.792,0.746c42.188,-7.117 81.471,-10.95 120.713,-10.804c14.416,0.1 31.77,2.195 46.008,7.579c40.554,19.379 86.55,7.186 128.225,20.253c9.121,2.858 987.295,-26.564 1004.27,-26.564" style="fill:none;fill-rule:nonzero;stroke:#133a5b;stroke-width:12.5px;"/><path d="M39.295,646.888c57.225,-0.958 121.908,-6.275 143.312,-29.304c2.009,-2.162 3.988,-4.266 5.809,-6.429c3.662,-4.337 6.975,-8.658 9.358,-13.25c7.271,-14.012 28.375,-6.571 44.558,3.446c3.221,1.287 6.388,2.446 9.513,3.5c9.266,3.154 18.083,5.421 26.258,6.325c5.163,0.55 10.208,0.487 15.121,-0.004c0.704,-0.071 1.408,-0.125 2.108,-0.204c2.467,-0.78 4.671,-1.738 6.725,-2.788c1.113,-0.571 2.196,-1.15 3.171,-1.846c8.025,-5.687 10.808,-14.866 18.733,-22.283c1.705,-1.596 3.8,-2.604 5.7,-3.804c14.671,-1.879 25.992,-1.954 36.146,-2.646c2.679,-1.683 5.284,-3.383 7.871,-5.175c5.183,-3.571 10.208,-6.892 15.096,-10.454c2.617,-1.909 5.121,-3.95 7.762,-5.867c17.896,-6.962 56.438,-19.75 122.73,-39.571c9.158,-2.733 17.858,-5.204 26.22,-7.254c93.68,-22.962 150.496,70.354 214.692,71.163c3.679,0.65 7.033,1.345 10.025,2.116c2.996,0.767 5.6,1.671 7.804,2.671c1.288,0.583 2.563,1.096 3.834,1.583c7.7,2.971 14.225,6.667 26.083,5.259c10.479,-1.246 26.904,-4.309 37.362,-8.329c7.738,-0.213 15.796,0.687 23.834,1.487c7.675,0.767 15.316,1.404 22.591,1.596c12.1,4.821 23.542,8.354 31.292,3.9c6.329,-3.638 15.104,-10.088 22.525,-15.208c10.367,-7.146 18.538,-13.809 23.283,-12.3c1.975,-3.88 -3.141,-4.067 -10.716,-6.717c1.512,-8.333 -2.842,-18.188 2.083,-14.775c39.054,18.725 80.233,121.733 142.838,159.083c10.108,-8.837 22.541,-19.521 38.216,-27.062c29.225,-14.059 55.413,-44.438 89.046,-59.979c12.888,-5.959 25.288,-11.95 38.279,-14.58c10.313,0.938 23.575,4.855 35.279,10.43c6.95,3.312 14.059,6.329 20.934,9.904c20.171,10.4 39.525,22.829 58.35,35.996c4.166,2.912 8.187,6.025 12.416,8.825c5.48,3.637 10.846,7.32 16.025,11.312c24.963,19.233 45.467,57.1 76.459,45.804c20.187,-7.4 25.096,-36.375 29.591,-59.433c3.305,-16.95 6.946,-31.042 17.875,-37.392c10.855,-6.304 19.68,-11.646 30.234,-14.787c5.312,-1.579 10.962,-2.829 17.308,-3.663c6.754,0.371 14.583,0.734 23.813,1.413c6.566,0.487 13.475,1.337 20.679,2.308c7.129,0.958 14.529,2.171 22.133,3.567c3.638,0.675 7.163,1.729 10.604,3.091c3.296,1.305 6.554,2.817 9.654,4.717c10.825,6.621 20.8,15.925 31.771,22.721c7.413,4.587 15.159,8.371 23.159,11.154c8.441,1.483 16.358,1.754 23.962,1.921c27.383,0.6 48.679,-12.388 74.629,-17.654c40.992,-8.313 80.396,-30.738 120.142,-42.638c7.979,-2.4 15.958,-4.458 24,-5.671c13.142,-1.975 26.542,-3.066 40.171,-2.641c25.554,0.804 49.562,9.425 73.641,18.541c7.413,2.792 14.905,5.475 22.296,8.446c18.117,7.271 36.067,15.309 55.309,19.063c8.512,1.662 17.575,2.479 26.666,3.587c8.879,1.079 17.888,2.088 26.434,4.329c13.712,3.596 27.237,6.113 40.858,6.934c6.933,0.412 13.854,0.466 20.762,0.271c41.95,-7.584 80.892,-12.871 119.921,-14.334c14.284,-0.496 31.884,1.146 45.996,6.442c40.308,19.679 1018.59,-6.658 1151.61,-6.658" style="fill:none;fill-rule:nonzero;stroke:#133a5b;stroke-width:12.5px;"/><path d="M39.441,646.84c56.4,-0.717 118.717,-4.992 140.325,-24.955c2.042,-1.887 4.042,-3.704 5.909,-5.562c3.75,-3.75 7.183,-7.396 9.666,-11.338c7.575,-12.037 27.53,-4.312 42.8,5.938c3.034,1.387 6.021,2.658 8.95,3.833c8.7,3.517 16.909,6.271 24.471,7.704c4.809,0.913 9.529,0.984 14.117,1.146c0.662,0.025 1.312,0 1.971,-0.012c2.304,-0.5 4.387,-1.175 6.308,-1.942c1.05,-0.417 2.063,-0.837 2.988,-1.375c7.533,-4.383 11.366,-10.862 18.275,-17.858c2.004,-0.913 3.97,-1.784 5.933,-2.579c15.283,0.72 27.125,3.325 37.737,5.195c2.75,-0.987 5.425,-1.991 8.071,-3.1c5.292,-2.22 10.434,-4.091 15.529,-6.233c2.688,-1.133 5.305,-2.442 8.046,-3.596c18.338,0.088 59.359,-6.437 126.646,-24.246c9.171,-2.429 17.921,-4.695 26.338,-6.675c93.358,-21.933 153.129,62.359 216.233,56.688c3.642,0.217 6.958,0.467 9.904,0.767c2.971,0.308 5.55,0.712 7.738,1.212c1.287,0.296 2.558,0.508 3.808,0.729c7.587,1.354 14.1,3.621 25.483,1c10.463,-2.412 26.35,-6.6 37.488,-11.308c7.691,-0.808 15.666,-0.325 23.571,-0.533c7.591,-0.2 15.112,-0.059 22.266,-0.605c11.571,3.834 22.563,6.484 30.063,1.717c6.258,-3.971 14.741,-10.567 21.887,-15.967c10.396,-7.845 18.496,-15.404 23.513,-15.341c2.466,-4.863 -3.213,-6.004 -11.167,-9.409c0.758,-8.333 -4.546,-17.429 0,-13.641c34.588,23.591 76.646,123.687 139.258,161.487c10.896,-7.087 24.038,-16.183 40.046,-22.308c30.463,-11.658 55.667,-43.017 87.471,-60.983c12.288,-6.942 24.017,-13.93 36.475,-17.459c9.833,0.546 23.033,4.167 34.479,9.629c6.942,3.313 14.004,6.392 20.825,10.042c19.988,10.596 39.054,23.413 57.646,36.883c4.113,2.975 8.1,6.13 12.275,9c5.404,3.717 10.717,7.475 15.867,11.496c24.8,19.35 45.7,55.559 76.866,44.792c20.58,-7.108 26.155,-35.804 30.525,-58.704c3.217,-16.854 6.438,-31.104 16.196,-38.229c9.913,-7.234 17.65,-13.617 27.442,-17.905c4.942,-2.162 10.262,-4.016 16.392,-5.445c6.516,-0.4 14.2,-0.975 23.429,-0.825c6.508,0.108 13.396,0.312 20.579,0.825c7.129,0.504 14.542,1.283 22.167,2.32c3.675,0.5 7.22,1.45 10.67,2.734c3.313,1.233 6.588,2.708 9.684,4.604c10.758,6.6 20.537,16.221 31.396,23.129c7.195,4.571 14.737,8.308 22.558,10.958c8.496,1.288 16.4,1.492 23.95,1.159c27.2,-1.204 47.887,-14.838 73.858,-19.9c41.029,-8.004 80.621,-30.025 120.521,-41.088c8,-2.229 16.008,-4.121 24.071,-5.104c13.137,-1.604 26.529,-2.304 40.146,-1.662c25.446,1.204 49.504,9.591 73.658,18.362c7.442,2.688 14.967,5.233 22.388,8.108c18.187,7.038 36.179,14.9 55.395,18.642c8.646,1.688 17.796,2.554 26.975,3.663c8.946,1.079 17.996,2.045 26.638,4.125c13.779,3.312 27.325,5.504 40.917,6.016c6.925,0.259 13.833,0.15 20.72,-0.204c41.73,-8.05 80.321,-14.796 119.142,-17.862c14.142,-1.1 31.988,0.095 45.988,5.308c40.054,19.979 86.13,12.367 127.976,24.18c9.263,2.612 1030.81,-29.522 1042.34,-31.185" style="fill:none;fill-rule:nonzero;stroke:#133a5b;stroke-width:12.5px;"/><path d="M39.58,646.79c55.583,-0.475 115.571,-3.687 137.346,-20.604c2.083,-1.621 4.112,-3.141 6.008,-4.696c3.85,-3.154 7.379,-6.12 9.971,-9.433c7.858,-10.046 26.691,-2.042 41.041,8.438c2.859,1.483 5.65,2.862 8.392,4.158c8.138,3.867 15.721,7.121 22.675,9.1c4.458,1.271 8.858,1.912 13.117,2.287c0.616,0.055 1.229,0.13 1.837,0.18c2.15,-0.23 4.096,-0.613 5.892,-1.092c0.987,-0.258 1.929,-0.525 2.8,-0.904c7.046,-3.059 10.737,-7.959 17.817,-13.434c2.091,-0.504 4.141,-0.97 6.183,-1.358c15.887,3.317 28.254,8.596 39.317,13.033c2.82,-0.287 5.566,-0.591 8.275,-1.025c5.387,-0.858 10.625,-1.3 15.958,-2.016c2.746,-0.371 5.483,-0.929 8.325,-1.313c18.783,7.129 62.271,6.859 130.567,-8.925c9.187,-2.121 17.979,-4.187 26.45,-6.087c93.041,-20.896 155.766,54.354 217.779,42.208c3.604,-0.221 6.883,-0.421 9.791,-0.583c2.934,-0.167 5.5,-0.167 7.667,-0.25c1.283,-0.054 2.538,-0.088 3.775,-0.129c7.442,-0.28 13.971,0.533 24.883,-3.25c10.438,-3.621 25.8,-8.905 37.621,-14.296c7.646,-1.4 15.529,-1.888 23.313,-2.559c7.504,-0.65 14.891,-1.512 21.929,-2.791c11.054,2.846 21.575,4.608 28.833,-0.467c6.179,-4.317 14.367,-11.058 21.259,-16.737c10.4,-8.559 18.45,-16.984 23.745,-18.384c2.955,-5.841 -3.295,-7.925 -11.629,-12.091c0,-8.334 -6.25,-16.667 -2.083,-12.5c30.133,28.441 73.062,125.633 135.692,163.883c11.67,-5.338 25.541,-12.825 41.862,-17.563c31.733,-9.208 55.908,-41.616 85.9,-61.979c11.679,-7.929 22.75,-15.904 34.667,-20.337c9.358,0.154 22.5,3.475 33.691,8.825c6.925,3.308 13.946,6.458 20.717,10.187c19.792,10.788 38.575,24 56.933,37.759c4.071,3.045 8.009,6.245 12.138,9.179c5.329,3.8 10.587,7.633 15.704,11.679c24.625,19.487 45.921,53.996 77.279,43.783c20.954,-6.825 27.2,-35.229 31.454,-57.983c3.13,-16.758 5.921,-31.183 14.525,-39.063c8.95,-8.191 15.621,-15.591 24.634,-21.012c4.575,-2.75 9.571,-5.2 15.475,-7.242c6.291,-1.166 13.825,-2.262 23.05,-3.05c6.454,-0.55 13.316,-0.721 20.491,-0.666c7.121,0.05 14.55,0.395 22.188,1.079c3.717,0.333 7.279,1.166 10.742,2.375c3.329,1.166 6.62,2.596 9.708,4.5c10.683,6.583 20.275,16.504 31.029,23.529c6.979,4.558 14.317,8.237 21.958,10.758c8.55,1.1 16.438,1.042 23.934,0.4c27.008,-2.316 47.087,-17.275 73.087,-22.146c41.071,-7.7 80.85,-29.304 120.888,-39.537c8.033,-2.058 16.066,-3.779 24.154,-4.542c13.133,-1.237 26.521,-1.541 40.121,-0.679c25.341,1.608 49.446,9.758 73.666,18.179c7.48,2.588 15.038,4.992 22.484,7.771c18.262,6.817 36.296,14.513 55.483,18.229c8.775,1.704 18.021,2.634 27.292,3.742c9,1.079 18.104,2.004 26.837,3.917c13.834,3.033 27.417,4.895 40.975,5.1c6.925,0.104 13.817,-0.167 20.679,-0.688c41.505,-8.512 79.746,-16.708 118.359,-21.383c14.004,-1.704 32.104,-0.954 45.971,4.171c39.804,20.279 85.522,13.517 127.443,24.717c9.325,2.487 924.484,-32.069 1061.6,-32.069" style="fill:none;fill-rule:nonzero;stroke:#133a5b;stroke-width:12.5px;"/><path d="M39.726,646.742c54.763,-0.234 112.421,-2.392 134.359,-16.254c2.125,-1.342 4.183,-2.58 6.112,-3.83c3.946,-2.566 7.567,-4.837 10.279,-7.516c8.121,-8.046 25.846,0.221 39.28,10.925c2.675,1.587 5.283,3.075 7.829,4.496c7.562,4.245 14.529,7.962 20.875,10.479c4.108,1.625 8.2,2.629 12.125,3.433c0.571,0.117 1.141,0.263 1.7,0.379c1.996,0.038 3.804,-0.054 5.479,-0.25c0.921,-0.104 1.8,-0.208 2.612,-0.429c6.517,-1.775 10.109,-5.054 17.359,-9.012c2.175,-0.1 4.337,-0.505 6.429,-0.138c17.246,3.071 29.387,13.875 40.892,20.875c2.9,0.417 5.704,0.804 8.487,1.05c5.475,0.488 10.808,1.45 16.383,2.2c2.809,0.379 5.671,0.588 8.609,0.967c19.225,14.171 65.175,20.104 134.483,6.396c9.196,-1.817 18.042,-3.675 26.563,-5.5c92.725,-19.863 158.408,46.35 219.329,27.733c3.562,-0.654 6.8,-1.3 9.675,-1.933c2.9,-0.634 5.441,-1.221 7.591,-1.713c1.284,-0.292 2.517,-0.671 3.75,-0.987c7.263,-1.863 13.825,-2.596 24.284,-7.5c10.396,-4.871 25.246,-11.209 37.754,-17.284c7.6,-1.996 15.404,-3.171 23.037,-4.575c7.434,-1.366 14.692,-2.979 21.609,-4.987c10.529,1.854 20.587,2.721 27.604,-2.654c6.087,-4.663 13.987,-11.559 20.621,-17.496c10.387,-9.3 18.408,-18.575 23.983,-21.429c3.442,-6.83 -3.379,-9.855 -12.083,-14.784c-0.759,-8.333 -7.963,-15.908 -4.167,-11.362c25.675,33.3 69.471,127.591 132.113,166.283c12.454,-3.583 27.066,-9.429 43.691,-12.804c33.013,-6.704 56.129,-40.233 84.321,-62.983c11.067,-8.925 21.483,-17.884 32.858,-23.217c8.888,-0.238 21.967,2.792 32.905,8.025c6.916,3.308 13.891,6.521 20.612,10.321c19.596,10.983 38.092,24.587 56.229,38.65c4.009,3.104 7.909,6.354 11.984,9.358c5.258,3.879 10.466,7.775 15.541,11.854c24.463,19.621 46.146,52.442 77.696,42.767c21.338,-6.538 28.254,-34.654 32.379,-57.25c3.046,-16.671 5.388,-31.304 12.85,-39.9c7.971,-9.175 13.596,-17.579 21.846,-24.129c4.196,-3.338 8.875,-6.379 14.55,-9.034c6.063,-1.929 13.45,-3.745 22.679,-5.275c6.388,-1.058 13.229,-1.745 20.396,-2.15c7.113,-0.408 14.55,-0.5 22.208,-0.162c3.75,0.154 7.338,0.883 10.805,2.017c3.354,1.1 6.658,2.483 9.741,4.387c10.609,6.558 20.017,16.796 30.659,23.933c6.762,4.538 13.9,8.171 21.362,10.559c8.6,0.904 16.471,0.591 23.908,-0.359c26.83,-3.425 46.3,-19.716 72.321,-24.391c41.121,-7.392 81.071,-28.588 121.267,-37.988c8.054,-1.891 16.117,-3.446 24.225,-3.979c13.129,-0.862 26.517,-0.783 40.1,0.3c25.233,2.004 49.387,9.921 73.679,18.004c7.504,2.484 15.104,4.754 22.575,7.434c18.333,6.579 36.408,14.108 55.567,17.808c8.912,1.725 18.246,2.717 27.604,3.821c9.067,1.071 18.221,1.971 27.042,3.716c13.9,2.75 27.516,4.28 41.033,4.175c6.925,-0.054 13.8,-0.479 20.637,-1.162c41.284,-8.983 79.175,-18.629 117.58,-24.913c13.875,-2.304 32.216,-2 45.962,3.038c39.55,20.579 84.902,14.684 126.902,25.254c9.391,2.367 20.395,3.367 31.879,1.492c9.725,-1.587 957.247,-34.449 1048.97,-34.449" style="fill:none;fill-rule:nonzero;stroke:#133a5b;stroke-width:12.5px;"/><path d="M39.865,646.693c53.946,0.012 109.316,-1.067 131.379,-11.904c2.167,-1.063 4.254,-2.017 6.208,-2.963c4.063,-1.966 7.759,-3.558 10.592,-5.608c8.337,-6.038 25.004,2.492 37.521,13.429c2.491,1.679 4.908,3.279 7.271,4.821c6.995,4.608 13.32,8.808 19.079,11.862c3.746,1.992 7.537,3.342 11.129,4.58c0.521,0.183 1.042,0.391 1.562,0.575c1.838,0.308 3.505,0.504 5.059,0.595c0.854,0.055 1.662,0.105 2.425,0.038c5.975,-0.508 9.483,-2.142 16.904,-4.579c2.262,0.304 4.55,0.366 6.667,1.083c18.087,6.125 29.158,21.154 42.479,28.717c2.758,1.562 5.841,2.183 8.691,3.121c5.563,1.82 11.017,4.179 16.817,6.42c2.867,1.109 5.854,2.096 8.892,3.242c19.662,21.213 68.075,33.35 138.396,21.717c9.212,-1.525 18.104,-3.167 26.675,-4.917c92.4,-18.842 161.05,38.346 220.875,13.258c3.529,-1.091 6.72,-2.187 9.554,-3.283c2.871,-1.108 5.387,-2.192 7.525,-3.179c1.275,-0.583 2.483,-1.242 3.721,-1.838c7.066,-3.412 13.645,-5.758 23.683,-11.75c10.317,-6.162 24.704,-13.508 37.887,-20.27c7.555,-2.592 15.267,-4.471 22.78,-6.605c7.341,-2.083 14.47,-4.433 21.275,-7.179c10,0.875 19.595,0.842 26.379,-4.829c6,-5.021 13.591,-12.067 19.983,-18.262c10.367,-10.042 18.363,-20.163 24.217,-24.471c3.929,-7.813 -3.459,-11.788 -12.55,-17.475c-1.513,-8.329 -9.654,-15.146 -6.246,-10.225c21.221,38.158 65.892,129.541 128.542,168.683c13.237,-1.833 28.579,-6.008 45.52,-8.05c34.292,-4.137 56.321,-38.858 82.746,-63.979c10.442,-9.929 20.209,-19.867 31.046,-26.104c8.417,-0.625 21.438,2.104 32.113,7.221c6.904,3.308 13.837,6.591 20.508,10.466c19.4,11.179 37.612,25.171 55.525,39.529c3.958,3.171 7.812,6.463 11.833,9.534c5.188,3.962 10.338,7.937 15.384,12.037c24.3,19.75 46.366,50.896 78.108,41.763c21.721,-6.25 29.304,-34.088 33.308,-56.534c2.959,-16.57 4.817,-31.425 11.179,-40.729c6.959,-10.179 11.559,-19.566 19.038,-27.241c3.825,-3.93 8.187,-7.571 13.637,-10.825c5.83,-2.692 13.088,-5.225 22.3,-7.505c6.338,-1.566 13.15,-2.775 20.296,-3.641c7.113,-0.863 14.559,-1.367 22.242,-1.404c3.783,-0.013 7.392,0.608 10.871,1.662c3.379,1.021 6.691,2.371 9.766,4.279c10.538,6.542 19.759,17.079 30.288,24.334c6.55,4.516 13.479,8.1 20.762,10.362c8.659,0.708 16.513,0.133 23.9,-1.121c26.646,-4.537 45.5,-22.154 71.55,-26.641c41.155,-7.088 81.296,-27.863 121.63,-36.434c8.091,-1.721 16.179,-3.104 24.308,-3.412c13.129,-0.496 26.5,-0.025 40.083,1.275c25.117,2.408 49.321,10.091 73.688,17.833c7.533,2.375 15.171,4.508 22.666,7.092c18.409,6.346 36.525,13.708 55.655,17.396c9.041,1.741 18.466,2.791 27.912,3.895c9.133,1.067 18.338,1.934 27.246,3.509c13.967,2.471 27.604,3.675 41.1,3.258c6.917,-0.212 13.775,-0.796 20.587,-1.637c41.063,-9.45 78.63,-20.459 116.796,-28.442c13.746,-2.871 32.325,-3.054 45.95,1.896c39.304,20.883 84.289,15.85 126.373,25.804c9.458,2.238 20.408,3.03 31.866,1.05c9.579,-1.654 19.259,-2.012 27.729,-3.92c7.634,0.137 993.321,-30.98 1040.5,-30.98" style="fill:none;fill-rule:nonzero;stroke:#133a5b;stroke-width:12.5px;"/><path d="M40.007,646.648c53.129,0.25 106.229,0.321 128.404,-7.554c2.208,-0.787 4.321,-1.454 6.304,-2.104c4.163,-1.367 7.913,-2.275 10.892,-3.692c8.521,-4.054 24.167,4.755 35.767,15.917c2.312,1.783 4.541,3.496 6.708,5.158c6.429,4.975 12.108,9.655 17.283,13.25c3.379,2.35 6.871,4.084 10.125,5.725c0.488,0.246 0.959,0.517 1.434,0.763c1.675,0.579 3.212,1.062 4.645,1.446c0.78,0.204 1.521,0.408 2.238,0.508c5.421,0.742 8.846,0.758 16.446,-0.158c2.346,0.716 4.737,1.241 6.908,2.304c18.767,9.183 30.3,25.983 44.071,36.562c2.796,2.15 5.975,3.571 8.892,5.196c5.654,3.15 11.25,6.888 17.245,10.634c2.946,1.841 6.03,3.616 9.171,5.529c20.1,28.254 70.971,46.537 142.309,37.033c9.225,-1.229 18.17,-2.654 26.791,-4.329c92.075,-17.833 163.688,30.337 222.421,-1.221c3.496,-1.525 6.65,-3.071 9.442,-4.629c2.833,-1.583 5.312,-3.163 7.458,-4.642c1.263,-0.875 2.458,-1.821 3.683,-2.7c6.884,-4.929 13.43,-8.929 23.084,-16.004c10.2,-7.467 24.154,-15.8 38.021,-23.25c7.504,-3.187 15.133,-5.771 22.516,-8.625c7.254,-2.804 14.263,-5.896 20.938,-9.379c9.487,-0.108 18.604,-1.046 25.158,-7.013c5.9,-5.37 13.183,-12.57 19.354,-19.025c10.309,-10.8 18.309,-21.75 24.446,-27.512c4.421,-8.796 -3.533,-13.721 -13.004,-20.154c-2.275,-8.334 -11.367,-14.4 -8.333,-9.092c16.762,43.017 62.304,131.492 124.966,171.075c14.013,-0.075 30.121,-4.433 47.346,-3.296c35.521,2.354 56.504,-37.483 81.171,-64.979c9.808,-10.933 18.946,-21.842 29.237,-28.979c7.946,-1.021 20.9,1.417 31.325,6.421c6.884,3.308 13.78,6.65 20.4,10.608c19.209,11.367 37.138,25.75 54.821,40.408c3.904,3.234 7.717,6.575 11.684,9.709c5.12,4.046 10.216,8.087 15.229,12.221c24.137,19.883 46.587,49.354 78.512,40.75c22.1,-5.959 30.363,-33.517 34.238,-55.805c2.875,-16.483 4.225,-31.566 9.508,-41.566c5.904,-11.188 9.521,-21.546 16.242,-30.354c3.45,-4.517 7.491,-8.755 12.716,-12.621c5.6,-3.459 12.717,-6.717 21.921,-9.729c6.288,-2.084 13.067,-3.805 20.204,-5.125c7.105,-1.321 14.559,-2.271 22.267,-2.65c3.821,-0.188 7.454,0.32 10.938,1.304c3.4,0.95 6.729,2.258 9.795,4.171c10.467,6.516 19.5,17.354 29.917,24.733c6.338,4.492 13.058,8.037 20.158,10.162c8.717,0.521 16.559,-0.312 23.884,-1.875c26.475,-5.645 44.712,-24.6 70.779,-28.887c41.2,-6.779 81.525,-27.15 122.012,-34.879c8.113,-1.559 16.238,-3.163 24.38,-2.859c13.12,0.492 26.483,0.734 40.058,2.259c25.008,2.808 49.267,10.258 73.696,17.65c7.571,2.279 15.237,4.266 22.762,6.754c18.484,6.117 36.642,13.312 55.746,16.983c9.171,1.763 18.683,2.871 28.221,3.975c9.196,1.063 18.45,1.9 27.45,3.304c14.033,2.192 27.696,3.055 41.154,2.338c6.917,-0.367 13.763,-1.113 20.55,-2.121c40.838,-9.904 78.075,-22.317 116.017,-31.958c13.612,-3.463 32.437,-4.104 45.937,0.754c39.054,21.183 83.681,16.992 125.839,26.342c9.529,2.108 20.425,2.708 31.858,0.621c9.434,-1.721 18.971,-1.796 27.409,-3.05c7.7,0.562 15.237,2.462 22.541,2.246c8.05,-0.242 965.875,-34.552 1037.53,-34.552" style="fill:none;fill-rule:nonzero;stroke:#133a5b;stroke-width:12.5px;"/><path d="M40.149,646.603c52.313,0.488 103.134,1.725 125.425,-3.212c2.246,-0.5 4.384,-0.879 6.405,-1.233c4.275,-0.759 8.062,-1.017 11.195,-1.78c8.663,-2.116 23.325,7.013 34.009,18.413c2.125,1.879 4.171,3.704 6.146,5.487c5.858,5.338 10.887,10.488 15.487,14.634c3.004,2.704 6.208,4.808 9.129,6.871c0.446,0.316 0.863,0.65 1.296,0.958c1.521,0.85 2.917,1.617 4.229,2.287c0.717,0.363 1.384,0.717 2.05,0.984c4.884,1.937 8.221,3.662 15.992,4.266c2.425,1.125 4.908,2.113 7.146,3.53c19.329,12.22 31.546,30.879 45.654,44.4c2.883,2.762 6.125,4.954 9.1,7.266c5.754,4.475 11.5,9.613 17.675,14.859c3.033,2.57 6.217,5.12 9.45,7.8c20.55,35.304 73.883,59.691 146.229,52.354c9.242,-0.934 18.229,-2.146 26.904,-3.738c91.742,-16.833 166.325,22.334 223.971,-15.7c3.454,-1.958 6.563,-3.966 9.317,-5.979c2.804,-2.054 5.254,-4.121 7.387,-6.104c1.263,-1.167 2.438,-2.383 3.663,-3.558c6.712,-6.421 13.175,-12.109 22.483,-20.255c10.046,-8.787 23.6,-18.095 38.154,-26.233c7.463,-3.783 14.996,-7.075 22.25,-10.646c7.167,-3.533 14.046,-7.358 20.604,-11.575c8.963,-1.096 17.6,-2.941 23.934,-9.196c5.8,-5.729 12.775,-13.083 18.716,-19.787c10.246,-11.563 18.271,-23.338 24.68,-30.554c4.912,-9.784 -3.613,-15.65 -13.463,-22.846c-3.029,-8.333 -13.062,-13.638 -10.412,-7.954c12.304,47.875 58.716,133.446 121.387,173.475c14.804,1.679 31.742,-0.821 49.179,1.458c36.525,4.775 56.654,-36.108 79.592,-65.979c9.171,-11.938 17.675,-23.821 27.433,-31.863c7.471,-1.412 20.359,0.734 30.529,5.621c6.871,3.304 13.721,6.717 20.3,10.746c19.009,11.563 36.655,26.342 54.109,41.292c3.85,3.3 7.625,6.687 11.541,9.887c5.046,4.129 10.084,8.242 15.063,12.4c23.975,20.017 46.812,47.821 78.929,39.742c22.479,-5.65 31.408,-32.942 35.167,-55.079c2.783,-16.392 3.596,-31.692 7.837,-42.404c4.821,-12.188 7.471,-23.534 13.442,-33.471c3.067,-5.1 6.796,-9.934 11.792,-14.404c5.37,-4.221 12.37,-8.175 21.55,-11.963c6.241,-2.575 12.979,-4.829 20.108,-6.612c7.096,-1.771 14.558,-3.155 22.283,-3.888c3.863,-0.367 7.521,0.046 11.013,0.946c3.416,0.879 6.762,2.146 9.821,4.062c10.395,6.5 19.25,17.63 29.55,25.138c6.125,4.467 12.637,7.967 19.558,9.962c8.771,0.325 16.596,-0.766 23.871,-2.637c26.291,-6.763 43.916,-27.038 70.004,-31.133c41.25,-6.471 81.75,-26.434 122.379,-33.33c8.15,-1.391 16.317,-2.866 24.467,-2.295c13.091,0.925 26.471,1.495 40.029,3.241c24.896,3.204 49.212,10.425 73.712,17.475c7.596,2.175 15.3,4.017 22.855,6.413c18.55,5.883 36.754,12.916 55.825,16.566c9.312,1.784 18.912,2.95 28.533,4.05c9.258,1.063 18.571,1.867 27.658,3.105c14.1,1.916 27.784,2.441 41.213,1.416c6.912,-0.529 13.746,-1.429 20.508,-2.6c40.617,-10.375 77.529,-24.191 115.233,-35.487c13.488,-4.038 32.555,-5.154 45.925,-0.375c38.809,21.479 83.089,18.138 125.298,26.875c9.595,1.988 20.454,2.388 31.862,0.188c9.292,-1.792 18.675,-1.567 27.1,-2.167c7.763,0.983 15.346,3.012 22.746,3.871c8.179,0.95 20.329,2.879 23.004,-3.438c20.558,-22.725 1020.82,-34.073 1033.88,-34.073" style="fill:none;fill-rule:nonzero;stroke:#133a5b;stroke-width:12.5px;"/><path d="M40.296,646.555c51.488,0.729 100.025,3.179 122.438,1.137c2.295,-0.204 4.462,-0.304 6.5,-0.367c4.395,-0.141 8.254,0.63 11.508,0.134c8.7,-1.329 22.487,9.275 32.25,20.904c1.946,1.979 3.8,3.917 5.583,5.821c5.292,5.704 9.654,11.321 13.692,16.021c2.625,3.054 5.537,5.541 8.133,8.012c0.4,0.379 0.775,0.775 1.167,1.154c1.358,1.121 2.612,2.167 3.808,3.134c0.642,0.516 1.254,1.012 1.863,1.45c4.371,3.12 7.966,5.466 15.537,8.695c2.7,1.159 5.063,2.971 7.388,4.755c19.808,15.191 32.854,35.837 47.233,52.237c2.979,3.392 6.275,6.333 9.308,9.342c5.867,5.796 11.755,12.341 18.1,19.075c3.125,3.308 6.396,6.633 9.734,10.075c20.996,42.346 76.796,72.837 150.146,67.679c9.254,-0.65 18.287,-1.638 27.02,-3.15c91.405,-15.846 168.967,14.329 225.521,-30.179c3.409,-2.396 6.475,-4.85 9.196,-7.329c2.767,-2.534 5.192,-5.084 7.317,-7.567c1.25,-1.45 2.416,-2.95 3.629,-4.408c6.575,-7.917 12.896,-15.284 21.887,-24.509c9.855,-10.108 23.055,-20.4 38.284,-29.225c7.412,-4.375 14.85,-8.383 21.979,-12.671c7.083,-4.254 13.846,-8.812 20.279,-13.766c8.442,-2.084 16.592,-4.829 22.708,-11.375c5.688,-6.092 12.355,-13.604 18.084,-20.554c10.158,-12.338 18.229,-24.925 24.908,-33.592c5.404,-10.763 -3.687,-17.583 -13.917,-25.538c-3.783,-8.333 -14.77,-12.879 -12.5,-6.816c7.846,52.733 55.138,135.396 117.825,175.875c15.575,3.425 33.084,4.396 50.992,6.208c38.046,3.854 56.792,-34.721 78.025,-66.975c8.513,-12.933 16.4,-25.796 25.621,-34.742c7,-1.808 19.829,0.046 29.737,4.817c6.863,3.304 13.663,6.779 20.196,10.888c18.817,11.754 36.175,26.925 53.404,42.175c3.8,3.362 7.534,6.8 11.392,10.066c4.979,4.209 9.963,8.392 14.904,12.575c23.809,20.15 47.034,46.296 79.342,38.734c22.858,-5.35 32.458,-32.371 36.092,-54.355c2.7,-16.304 2.945,-31.804 6.162,-43.237c3.708,-13.188 5.429,-25.521 10.642,-36.583c2.687,-5.7 6.104,-11.121 10.883,-16.196c5.133,-4.992 12.021,-9.654 21.167,-14.192c6.208,-3.083 12.9,-5.854 20.012,-8.096c7.092,-2.233 14.563,-4.062 22.313,-5.141c3.891,-0.538 7.571,-0.234 11.075,0.591c3.437,0.809 6.796,2.034 9.854,3.954c10.321,6.48 18.996,17.909 29.175,25.542c5.917,4.438 12.217,7.904 18.962,9.767c8.817,0.129 16.634,-1.221 23.855,-3.396c26.12,-7.879 43.12,-29.483 69.229,-33.379c41.3,-6.167 81.983,-25.717 122.762,-31.784c8.171,-1.216 16.359,-2.108 24.538,-1.729c13.129,0.604 26.454,2.254 40.012,4.217c24.775,3.6 49.142,10.592 73.721,17.3c7.629,2.071 15.367,3.775 22.942,6.075c18.621,5.642 36.875,12.521 55.916,16.15c9.442,1.796 19.134,3.029 28.842,4.129c9.325,1.054 18.692,1.833 27.867,2.892c14.166,1.646 27.875,1.837 41.266,0.504c6.909,-0.688 13.73,-1.746 20.467,-3.079c40.388,-10.834 76.988,-26.05 114.454,-39.013c13.354,-4.621 32.667,-6.2 45.913,-1.512c38.558,21.783 82.48,19.3 124.764,27.421c9.658,1.854 20.466,2.054 31.854,-0.254c9.146,-1.854 18.391,-1.342 26.779,-1.292c7.829,1.417 15.471,4.004 22.967,5.5c8.3,1.663 21.112,4.484 24,-1.525c22.037,-21.962 1038.51,-38.941 1052.24,-38.941" style="fill:none;fill-rule:nonzero;stroke:#133a5b;stroke-width:12.5px;"/><path d="M40.434,646.506c50.675,0.971 96.896,4.708 119.459,5.492c2.333,0.083 4.533,0.27 6.6,0.495c4.5,0.488 8.383,1.438 11.812,2.046c8.963,1.588 21.646,11.542 30.5,23.396c1.754,2.079 3.429,4.121 5.017,6.15c4.737,6.067 8.417,12.133 11.9,17.404c2.242,3.4 4.85,6.292 7.129,9.167c0.354,0.442 0.688,0.9 1.033,1.35c1.205,1.387 2.309,2.712 3.392,3.975c0.579,0.667 1.125,1.312 1.679,1.925c3.904,4.308 7.404,8.608 15.079,13.117c2.792,1.641 5.221,3.825 7.634,5.975c20.271,18.079 34.179,40.87 48.812,60.079c3.079,4.037 6.413,7.721 9.513,11.421c5.962,7.129 12.012,15.07 18.537,23.287c3.209,4.046 6.575,8.146 10.009,12.358c21.437,49.384 79.712,85.925 154.062,83c9.275,-0.366 18.35,-1.137 27.133,-2.57c91.063,-14.859 171.605,6.325 227.067,-44.646c3.375,-2.838 6.396,-5.742 9.071,-8.688c2.737,-3 5.129,-6.041 7.258,-9.025c1.242,-1.741 2.404,-3.521 3.6,-5.271c6.438,-9.4 12.579,-18.45 21.279,-28.758c9.642,-11.425 22.513,-22.696 38.421,-32.208c7.367,-4.967 14.704,-9.688 21.721,-14.692c6.979,-4.987 13.621,-10.275 19.946,-15.958c7.917,-3.075 15.567,-6.729 21.475,-13.563c5.575,-6.454 11.929,-14.116 17.45,-21.316c10.062,-13.121 18.187,-26.513 25.146,-36.634c5.891,-11.75 -3.767,-19.512 -14.371,-28.225c-4.55,-8.333 -16.479,-12.121 -14.588,-5.683c3.388,57.592 51.55,137.35 114.246,178.275c16.367,5.179 34.559,7.892 52.825,10.967c39.234,6.595 56.904,-33.33 76.446,-67.984c7.858,-13.929 15.129,-27.775 23.813,-37.621c6.525,-2.2 19.291,-0.637 28.945,4.013c6.855,3.3 13.609,6.85 20.088,11.033c18.625,11.95 35.7,27.509 52.696,43.054c3.746,3.434 7.441,6.917 11.25,10.242c4.916,4.3 9.833,8.55 14.746,12.767c23.641,20.287 47.25,44.762 79.754,37.716c23.233,-5.037 33.512,-31.795 37.029,-53.625c2.604,-16.212 2.267,-31.9 4.483,-44.079c2.571,-14.154 3.375,-27.491 7.846,-39.691c2.296,-6.288 5.404,-12.305 9.954,-17.992c4.909,-5.754 11.684,-11.125 20.792,-16.417c6.175,-3.587 12.817,-6.9 19.921,-9.587c7.079,-2.7 14.558,-4.959 22.337,-6.379c3.925,-0.717 7.625,-0.513 11.142,0.237c3.458,0.742 6.829,1.921 9.879,3.846c10.25,6.462 18.75,18.175 28.808,25.937c5.709,4.413 11.8,7.834 18.359,9.567c8.871,-0.058 16.675,-1.675 23.837,-4.158c25.954,-8.996 42.334,-31.921 68.467,-35.625c41.346,-5.863 82.2,-24.996 123.129,-30.229c8.2,-1.05 16.413,-1.771 24.617,-1.167c13.133,0.971 26.441,3.012 39.987,5.204c24.663,3.992 49.088,10.75 73.734,17.121c7.658,1.962 15.429,3.525 23.037,5.733c18.692,5.413 36.988,12.117 56.004,15.729c9.571,1.817 19.354,3.117 29.15,4.213c9.392,1.05 18.804,1.796 28.067,2.687c14.242,1.371 27.967,1.184 41.329,-0.416c6.908,-0.854 13.713,-2.067 20.425,-3.554c40.171,-11.309 76.458,-27.905 113.671,-42.542c13.233,-5.2 32.783,-7.25 45.9,-2.65c38.304,22.083 81.893,20.434 124.235,27.959c9.733,1.729 20.491,1.737 31.841,-0.684c9.004,-1.921 18.1,-1.121 26.467,-0.416c7.892,1.837 15.6,5 23.175,7.133c8.433,2.367 21.908,6.079 25.008,0.379c23.521,-21.196 40.588,-37.742 56.479,-42.454c4.713,-0.533 999.746,-1.313 1014.11,-1.355" style="fill:none;fill-rule:nonzero;stroke:#133a5b;stroke-width:12.5px;"/><path d="M40.577,646.457c49.858,1.217 93.717,6.217 116.479,9.842c2.363,0.379 4.6,0.846 6.7,1.358c4.6,1.121 8.554,2.646 12.121,3.958c9.183,3.375 20.8,13.809 28.737,25.896c1.575,2.175 3.059,4.334 4.455,6.479c4.162,6.434 7.179,12.938 10.1,18.792c1.866,3.729 4.175,7.021 6.137,10.308c0.308,0.517 0.596,1.034 0.896,1.542c1.046,1.663 2.017,3.271 2.979,4.825c0.504,0.817 1,1.617 1.488,2.392c3.466,5.512 6.77,11.737 14.62,17.546c2.863,2.12 5.375,4.67 7.875,7.195c20.73,20.913 35.505,45.963 50.4,67.921c3.188,4.696 6.555,9.109 9.713,13.492c6.062,8.471 12.283,17.821 18.971,27.508c3.308,4.792 6.758,9.659 10.296,14.638c21.875,56.429 82.67,100.671 157.975,98.321c9.283,-0.292 18.408,-0.634 27.245,-1.988c90.717,-13.908 174.242,-1.675 228.613,-59.121c3.337,-3.271 6.308,-6.633 8.958,-10.041c2.696,-3.475 5.063,-6.992 7.188,-10.484c1.225,-2.029 2.383,-4.087 3.562,-6.125c6.317,-10.896 12.259,-21.596 20.688,-33.016c9.396,-12.721 21.958,-24.992 38.55,-35.188c7.316,-5.567 14.558,-10.992 21.458,-16.717c6.879,-5.708 12.521,-12.737 19.617,-18.154c6.696,-5.116 14.55,-8.616 20.246,-15.741c5.458,-6.817 11.491,-14.63 16.812,-22.08c9.938,-13.904 18.142,-28.095 25.383,-39.679c6.38,-12.725 -3.85,-21.441 -14.837,-30.912c-5.3,-8.334 -18.179,-11.363 -16.667,-4.546c-1.062,62.454 47.967,139.3 110.679,180.675c8.152,5.378 36.009,11.4 54.646,15.717c40.384,9.358 57.009,-31.925 74.871,-68.975c7.196,-14.93 13.863,-29.759 22.004,-40.505c6.054,-2.595 18.754,-1.325 28.159,3.209c6.837,3.296 13.55,6.921 19.979,11.175c18.433,12.141 35.221,28.091 51.987,43.941c3.7,3.488 7.354,7.021 11.109,10.417c4.841,4.383 9.708,8.704 14.583,12.942c23.475,20.421 47.467,43.246 80.167,36.708c23.612,-4.721 34.562,-31.233 37.954,-52.9c2.525,-16.125 1.587,-31.971 2.808,-44.917c1.425,-15.104 1.325,-29.475 5.046,-42.804c1.921,-6.875 4.721,-13.487 9.042,-19.783c4.679,-6.517 11.341,-12.596 20.412,-18.642c6.146,-4.096 12.733,-7.929 19.829,-11.071c7.071,-3.162 14.55,-5.862 22.354,-7.625c3.959,-0.895 7.692,-0.8 11.217,-0.12c3.483,0.666 6.867,1.804 9.913,3.733c10.175,6.446 18.5,18.446 28.433,26.346c5.5,4.379 11.379,7.762 17.758,9.366c8.925,-0.258 16.721,-2.129 23.825,-4.916c25.779,-10.117 41.538,-34.359 67.692,-37.871c41.392,-5.554 82.429,-24.279 123.504,-28.679c8.225,-0.884 16.475,-1.438 24.692,-0.604c13.141,1.341 26.429,3.766 39.966,6.183c24.546,4.383 49.021,10.917 73.746,16.937c7.684,1.867 15.488,3.292 23.129,5.4c18.755,5.18 37.1,11.721 56.084,15.313c9.712,1.833 19.583,3.2 29.471,4.292c9.445,1.045 18.92,1.762 28.266,2.479c14.313,1.096 28.054,0.575 41.388,-1.334c6.908,-1.012 13.696,-2.383 20.383,-4.033c39.95,-11.771 75.938,-29.758 112.892,-46.067c13.108,-5.779 32.883,-8.3 45.891,-3.787c38.05,22.383 81.281,21.575 123.693,28.5c9.8,1.6 20.509,1.417 31.838,-1.116c8.862,-1.984 17.812,-0.9 26.146,0.458c7.962,2.267 15.725,5.992 23.391,8.754c8.559,3.088 22.705,7.688 26.017,2.292c24.992,-20.429 44.825,-36.025 63.696,-41.196c5.446,-0.812 10.854,-1.329 16.233,-1.625c29.2,-1.617 995.571,-5.679 1009.01,-5.852" style="fill:none;fill-rule:nonzero;stroke:#133a5b;stroke-width:12.5px;"/><path d="M40.719,646.412c49.042,1.454 90.496,7.725 113.5,14.188c2.392,0.675 4.658,1.429 6.796,2.225c4.691,1.75 8.754,3.85 12.429,5.87c9.442,5.188 19.962,16.071 26.983,28.388c1.388,2.275 2.688,4.546 3.892,6.812c3.587,6.8 5.942,13.725 8.304,20.175c1.483,4.055 3.479,7.763 5.138,11.455c0.262,0.575 0.504,1.162 0.758,1.737c0.892,1.933 1.733,3.821 2.562,5.667c0.442,0.971 0.88,1.925 1.309,2.871c3.029,6.741 6.087,14.812 14.154,21.966c2.921,2.588 5.525,5.509 8.121,8.421c21.15,23.721 36.816,51.088 51.987,75.763c3.292,5.354 6.704,10.483 9.921,15.562c6.183,9.788 12.538,20.567 19.392,31.729c3.4,5.534 6.941,11.167 10.579,16.909c22.317,63.479 85.579,112.066 161.892,113.645c9.308,0.192 18.466,-0.129 27.358,-1.395c90.371,-12.93 176.883,-9.684 230.158,-73.6c3.304,-3.709 6.225,-7.521 8.842,-11.392c2.658,-3.95 5.004,-7.954 7.117,-11.95c1.22,-2.317 2.375,-4.65 3.541,-6.983c6.2,-12.388 11.909,-24.725 20.084,-37.263c9.141,-14.017 21.404,-27.292 38.679,-38.175c7.275,-6.162 14.408,-12.296 21.191,-18.737c6.78,-6.438 12.413,-13.95 19.288,-20.35c6.237,-5.809 13.517,-10.509 19.025,-17.93c5.325,-7.175 11.037,-15.137 16.175,-22.837c9.796,-14.692 18.096,-29.688 25.617,-42.721c6.866,-13.712 -3.93,-23.371 -15.296,-33.604c-6.059,-8.333 -19.884,-10.6 -18.746,-3.408c-5.525,67.308 44.375,141.25 107.096,183.075c9.287,6.193 37.45,14.908 56.479,20.47c41.504,12.134 57.096,-30.512 73.292,-69.979c6.533,-15.916 12.595,-31.729 20.195,-43.379c5.584,-2.987 18.217,-2.008 27.371,2.408c6.821,3.292 13.492,6.98 19.871,11.313c18.238,12.337 34.742,28.675 51.288,44.821c3.641,3.554 7.258,7.137 10.954,10.596c4.771,4.466 9.583,8.854 14.425,13.125c23.316,20.55 47.683,41.733 80.579,35.695c23.987,-4.4 35.608,-30.658 38.883,-52.175c2.434,-16.033 0.9,-32.025 1.138,-45.75c0.266,-16.033 -0.734,-31.454 2.246,-45.916c1.529,-7.463 4.02,-14.679 8.12,-21.575c4.446,-7.284 11.013,-14.075 20.038,-20.871c6.112,-4.6 12.646,-8.958 19.725,-12.558c7.075,-3.617 14.546,-6.759 22.387,-8.867c3.988,-1.075 7.755,-1.083 11.28,-0.483c3.504,0.595 6.904,1.7 9.937,3.629c10.108,6.429 18.267,18.704 28.063,26.746c5.3,4.35 10.966,7.695 17.17,9.17c8.975,-0.454 16.763,-2.575 23.8,-5.679c25.638,-11.187 40.75,-36.8 66.925,-40.116c41.434,-5.246 82.655,-23.563 123.875,-27.125c8.255,-0.717 16.542,-1.109 24.775,-0.042c13.146,1.7 26.413,4.521 39.942,7.162c24.429,4.767 48.963,11.084 73.754,16.763c7.717,1.758 15.554,3.046 23.221,5.058c18.825,4.946 37.217,11.317 56.179,14.892c9.838,1.854 19.8,3.279 29.775,4.375c9.513,1.046 19.042,1.737 28.471,2.275c14.388,0.821 28.146,-0.042 41.442,-2.254c6.904,-1.171 13.679,-2.7 20.346,-4.513c39.72,-12.237 75.408,-31.612 112.108,-49.591c13,-6.363 33,-9.355 45.875,-4.921c37.808,22.679 80.697,22.704 123.16,29.038c9.871,1.471 20.533,1.091 31.829,-1.554c8.725,-2.046 17.529,-0.671 25.837,1.333c8.034,2.692 15.855,7 23.609,10.392c8.683,3.8 23.487,9.287 27.016,4.195c26.467,-19.666 49.067,-34.308 70.925,-39.945c6.159,-1.088 12.305,-1.863 18.417,-2.392c33.008,-2.863 1001.3,-10.801 1017.95,-11.203" style="fill:none;fill-rule:nonzero;stroke:#133a5b;stroke-width:12.5px;"/><path d="M40.857,646.363c48.225,1.696 87.238,9.242 110.521,18.542c2.425,0.971 4.721,2.004 6.896,3.083c4.783,2.384 8.958,5.071 12.733,7.788c9.742,7.008 19.117,18.333 25.225,30.883c1.209,2.371 2.317,4.75 3.334,7.142c3.016,7.158 4.72,14.508 6.508,21.558c1.108,4.379 2.792,8.492 4.142,12.6c0.208,0.646 0.408,1.288 0.62,1.934c0.734,2.2 1.438,4.37 2.15,6.512c0.371,1.121 0.755,2.229 1.117,3.338c2.608,7.991 5.383,17.866 13.7,26.395c2.971,3.042 5.675,6.346 8.363,9.638c21.604,26.475 38.129,56.237 53.566,83.608c3.404,6.029 6.863,11.867 10.125,17.638c6.3,11.116 12.804,23.312 19.834,35.946c3.491,6.283 7.116,12.679 10.85,19.191c22.758,70.513 88.537,125.05 165.808,128.959c9.333,0.47 18.533,0.383 27.475,-0.813c90.025,-11.987 179.521,-17.683 231.704,-88.075c3.267,-4.137 6.146,-8.404 8.725,-12.737c2.625,-4.413 4.942,-8.909 7.046,-13.417c1.217,-2.596 2.362,-5.217 3.508,-7.833c6.088,-13.892 11.563,-27.85 19.492,-41.517c8.871,-15.296 20.858,-29.588 38.817,-41.158c7.22,-6.755 14.25,-13.6 20.916,-20.763c6.679,-7.162 12.367,-15.171 18.959,-22.546c5.829,-6.525 12.487,-12.396 17.791,-20.104c5.2,-7.546 10.592,-15.654 15.546,-23.608c9.633,-15.479 18.058,-31.275 25.854,-45.759c7.35,-14.7 -4.012,-25.308 -15.754,-36.287c-6.821,-8.338 -21.592,-9.854 -20.833,-2.275c-9.979,72.167 40.796,143.204 103.525,185.467c18.708,10.437 38.875,18.42 58.308,25.225c42.592,14.916 57.183,-29.071 71.717,-70.975c5.862,-16.9 11.321,-33.713 18.387,-46.263c5.104,-3.379 17.684,-2.687 26.575,1.604c6.813,3.288 13.438,7.05 19.771,11.454c18.042,12.534 34.258,29.263 50.575,45.709c3.592,3.616 7.171,7.246 10.808,10.771c4.713,4.554 9.459,9.008 14.267,13.304c23.154,20.691 47.892,40.221 80.988,34.683c24.366,-4.071 36.662,-30.087 39.812,-51.446c2.346,-15.941 0.221,-32.066 -0.537,-46.583c-0.884,-16.946 -2.805,-33.429 -0.546,-49.029c1.133,-8.05 3.325,-15.863 7.2,-23.371c4.216,-8.046 10.675,-15.558 19.658,-23.1c6.088,-5.108 12.563,-9.983 19.633,-14.046c7.063,-4.067 14.538,-7.65 22.413,-10.108c4.017,-1.25 7.804,-1.363 11.346,-0.838c3.525,0.525 6.933,1.584 9.971,3.521c10.033,6.408 18.025,18.963 27.691,27.15c5.096,4.317 10.538,7.629 16.563,8.971c9.033,-0.646 16.808,-3.038 23.791,-6.438c25.455,-12.337 39.955,-39.241 66.15,-42.362c41.488,-4.942 82.88,-22.846 124.25,-25.579c8.28,-0.55 16.6,-0.771 24.85,0.521c13.163,2.066 26.396,5.3 39.921,8.141c24.3,5.204 48.9,11.254 73.763,16.588c7.746,1.658 15.616,2.8 23.316,4.721c18.888,4.708 37.33,10.925 56.267,14.475c9.967,1.87 20.017,3.362 30.079,4.454c9.579,1.037 19.167,1.704 28.675,2.071c14.471,0.55 28.242,-0.655 41.509,-3.18c6.895,-1.325 13.658,-3.008 20.3,-4.983c39.504,-12.704 74.895,-33.479 111.329,-53.121c12.883,-6.941 33.112,-10.4 45.858,-6.058c37.563,22.983 80.11,23.834 122.631,29.575c9.946,1.346 20.546,0.775 31.821,-1.987c8.583,-2.104 17.241,-0.45 25.52,2.216c8.096,3.113 15.975,7.988 23.817,12.013c8.817,4.521 24.283,10.892 28.029,6.112c27.938,-18.908 53.304,-32.6 78.142,-38.7c6.892,-1.362 13.762,-2.404 20.612,-3.154c36.8,-4.133 1012.06,-16.558 1026.89,-16.558" style="fill:none;fill-rule:nonzero;stroke:#133a5b;stroke-width:12.5px;"/><path d="M41.004,646.315c47.404,1.941 83.942,10.733 107.537,22.891c2.446,1.263 4.78,2.584 6.988,3.95c4.875,3.013 9.179,6.288 13.046,9.696c10.05,8.854 18.279,20.604 23.471,33.375c1.02,2.475 1.945,4.971 2.766,7.475c2.459,7.529 3.5,15.288 4.713,22.946c0.75,4.7 2.096,9.221 3.141,13.75l0.488,2.125c0.579,2.471 1.15,4.917 1.733,7.358c0.309,1.275 0.634,2.542 0.934,3.809c2.158,9.25 4.666,20.895 13.241,30.82c3.025,3.496 5.821,7.18 8.604,10.863c22.063,29.2 39.43,61.412 55.15,91.446c3.509,6.7 7.009,13.254 10.338,19.712c6.404,12.446 13.075,26.063 20.254,40.163c3.592,7.025 7.3,14.196 11.133,21.466c23.2,77.559 91.521,137.996 169.725,144.284c9.355,0.737 18.592,0.883 27.588,-0.225c89.675,-11.046 182.162,-25.692 233.254,-102.55c3.229,-4.579 6.063,-9.292 8.604,-14.088c2.588,-4.891 4.879,-9.866 6.979,-14.879c1.205,-2.887 2.35,-5.787 3.484,-8.692c5.979,-15.4 11.191,-30.958 18.879,-45.77c8.604,-16.567 20.312,-31.888 38.95,-44.142c7.179,-7.35 14.087,-14.913 20.662,-22.788c6.55,-7.9 12.367,-16.408 18.625,-24.737c5.475,-7.288 11.446,-14.283 16.567,-22.288c5.058,-7.908 10.129,-16.158 14.904,-24.375c9.467,-16.266 18.017,-32.858 26.084,-48.8c7.845,-15.679 -4.084,-27.237 -16.205,-38.979c-7.575,-8.329 -23.295,-9.087 -22.916,-1.137c-14.442,77.029 37.208,145.158 99.954,187.871c19.483,12.187 40.275,21.929 60.125,29.983c43.658,17.704 57.267,-27.633 70.146,-71.983c5.191,-17.871 10.05,-35.684 16.575,-49.142c4.637,-3.771 17.146,-3.371 25.783,0.804c6.808,3.288 13.383,7.113 19.671,11.6c17.846,12.721 33.779,29.842 49.871,46.583c3.533,3.684 7.075,7.363 10.658,10.946c4.646,4.642 9.338,9.163 14.104,13.492c23.021,20.792 48.104,38.717 81.404,33.675c24.742,-3.75 37.721,-29.521 40.742,-50.725c2.263,-15.858 -0.458,-32.083 -2.208,-47.421c-2.034,-17.846 -4.85,-35.4 -3.35,-52.146c0.754,-8.629 2.633,-17.037 6.279,-25.154c3.987,-8.812 10.354,-17.046 19.279,-25.329c6.067,-5.625 12.483,-11.008 19.546,-15.533c7.054,-4.521 14.521,-8.55 22.437,-11.35c4.046,-1.43 7.863,-1.646 11.413,-1.196c3.542,0.446 6.971,1.466 9.992,3.412c9.962,6.396 17.795,19.225 27.325,27.554c4.895,4.275 10.129,7.559 15.962,8.771c9.092,-0.841 16.854,-3.5 23.779,-7.2c25.279,-13.483 39.163,-41.683 65.375,-44.612c41.538,-4.638 83.113,-22.125 124.629,-24.021c8.305,-0.379 16.667,-0.446 24.925,1.083c13.175,2.434 26.38,6.038 39.896,9.121c24.196,5.567 48.846,11.417 73.779,16.408c7.775,1.559 15.675,2.559 23.405,4.38c18.954,4.479 37.454,10.5 56.354,14.062c10.104,1.875 20.246,3.442 30.391,4.529c9.642,1.034 19.288,1.679 28.884,1.863c14.541,0.287 28.329,-1.259 41.566,-4.092c6.892,-1.479 13.634,-3.325 20.255,-5.462c39.279,-13.171 74.391,-35.33 110.545,-56.646c12.771,-7.525 33.23,-11.45 45.85,-7.2c37.313,23.287 79.51,25.017 122.098,30.121c10.016,1.225 20.562,0.463 31.808,-2.421c8.442,-2.166 16.963,-0.225 25.204,3.088c8.171,3.546 16.104,8.996 24.034,13.641c8.941,5.246 25.079,12.496 29.033,8.021c29.412,-18.141 57.546,-30.883 85.362,-37.45c7.617,-1.629 15.217,-2.929 22.8,-3.912c40.613,-5.334 1015.52,-21.914 1035.84,-21.914" style="fill:none;fill-rule:nonzero;stroke:#133a5b;stroke-width:12.5px;"/><path d="M41.142,646.27c111.459,5.208 151.213,55.304 151.834,111.67c0.704,4.98 1.4,9.946 2.145,14.892c0.742,4.954 1.53,9.888 2.413,14.804c1.55,10.538 3.8,24.004 12.792,35.246c26.675,35.096 47.508,74.517 65.575,111.371c3.616,7.383 7.12,14.658 10.537,21.787c6.454,13.813 13.325,28.821 20.688,44.38c3.683,7.775 7.487,15.708 11.416,23.745c23.642,84.605 94.475,151.271 173.642,159.605c9.375,1.041 18.621,1.108 27.7,0.362c88.967,-12.862 184.8,-33.696 234.8,-117.029c29.167,-45.833 25,-104.167 76.217,-138.475c7.125,-7.95 13.937,-16.204 20.395,-24.808c6.455,-8.613 12.563,-17.575 18.288,-26.934c5.308,-8 10.408,-16.171 15.35,-24.471c14.804,-24.895 28.083,-50.937 40.583,-76.979c8.334,-16.666 -4.166,-29.166 -16.666,-41.666c-8.334,-8.334 -25,-8.334 -25,-0c-25,108.333 75,187.5 158.333,225c62.5,29.166 62.5,-75 83.337,-125c4.163,-4.167 16.663,-4.167 24.996,-0c62.5,29.166 95.834,125 175,116.666c25,-4.166 37.5,-29.166 41.667,-50c4.167,-54.166 -33.333,-112.5 14.237,-158.016c5.855,-6.317 12.4,-12.038 19.446,-17.021c7.046,-4.979 14.6,-9.225 22.463,-12.592c4.116,-1.496 7.925,-1.937 11.479,-1.554c3.567,0.371 6.887,1.554 10.029,3.304c9.463,6.988 17.563,19.471 26.946,27.954c4.692,4.242 9.708,7.492 15.371,8.571c42.529,-4.812 55.029,-50.646 88.362,-54.812c41.667,-3.471 83.334,-21.413 125,-22.475c8.334,-0.209 16.667,0.254 25.004,1.645c36.33,9.375 74.63,19.08 113.663,26.334c7.808,1.454 15.642,2.804 23.5,4.041c28.85,8.388 58.046,15.009 87.142,18.255c9.712,0.975 19.408,1.595 29.083,1.658c67.442,-0.292 117.442,-37.792 171.608,-71.125c12.5,-8.333 33.334,-12.5 45.834,-8.333c45.833,29.166 95.034,44.467 153.368,27.8c8.333,-2.083 16.666,0 24.896,3.967c8.225,3.966 16.337,9.821 24.241,15.271c9.196,5.762 25.863,14.095 30.029,9.929c104.763,-58.929 1109.64,-68.144 1162.36,-68.144" style="fill:none;fill-rule:nonzero;stroke:#133a5b;stroke-width:12.5px;"/></g></svg>