<?xml version="1.0" encoding="UTF-8" standalone="no"?><!DOCTYPE svg PUBLIC "-//W3C//DTD SVG 1.1//EN" "http://www.w3.org/Graphics/SVG/1.1/DTD/svg11.dtd"><svg width="100%" height="100%" viewBox="0 0 3545 1199" version="1.1" xmlns="http://www.w3.org/2000/svg" xmlns:xlink="http://www.w3.org/1999/xlink" xml:space="preserve" xmlns:serif="http://www.serif.com/" style="fill-rule:evenodd;clip-rule:evenodd;"><g><path d="M25.769,635.063c64.584,-3.125 152.088,-17.62 170.134,-68.45c1.833,-4.587 3.475,-9.341 4.929,-14.208c2.917,-9.742 5.096,-19.971 6.592,-30.458c4.495,-31.446 35.945,-26.954 60.375,-19.004c4.866,0.4 9.72,0.554 14.566,0.52c24.217,-0.22 48.15,-5.179 69.854,-18.416c3.875,-3.204 7.334,-6.684 10.467,-10.392c15.796,-17.733 21.896,-43.292 27.696,-68.2c1.158,-4.987 2.308,-9.946 3.521,-14.804c9.25,-25.267 15.804,-49.413 21.896,-73.217c2.033,-7.954 4.012,-15.875 6.025,-23.837c24.779,-89.742 24.779,-202.242 103.945,-252.242c116.667,-75 145.834,125 225.955,188.913c4.025,4.575 7.783,9.291 11.1,14.275c3.312,4.979 6.183,10.22 8.429,15.833c1.358,3.117 2.725,6.225 4.091,9.296c9.021,16.566 16.434,32.716 31.48,43.521c11.654,8.37 31.845,16.375 36.166,18.533c31.221,19.654 73.667,66.737 94.121,64.579c6.963,-1.004 18.192,-6.617 28.242,-8.333c10.054,-1.713 18.929,0.475 21.175,15.075c-2.425,4.975 -2.425,13.308 -6.592,17.475c8.333,-8.334 12.5,-25 20.833,-25c79.167,-25 112.5,104.166 175,137.5c8.334,-66.667 45.834,-133.334 125,-120.834c33.334,4.167 66.667,12.5 96.959,29c7.266,2.875 14.575,5.738 21.879,8.625c21.917,8.663 43.842,17.575 64.708,28.063c4.638,2.329 9.221,4.737 13.746,7.233c6.329,2.513 12.071,5.809 17.463,9.679c26.912,17.4 43.579,71.567 72.745,54.9c29.167,-16.666 4.167,-100 54.167,-95.833c19.792,1.042 38.021,5.988 55.429,13.229c8.704,3.621 17.2,7.829 25.579,12.463c45.646,37.525 97.988,73.041 153.7,95.946c7.959,3.229 15.992,6.2 24.105,8.762c99.52,36.267 174.52,-63.733 262.02,-76.233c54.167,-4.167 95.834,41.666 149.538,54.446c7.379,1.191 15.567,1.75 23.875,2.875c8.3,1.12 16.725,2.812 24.587,6.179c12.913,6.737 26.43,11.587 40.338,15.208c6.958,1.804 14.008,3.308 21.125,4.571c107.204,-8.279 227.388,60.796 273.588,72.921c3.237,1.038 6.491,2.067 9.766,3.05c6.55,1.958 13.167,3.688 19.871,5.158c8.034,2.18 16.096,4.217 24.275,6.009c9.109,0.516 18.213,1.021 27.338,1.504c8.941,-0.779 17.896,-1.421 26.871,-1.938c8.975,-0.516 17.975,-0.908 26.987,-1.204c117.104,-20.279 231.131,-32.717 351.964,-16.05c8.334,-0 20.466,-5.31 32.933,-7.172c6.521,-1.688 13.15,-3.133 19.833,-4.488c4.458,-0.908 8.942,-1.766 13.438,-2.625c25.566,-2.816 49.157,1.06 73.586,-5.815c4.934,-1.366 9.863,-2.783 14.838,-4.229c4.491,-1.283 8.991,-2.508 13.516,-3.671c4.525,-1.162 8.992,-2.683 13.63,-3.308c54.2,-7.296 101.075,4.162 151.075,1.037" style="fill:none;fill-rule:nonzero;stroke:#133a5b;stroke-width:12.5px;"/><path d="M25.916,635.015c63.763,-2.879 147.813,-16.663 167.146,-64.1c1.775,-4.35 3.542,-8.771 5.029,-13.342c3.004,-9.133 5.296,-18.721 6.9,-28.55c4.763,-29.525 35.1,-24.683 58.617,-16.504c4.683,0.496 9.346,0.762 14.008,0.85c13.813,0.233 27.483,-1.117 40.633,-4.758c7.9,-2.18 15.63,-5.188 23.1,-9.175c1.071,-0.567 2.13,-1.15 3.188,-1.759c3.721,-2.937 6.996,-6.171 10.054,-9.546c1.638,-1.808 3.208,-3.662 4.658,-5.616c11.792,-15.967 16.921,-37.05 22.392,-57.688c1.217,-4.591 2.192,-9.221 3.763,-13.583c8.37,-23.258 17.116,-44.088 23.479,-65.375c2.166,-7.242 4.075,-14.508 6.229,-21.763c4.254,-14.308 8.112,-29.129 11.65,-44.2c1.862,-7.995 3.679,-16.041 5.517,-24.091c14.366,-63.304 32.595,-127.025 91.412,-162.134c8.946,-5.337 17.329,-9.316 25.313,-11.95c95.945,-31.67 129.375,134.4 202.304,186.975c3.983,4.134 7.696,8.409 10.975,12.921c3.279,4.513 6.033,9.3 8.358,14.375c1.308,2.854 2.596,5.709 4.067,8.434c8.271,15.387 16.083,29.833 30.879,39.275c11.429,7.291 31.292,14.075 36.296,15.545c8.121,4.55 16.962,10.88 25.962,17.675c8.438,6.334 17.092,12.971 25.238,19.15c16.45,12.484 31.283,23 41.1,21.355c6.9,-1.155 17.837,-6.917 27.604,-9.096c10.058,-2.246 18.892,-1.113 21.412,12.029c-1.937,3.992 -2.504,11.383 -7.045,14.787c7.575,-8.333 10.791,-24.237 18.75,-23.858c74.704,-20.142 108.908,106.113 171.425,139.896c3.858,-22.858 11.429,-45.896 23.604,-65.096c20.821,-32.837 53.375,-56.504 101.65,-51.983c17.7,1.662 35.45,3.875 52.758,8.462c14.083,4.088 27.825,10.392 41.592,16.85c7.066,3.317 14.521,5.809 21.779,8.775c21.721,8.854 43.358,18.154 63.996,28.938c4.591,2.396 8.979,5.146 13.6,7.412c6.083,2.988 11.854,6.092 17.304,9.863c26.317,18.179 43.787,69.958 73.162,53.887c17.234,-9.387 16.671,-40.979 22.159,-65.237c4.008,-17.717 11.233,-31.254 31.262,-30.704c18.742,0.512 35.979,4.016 52.629,10.116c8.325,3.034 16.505,6.642 24.659,10.667c8.591,6.492 17.55,12.904 26.829,19.237c7.008,4.784 14.146,9.542 21.433,14.2c7.188,4.592 14.504,9.1 21.942,13.513c3.346,1.967 6.7,3.954 10.062,5.946c3.134,1.858 6.275,3.712 9.421,5.583c11.421,6.788 22.938,13.521 34.742,19.508c9.171,4.655 18.508,8.921 27.946,12.746c8.016,3.029 16.083,5.563 24.091,7.996c28.984,8.813 55.059,7.154 80.8,0.317c40.684,-10.734 78.588,-36.479 117.155,-55.05c7.758,-3.738 15.545,-7.188 23.383,-10.167c13.229,-4.996 26.592,-9.187 40.346,-10.483c26.375,-2.492 50.041,8.096 73.554,19.958c7.167,3.617 14.337,7.404 21.554,11.158c17.467,9.088 35.133,18.525 54.617,22.396c7.454,1.488 15.787,1.829 24.183,2.95c8.367,1.117 16.979,2.467 24.792,5.979c13.225,5.942 26.521,10.975 40.396,14.288c6.958,1.646 13.987,2.992 21.087,4.092c43.75,-3.863 85.454,2.5 126.179,13.875c15.379,4.32 95.501,30.016 104.751,32.816c20.045,6.013 40.495,11.421 61.362,16.917c3.254,0.858 6.479,1.888 9.75,2.771c6.617,1.783 13.354,3.146 20.092,4.658c8.075,1.817 16.087,3.925 24.25,5.604c9.1,0.521 18.279,2.871 27.296,1.546c8.862,-1.3 17.879,-1.262 26.85,-1.696c8.958,-0.437 17.975,-0.145 26.933,-0.962c8.996,-0.825 17.8,-2.725 26.662,-3.908c93.717,-12.417 186.655,-23.227 282.343,-12.581c9.15,1.008 18.337,2.133 27.567,3.362c4.833,0.65 9.641,1.642 14.541,2.038c3.588,0.287 7.934,-1.346 12.688,-3.1c5.279,-2.017 11.075,-4.438 16.95,-5.779c1.212,-0.275 2.45,-0.45 3.654,-0.684c4.737,-0.916 9.433,-2.166 14.2,-3.116c1.871,-0.371 3.746,-0.734 5.625,-1.088c2.092,-0.391 4.192,-0.783 6.283,-1.158c2.384,-0.421 4.742,-0.925 7.142,-1.246c25.392,-3.404 49.078,1.856 73.516,-4.59c1.391,-0.363 2.775,-0.729 4.166,-1.096c3.55,-0.937 7.096,-1.917 10.671,-2.887c2.384,-0.646 4.775,-1.263 7.179,-1.875c2.113,-0.542 4.23,-1.063 6.346,-1.575c3.321,-0.805 6.617,-1.784 9.971,-2.48c1.213,-0.254 2.433,-0.466 3.667,-0.62c53.858,-6.846 99.879,4.191 150.896,1.029" style="fill:none;fill-rule:nonzero;stroke:#133a5b;stroke-width:12.5px;"/><path d="M26.054,634.97c62.946,-2.646 144.555,-15.354 164.167,-59.75c1.804,-4.075 3.592,-8.212 5.129,-12.479c3.075,-8.533 5.513,-17.467 7.209,-26.638c5.104,-27.604 34.262,-22.425 56.862,-14.012c4.496,0.596 8.975,0.975 13.438,1.179c13.245,0.6 26.308,-0.296 38.841,-3.371c7.559,-1.841 14.95,-4.466 22.1,-8.029c1.025,-0.504 2.046,-1.025 3.054,-1.562c3.563,-2.667 6.705,-5.621 9.638,-8.705c1.571,-1.65 3.087,-3.345 4.475,-5.141c11.342,-14.679 16.15,-34.192 21.929,-53.263c1.271,-4.191 2.338,-8.433 4.004,-12.358c8.871,-20.825 18.429,-38.738 25.067,-57.538c2.3,-6.516 4.221,-13.12 6.437,-19.687c4.363,-12.975 8.359,-26.371 12.075,-39.979c1.955,-7.242 3.863,-14.538 5.805,-21.817c14.8,-56.258 35.633,-113.562 95.32,-146.812c8.984,-5.005 17.396,-8.8 25.43,-11.363c95.687,-30.546 132.016,126.396 203.85,172.492c3.941,3.704 7.612,7.525 10.854,11.571c3.246,4.045 5.979,8.354 8.296,12.916c1.3,2.567 2.591,5.134 4.033,7.579c8.187,13.867 15.75,26.955 30.279,35.021c11.221,6.229 30.746,11.775 36.429,12.563c8.075,3.954 16.8,9.616 25.692,15.65c8.333,5.654 16.962,11.391 24.917,16.954c16.087,11.262 30.308,21.2 39.87,19.175c6.821,-1.45 17.488,-7.229 26.971,-9.858c10.079,-2.792 18.842,-2.705 21.642,8.987c-1.446,3.013 -2.579,9.45 -7.504,12.096c6.816,-8.333 9.087,-23.479 16.662,-22.725c70.259,-15.283 105.334,108.075 167.854,142.3c4.642,-21.108 12.755,-42.592 25.434,-60.346c21.746,-30.446 53.596,-54.946 100.075,-52.983c17.087,0.725 34.179,1.9 50.946,5.583c13.616,3.696 27.295,9.7 40.808,16.054c7.046,3.317 14.458,5.867 21.667,8.909c21.529,9.05 42.883,18.745 63.295,29.825c4.538,2.462 8.875,5.245 13.45,7.587c6.009,3.067 11.73,6.246 17.146,10.042c26.142,18.312 44,68.35 73.571,52.879c17.6,-9.138 17.729,-40.4 23.096,-64.513c3.917,-17.612 10.7,-30.262 29.579,-31.537c17.683,-1.196 33.942,2.046 49.829,6.996c7.946,2.458 15.813,5.462 23.746,8.883c8.367,5.721 17.188,11.371 26.45,17.004c6.963,4.238 14.063,8.513 21.338,12.717c7.179,4.133 14.5,8.258 21.966,12.267c3.375,1.816 6.763,3.675 10.125,5.591c3.163,1.784 6.321,3.604 9.463,5.475c11.341,6.767 22.662,13.829 34.358,19.909c8.958,4.654 18.092,8.85 27.35,12.545c8.075,2.838 16.125,5.109 24.083,7.238c28.771,7.692 54.263,4.742 80.025,-1.933c40.725,-10.384 78.813,-35.759 117.525,-53.496c7.788,-3.571 15.592,-6.846 23.463,-9.6c13.217,-4.629 26.587,-8.421 40.321,-9.509c26.279,-2.079 49.983,8.267 73.571,19.784c7.191,3.512 14.412,7.171 21.645,10.825c17.555,8.858 35.246,18.116 54.696,21.975c7.6,1.504 16.017,1.908 24.504,3.029c8.43,1.112 17.08,2.412 24.992,5.771c13.288,5.637 26.613,10.362 40.454,13.366c6.95,1.496 13.971,2.675 21.046,3.621c43.521,-4.329 84.888,0.575 125.396,10.342c15.242,3.721 31.096,8.5 46.087,14.404c42.059,17.579 69.338,12.609 78.492,14.95c19.896,5.08 40.225,9.717 61.017,14.6c3.258,0.763 6.471,1.7 9.742,2.484c6.683,1.6 13.5,2.771 20.312,4.162c8.067,1.646 16.075,3.629 24.238,5.204c9.079,0.525 18.229,2.796 27.254,1.584c8.862,-1.192 17.854,-1.1 26.804,-1.454c8.954,-0.359 17.954,-0.009 26.896,-0.73c8.971,-0.72 17.775,-2.466 26.629,-3.533c93.488,-10.954 186.634,-22.293 281.968,-11.243c9.133,1.046 18.304,2.208 27.508,3.5c4.825,0.675 9.629,1.675 14.508,2.125c3.617,0.333 7.946,-1.15 12.667,-2.75c5.312,-1.946 11.108,-4.254 16.975,-5.521c1.221,-0.262 2.45,-0.425 3.654,-0.642c4.725,-0.862 9.421,-2.041 14.2,-2.92c1.863,-0.346 3.733,-0.684 5.608,-1.009c2.1,-0.366 4.188,-0.725 6.288,-1.066c2.379,-0.38 4.737,-0.834 7.121,-1.113c25.358,-3 48.991,2.568 73.453,-3.378c1.392,-0.341 2.783,-0.679 4.175,-1.025c3.546,-0.879 7.096,-1.787 10.667,-2.7c2.391,-0.608 4.787,-1.187 7.187,-1.766c2.117,-0.504 4.229,-0.992 6.346,-1.471c3.321,-0.746 6.617,-1.654 9.971,-2.304c1.212,-0.238 2.433,-0.442 3.662,-0.588c53.53,-6.387 98.705,4.225 150.721,1.017" style="fill:none;fill-rule:nonzero;stroke:#133a5b;stroke-width:12.5px;"/><path d="M26.196,634.921c62.13,-2.4 141.296,-14.041 161.192,-55.4c1.825,-3.8 3.642,-7.645 5.217,-11.616c3.158,-7.929 5.725,-16.217 7.516,-24.725c5.409,-25.671 33.425,-20.154 55.105,-11.517c4.316,0.696 8.608,1.183 12.883,1.513c12.675,0.962 25.133,0.516 37.037,-1.988c7.221,-1.5 14.259,-3.783 21.113,-6.883c0.971,-0.438 1.942,-0.896 2.912,-1.367c3.409,-2.396 6.417,-5.067 9.221,-7.858c1.504,-1.496 2.963,-3.034 4.288,-4.675c10.866,-13.404 15.379,-31.342 21.475,-48.834c1.329,-3.804 2.475,-7.65 4.25,-11.137c9.366,-18.438 19.741,-33.354 26.641,-49.696c2.446,-5.787 4.38,-11.737 6.642,-17.617c4.483,-11.633 8.654,-23.595 12.517,-35.762c2.058,-6.483 4.037,-13.021 6.079,-19.533c15.242,-49.217 38.65,-100.117 99.233,-131.496c9.021,-4.671 17.467,-8.284 25.542,-10.775c95.421,-29.434 134.658,118.387 205.4,158.021c3.908,3.262 7.537,6.637 10.733,10.22c3.217,3.571 5.921,7.396 8.229,11.45c1.296,2.284 2.588,4.559 4.009,6.725c8.108,12.334 15.433,24.092 29.675,30.763c11.033,5.175 30.2,9.483 36.562,9.579c8.025,3.363 16.65,8.346 25.434,13.629c8.229,4.95 16.804,9.8 24.575,14.763c15.716,10.025 29.345,19.391 38.65,16.991c6.75,-1.741 17.154,-7.575 26.333,-10.62c10.108,-3.359 18.8,-4.292 21.879,5.941c-0.954,2.025 -2.667,7.517 -7.962,9.417c6.058,-8.333 7.383,-22.733 14.583,-21.592c65.796,-10.429 101.742,110.021 164.279,144.692c5.421,-19.35 14.079,-39.283 27.258,-55.588c22.696,-28.083 53.905,-51.366 98.492,-53.979c16.458,-0.966 32.913,-0.083 49.142,2.7c13.141,3.3 26.762,9.004 40.021,15.25c7.029,3.313 14.395,5.934 21.558,9.05c21.342,9.242 42.404,19.329 62.587,30.704c4.484,2.53 8.78,5.363 13.305,7.763c5.929,3.15 11.6,6.404 16.987,10.229c25.967,18.438 44.208,66.742 73.979,51.867c17.979,-8.892 18.784,-39.825 24.025,-63.788c3.829,-17.521 10.1,-31.146 27.913,-32.375c16.7,-1.154 31.887,0.113 47.025,3.888c7.566,1.887 15.125,4.275 22.829,7.087c8.133,4.963 16.825,9.842 26.071,14.779c6.916,3.692 13.979,7.488 21.241,11.23c7.175,3.679 14.5,7.391 21.996,11.025c3.409,1.654 6.813,3.404 10.192,5.233c3.175,1.721 6.35,3.487 9.483,5.362c11.271,6.746 22.396,14.142 33.996,20.313c8.733,4.65 17.671,8.787 26.754,12.346c8.125,2.65 16.146,4.662 24.059,6.483c28.566,6.575 53.458,2.25 79.254,-4.179c40.75,-10.158 79.041,-35.042 117.904,-51.946c7.812,-3.4 15.642,-6.504 23.537,-9.042c13.2,-4.245 26.588,-7.654 40.3,-8.525c26.18,-1.662 49.925,8.434 73.575,19.609c7.234,3.408 14.484,6.921 21.746,10.479c17.625,8.633 35.367,17.717 54.784,21.562c7.72,1.53 16.233,1.984 24.804,3.109c8.496,1.1 17.204,2.362 25.204,5.566c13.346,5.346 26.7,9.75 40.521,12.446c6.941,1.338 13.946,2.359 20.996,3.138c43.3,-4.788 84.316,-1.342 124.616,6.825c15.104,3.116 31.209,7.441 46.067,13.258c41.808,17.883 89.267,10.734 98.334,12.621c19.758,4.108 39.975,8.008 60.687,12.283c3.238,0.667 6.45,1.513 9.725,2.2c6.746,1.417 13.638,2.405 20.529,3.667c8.059,1.479 16.059,3.333 24.213,4.804c9.067,0.525 18.187,2.717 27.212,1.617c8.863,-1.075 17.838,-0.938 26.784,-1.217c8.933,-0.275 17.912,0.129 26.846,-0.487c8.945,-0.613 17.75,-2.234 26.595,-3.159c93.246,-9.716 186.593,-21.351 281.597,-9.905c9.121,1.079 18.267,2.287 27.45,3.629c4.817,0.704 9.608,1.721 14.475,2.229c3.629,0.379 7.958,-0.962 12.646,-2.408c5.333,-1.875 11.125,-4.071 17,-5.267c1.212,-0.246 2.442,-0.4 3.646,-0.604c4.721,-0.8 9.425,-1.904 14.196,-2.717c1.862,-0.316 3.733,-0.629 5.604,-0.929c2.091,-0.333 4.191,-0.667 6.291,-0.971c2.371,-0.341 4.73,-0.741 7.105,-0.991c25.308,-2.617 48.932,3.451 73.386,-2.153c1.392,-0.313 2.784,-0.633 4.175,-0.95c3.546,-0.821 7.088,-1.675 10.667,-2.525c2.396,-0.571 4.787,-1.108 7.196,-1.646c2.116,-0.475 4.225,-0.929 6.346,-1.375c3.32,-0.692 6.616,-1.537 9.97,-2.133c1.213,-0.217 2.434,-0.413 3.671,-0.546c53.179,-5.938 97.509,4.25 150.538,1.004" style="fill:none;fill-rule:nonzero;stroke:#133a5b;stroke-width:12.5px;"/><path d="M26.339,634.872c61.312,-2.162 138.037,-12.741 158.212,-51.05c1.855,-3.525 3.692,-7.079 5.317,-10.75c3.242,-7.329 5.929,-14.962 7.817,-22.816c5.712,-23.738 32.583,-17.892 53.354,-9.021c4.133,0.796 8.233,1.391 12.317,1.846c12.104,1.329 23.962,1.333 35.245,-0.605c6.871,-1.158 13.58,-3.07 20.105,-5.737c0.937,-0.383 1.862,-0.763 2.783,-1.175c3.254,-2.125 6.129,-4.508 8.804,-7.013c1.442,-1.341 2.833,-2.716 4.104,-4.195c10.404,-12.125 14.6,-28.521 21.021,-44.417c1.379,-3.408 2.608,-6.871 4.483,-9.913c9.905,-16.1 21.059,-27.925 28.23,-41.85c2.595,-5.037 4.529,-10.35 6.85,-15.545c4.591,-10.3 8.912,-20.83 12.941,-31.542c2.15,-5.729 4.221,-11.513 6.359,-17.263c15.687,-42.17 41.666,-86.67 103.154,-116.17c9.05,-4.342 17.529,-7.771 25.654,-10.188c95.142,-28.337 137.296,110.379 206.95,143.542c3.867,2.829 7.454,5.754 10.617,8.871c3.175,3.1 5.862,6.441 8.154,9.987c1.296,2 2.583,3.988 3.979,5.867c8.029,10.804 15.15,21.229 29.079,26.512c10.867,4.121 29.646,7.184 36.696,6.596c7.979,2.767 16.504,7.071 25.162,11.604c8.13,4.259 16.642,8.209 24.25,12.571c15.309,8.779 28.38,17.575 37.417,14.808c6.683,-2.045 16.825,-7.941 25.7,-11.387c10.158,-3.938 18.758,-5.879 22.113,2.904c-0.463,1.038 -2.738,5.583 -8.417,6.725c5.3,-8.333 5.683,-21.971 12.496,-20.454c61.337,-5.567 98.158,111.975 160.708,147.092c6.2,-17.6 15.429,-35.996 29.079,-50.834c23.688,-25.737 54.084,-51.866 96.921,-54.983c15.879,-1.158 31.642,-2.058 47.333,-0.175c12.671,2.908 26.23,8.308 39.23,14.446c7.016,3.312 14.341,5.996 21.454,9.191c21.141,9.434 41.925,19.909 61.883,31.588c4.429,2.587 8.675,5.471 13.158,7.942c5.85,3.229 11.475,6.55 16.821,10.404c25.804,18.575 44.392,65.075 74.396,50.858c18.329,-8.679 19.833,-39.25 24.954,-63.062c3.742,-17.421 9.546,-31.109 26.234,-33.213c15.7,-1.983 29.854,-1.85 44.233,0.775c7.183,1.313 14.429,3.092 21.904,5.3c7.904,4.192 16.458,8.313 25.696,12.55c6.862,3.146 13.896,6.458 21.15,9.738c7.167,3.225 14.5,6.537 22.017,9.787c3.445,1.488 6.866,3.117 10.262,4.875c3.192,1.65 6.383,3.375 9.517,5.258c11.187,6.725 22.125,14.434 33.616,20.709c8.513,4.646 17.255,8.716 26.159,12.15c8.179,2.45 16.179,4.208 24.041,5.721c28.367,5.462 52.659,-0.192 78.488,-6.425c40.783,-9.842 79.262,-34.325 118.275,-50.392c7.842,-3.242 15.687,-6.163 23.612,-8.483c13.192,-3.859 26.58,-6.888 40.275,-7.542c26.084,-1.25 49.871,8.592 73.592,19.429c7.258,3.304 14.55,6.683 21.833,10.142c17.717,8.408 35.484,17.312 54.875,21.146c7.855,1.554 16.455,2.058 25.113,3.183c8.562,1.096 17.321,2.312 25.408,5.362c13.404,5.042 26.792,9.142 40.575,11.53c6.942,1.179 13.934,2.041 20.959,2.662c43.075,-5.262 83.754,-3.35 123.833,3.296c14.975,2.479 31.325,6.392 46.062,12.125c41.555,18.179 109.197,8.846 118.172,10.288c19.616,3.145 39.708,6.275 60.337,9.962c3.238,0.575 6.454,1.329 9.717,1.921c6.821,1.233 13.779,2.025 20.758,3.167c8.034,1.316 16.034,3.037 24.179,4.4c9.059,0.533 18.15,2.654 27.175,1.658c8.863,-0.971 17.821,-0.779 26.75,-0.975c8.925,-0.196 18,1.321 26.805,-0.246c8.795,-1.567 17.725,-1.996 26.562,-2.783c93.017,-8.321 186.559,-20.423 281.222,-8.573c9.108,1.109 18.237,2.363 27.391,3.759c4.809,0.733 9.588,1.762 14.446,2.329c3.654,0.421 7.967,-0.775 12.621,-2.063c5.363,-1.804 11.158,-3.891 17.025,-5.016c1.213,-0.229 2.442,-0.367 3.646,-0.559c4.721,-0.745 9.417,-1.775 14.187,-2.52c1.863,-0.292 3.734,-0.575 5.605,-0.846c2.091,-0.304 4.191,-0.609 6.283,-0.884c2.367,-0.304 4.721,-0.654 7.096,-0.862c25.262,-2.225 48.832,4.16 73.311,-0.936c1.392,-0.292 2.792,-0.583 4.184,-0.879c3.55,-0.754 7.087,-1.55 10.662,-2.342c2.4,-0.529 4.792,-1.033 7.209,-1.533c2.108,-0.434 4.225,-0.859 6.35,-1.271c3.316,-0.638 6.616,-1.413 9.966,-1.963c1.213,-0.2 2.434,-0.379 3.671,-0.504c52.85,-5.487 96.321,4.284 150.358,0.992" style="fill:none;fill-rule:nonzero;stroke:#133a5b;stroke-width:12.5px;"/><path d="M26.486,634.828c60.491,-1.921 134.791,-11.434 155.225,-46.7c1.883,-3.25 3.754,-6.513 5.42,-9.888c3.321,-6.729 6.134,-13.708 8.125,-20.9c6.025,-21.808 31.742,-15.629 51.592,-6.529c3.946,0.892 7.867,1.604 11.758,2.171c11.542,1.7 22.788,2.158 33.446,0.787c6.529,-0.816 12.909,-2.35 19.109,-4.591c0.887,-0.317 1.775,-0.638 2.654,-0.98c3.083,-1.854 5.829,-3.954 8.387,-6.166c1.371,-1.192 2.704,-2.409 3.913,-3.729c9.937,-10.838 13.804,-25.721 20.562,-39.992c1.429,-3.025 2.767,-6.104 4.725,-8.692c10.492,-13.825 22.367,-22.412 29.821,-34.012c2.738,-4.263 4.675,-8.95 7.046,-13.463c4.712,-8.966 9.179,-18.058 13.371,-27.329c2.254,-4.975 4.404,-9.996 6.646,-14.979c16.129,-35.133 44.65,-73.25 107.066,-100.854c9.075,-4.009 17.6,-7.254 25.771,-9.6c94.858,-27.242 139.938,102.379 208.492,129.062c3.833,2.4 7.362,4.879 10.504,7.525c3.129,2.638 5.804,5.484 8.083,8.525c1.284,1.713 2.579,3.409 3.946,5.009c7.958,9.27 14.9,18.362 28.483,22.262c10.73,3.079 29.096,4.883 36.825,3.613c7.934,2.17 16.359,5.791 24.9,9.579c8.034,3.558 16.459,6.6 23.921,10.375c14.879,7.533 27.409,15.746 36.188,12.625c6.616,-2.346 16.487,-8.334 25.075,-12.154c10.191,-4.538 18.708,-7.463 22.337,-0.134c0.025,0.059 -2.816,3.654 -8.879,4.034c4.55,-8.334 3.979,-21.209 10.417,-19.317c56.883,-0.708 94.571,113.925 157.129,149.492c6.983,-15.85 16.804,-32.709 30.912,-46.08c24.7,-23.408 54.342,-50.341 95.35,-55.983c15.275,-2.104 30.367,-4.037 45.525,-3.054c12.188,2.512 25.7,7.617 38.43,13.637c7.012,3.317 14.287,6.067 21.35,9.338c20.954,9.629 41.45,20.496 61.179,32.467c4.375,2.658 8.579,5.583 13.008,8.12c5.779,3.309 11.346,6.709 16.667,10.588c25.625,18.708 44.629,63.529 74.804,49.846c18.717,-8.392 20.887,-38.671 25.879,-62.338c3.654,-17.325 9.008,-31.062 24.571,-34.046c14.704,-2.825 27.804,-3.808 41.429,-2.337c6.804,0.733 13.729,1.908 20.988,3.508c7.675,3.429 16.083,6.784 25.316,10.321c6.804,2.608 13.813,5.429 21.054,8.254c7.163,2.767 14.5,5.663 22.038,8.542c3.487,1.329 6.929,2.842 10.333,4.521c3.213,1.579 6.421,3.258 9.542,5.141c11.121,6.7 21.867,14.746 33.25,21.117c8.292,4.642 16.837,8.646 25.558,11.95c8.229,2.258 16.213,3.754 24.025,4.963c28.167,4.354 51.867,-2.63 77.717,-8.671c40.825,-9.542 79.487,-33.613 118.646,-48.846c7.871,-3.067 15.75,-5.813 23.691,-7.913c13.18,-3.483 26.575,-6.129 40.255,-6.566c25.979,-0.842 49.808,8.762 73.6,19.25c7.295,3.204 14.629,6.446 21.929,9.804c17.796,8.183 35.596,16.912 54.962,20.729c7.984,1.575 16.684,2.142 25.425,3.267c8.625,1.091 17.421,2.262 25.609,5.15c13.47,4.754 26.879,8.558 40.633,10.612c6.933,1.038 13.917,1.729 20.925,2.184c42.846,-5.721 83.187,-5.28 123.046,-0.23c14.833,1.88 31.437,5.342 46.046,10.988c41.308,18.483 129.142,6.971 138.021,7.963c19.475,2.179 39.446,4.566 59.992,7.641c3.225,0.484 6.437,1.142 9.7,1.638c6.895,1.046 13.925,1.654 20.983,2.667c8.021,1.154 16.021,2.75 24.158,4c9.042,0.533 18.109,2.587 27.125,1.704c8.871,-0.871 17.809,-0.625 26.717,-0.742c8.921,-0.117 17.962,1.421 26.775,-0.008c8.787,-1.425 17.7,-1.75 26.529,-2.409c92.792,-6.912 186.526,-19.484 280.847,-7.239c9.091,1.15 18.196,2.442 27.337,3.896c4.792,0.759 9.563,1.796 14.413,2.421c3.679,0.471 7.975,-0.579 12.587,-1.717c5.388,-1.729 11.184,-3.708 17.059,-4.758c1.212,-0.217 2.433,-0.346 3.637,-0.525c4.713,-0.696 9.417,-1.633 14.175,-2.317c1.867,-0.262 3.738,-0.52 5.608,-0.762c2.092,-0.279 4.184,-0.554 6.284,-0.796c2.358,-0.267 4.712,-0.554 7.079,-0.725c25.212,-1.812 48.77,4.977 73.249,0.277c1.388,-0.267 2.788,-0.534 4.179,-0.805c3.55,-0.695 7.1,-1.429 10.663,-2.162c2.4,-0.492 4.8,-0.954 7.216,-1.417c2.117,-0.404 4.225,-0.791 6.35,-1.171c3.321,-0.583 6.625,-1.287 9.967,-1.791c1.221,-0.184 2.442,-0.35 3.671,-0.467c52.533,-4.858 95.142,4.308 150.187,0.983" style="fill:none;fill-rule:nonzero;stroke:#133a5b;stroke-width:12.5px;"/><path d="M26.624,634.779c59.675,-1.679 131.558,-10.138 152.246,-42.35c1.916,-2.979 3.816,-5.95 5.516,-9.021c3.413,-6.129 6.35,-12.45 8.442,-18.992c6.338,-19.866 30.892,-13.362 49.829,-4.033c3.767,0.992 7.492,1.813 11.196,2.508c10.971,2.055 21.608,2.967 31.65,2.167c6.192,-0.479 12.225,-1.646 18.117,-3.446c0.837,-0.254 1.675,-0.508 2.512,-0.787c2.929,-1.584 5.542,-3.392 7.967,-5.317c1.312,-1.037 2.579,-2.096 3.733,-3.267c9.45,-9.558 13.013,-22.937 20.104,-35.558c1.488,-2.65 2.938,-5.35 4.971,-7.471c11.142,-11.621 23.621,-16.812 31.396,-26.166c2.883,-3.467 4.829,-7.567 7.254,-11.396c4.829,-7.617 9.446,-15.279 13.804,-23.109c2.346,-4.212 4.588,-8.483 6.921,-12.704c16.571,-28.083 47.625,-59.829 110.988,-85.525c9.1,-3.691 17.662,-6.746 25.883,-9.021c94.571,-26.154 142.575,94.375 210.038,114.588c3.795,1.962 7.283,4 10.383,6.175c3.1,2.171 5.754,4.533 8.017,7.058c1.287,1.438 2.575,2.838 3.92,4.154c7.892,7.725 14.68,15.492 27.884,18.013c10.621,2.025 28.546,2.587 36.954,0.629c7.887,1.571 16.212,4.521 24.633,7.554c7.942,2.863 16.254,4.984 23.592,8.175c14.421,6.279 26.442,13.917 34.967,10.45c6.545,-2.662 16.145,-8.741 24.433,-12.912c10.246,-5.163 18.662,-9.054 22.575,-3.179c0.512,-0.93 -2.896,1.725 -9.342,1.345c3.792,-8.333 2.279,-20.458 8.342,-18.183c52.417,4.154 90.983,115.879 153.554,151.892c7.767,-14.096 18.196,-29.429 32.733,-41.325c25.763,-21.084 54.605,-48.829 93.775,-56.984c14.675,-3.054 29.1,-6.016 43.709,-5.941c11.725,2.125 25.171,6.929 37.646,12.841c6.995,3.313 14.233,6.134 21.25,9.475c20.754,9.821 40.966,21.08 60.462,33.359c4.329,2.712 8.488,5.687 12.867,8.291c5.696,3.388 11.225,6.859 16.504,10.767c25.471,18.825 44.842,61.921 75.221,48.838c19.083,-8.142 21.941,-38.105 26.808,-61.609c3.571,-17.229 8.479,-31.029 22.892,-34.887c13.729,-3.667 25.771,-5.763 38.633,-5.45c6.433,0.158 13.042,0.725 20.071,1.716c7.442,2.667 15.708,5.267 24.937,8.096c6.746,2.071 13.73,4.404 20.963,6.763c7.154,2.312 14.512,4.8 22.062,7.3c3.525,1.171 6.988,2.566 10.4,4.158c3.234,1.517 6.455,3.158 9.571,5.042c11.042,6.683 21.6,15.041 32.879,21.516c8.071,4.634 16.413,8.584 24.959,11.755c8.283,2.062 16.246,3.3 24.008,4.2c27.967,3.237 51.063,-5.071 76.942,-10.921c40.866,-9.229 79.721,-32.888 119.029,-47.288c7.892,-2.904 15.792,-5.479 23.762,-7.358c13.167,-3.104 26.571,-5.938 40.234,-5.579c25.871,0.679 49.75,8.925 73.608,19.071c7.325,3.104 14.7,6.208 22.021,9.466c17.871,7.959 35.721,16.509 55.046,20.313c8.116,1.6 16.912,2.212 25.741,3.346c8.684,1.079 17.538,2.216 25.813,4.945c13.525,4.463 26.971,7.946 40.692,9.692c6.933,0.883 13.9,1.408 20.875,1.708c42.633,-6.191 82.616,-7.195 122.27,-3.758c14.7,1.275 31.546,4.292 46.038,9.85c41.058,18.779 149.067,5.084 157.855,5.634c19.337,1.208 39.191,2.854 59.654,5.325c3.221,0.383 6.433,0.95 9.691,1.354c6.967,0.858 14.063,1.283 21.2,2.166c8.013,0.996 16.005,2.45 24.138,3.6c9.033,0.538 18.071,2.509 27.083,1.738c8.867,-0.763 17.788,-0.463 26.692,-0.5c8.904,-0.033 17.904,1.504 26.725,0.229c8.787,-1.271 17.675,-1.504 26.496,-2.037c92.562,-5.575 186.463,-18.335 280.471,-5.894c9.067,1.2 18.167,2.517 27.28,4.017c4.787,0.8 9.554,1.854 14.379,2.529c3.696,0.517 7.983,-0.391 12.566,-1.375c5.413,-1.658 11.213,-3.525 17.084,-4.5c1.212,-0.204 2.433,-0.321 3.637,-0.483c4.713,-0.642 9.417,-1.513 14.167,-2.117c1.862,-0.241 3.729,-0.471 5.6,-0.687c2.1,-0.246 4.192,-0.496 6.292,-0.7c2.35,-0.229 4.704,-0.471 7.062,-0.604c25.163,-1.413 48.687,5.768 73.174,1.501c1.4,-0.246 2.8,-0.483 4.192,-0.737c3.546,-0.634 7.087,-1.309 10.658,-1.98c2.4,-0.445 4.804,-0.875 7.221,-1.3c2.113,-0.37 4.229,-0.725 6.354,-1.066c3.313,-0.534 6.625,-1.171 9.971,-1.629c1.221,-0.167 2.442,-0.317 3.671,-0.421c52.196,-4.446 93.95,4.341 150.004,0.971" style="fill:none;fill-rule:nonzero;stroke:#133a5b;stroke-width:12.5px;"/><path d="M26.762,634.73c58.863,-1.437 128.321,-8.846 149.267,-38c1.946,-2.708 3.875,-5.392 5.617,-8.158c3.491,-5.534 6.558,-11.188 8.741,-17.075c6.646,-17.929 30.059,-11.1 48.079,-1.542c3.584,1.092 7.13,2.021 10.634,2.838c10.4,2.425 20.437,3.787 29.854,3.554c5.85,-0.138 11.546,-0.938 17.117,-2.296c0.791,-0.196 1.591,-0.383 2.375,-0.596c2.779,-1.312 5.254,-2.846 7.558,-4.475c1.242,-0.883 2.446,-1.783 3.546,-2.787c8.987,-8.259 12.241,-20.213 19.646,-31.138c1.545,-2.287 3.47,-4.233 5.208,-6.246c13.475,-7.075 24.775,-11.1 32.983,-18.329c2.996,-2.633 4.979,-6.179 7.463,-9.325c4.946,-6.271 9.708,-12.492 14.233,-18.887c2.433,-3.446 4.763,-6.975 7.204,-10.425c17.013,-21.046 50.575,-46.438 114.9,-70.209c9.117,-3.371 17.729,-6.229 25.992,-8.433c94.271,-25.104 145.217,86.375 211.587,100.117c3.763,1.52 7.205,3.116 10.271,4.82c3.059,1.705 5.696,3.58 7.942,5.596c1.287,1.146 2.575,2.263 3.892,3.3c7.837,6.159 14.5,12.588 27.279,13.754c10.554,0.967 28.004,0.292 37.091,-2.354c7.842,0.975 16.075,3.242 24.375,5.534c7.846,2.166 16.017,3.366 23.259,5.987c13.908,5.033 25.471,12.067 33.733,8.263c6.475,-2.984 15.808,-9.175 23.8,-13.68c10.296,-5.804 18.621,-10.641 22.813,-6.22c1,-1.909 -2.98,-0.205 -9.8,-1.342c3.029,-8.338 0.57,-19.696 6.25,-17.046c47.966,9.013 87.404,117.829 149.987,154.292c8.542,-12.346 19.621,-26.146 34.558,-36.575c26.875,-18.754 54.875,-47.342 92.196,-57.984c14.079,-4.012 27.834,-7.991 41.904,-8.816c11.255,1.729 24.634,6.233 36.859,12.037c6.983,3.317 14.175,6.196 21.141,9.617c20.559,10.017 40.488,21.662 59.759,34.233c4.271,2.784 8.383,5.804 12.721,8.471c5.62,3.467 11.091,7.017 16.337,10.95c25.304,18.967 45.054,60.317 75.638,47.829c19.45,-7.9 22.987,-37.525 27.733,-60.883c3.483,-17.142 7.958,-31.013 21.225,-35.721c12.758,-4.529 23.733,-7.729 35.829,-8.562c6.054,-0.421 12.346,-0.463 19.15,-0.08c7.213,1.9 15.338,3.75 24.563,5.867c6.687,1.538 13.641,3.392 20.862,5.283c7.146,1.871 14.521,3.913 22.092,6.05c3.562,1.005 7.046,2.288 10.471,3.805c3.254,1.445 6.479,3.045 9.595,4.933c10.971,6.662 21.33,15.337 32.509,21.917c7.85,4.62 15.991,8.512 24.358,11.554c8.333,1.871 16.283,2.85 23.996,3.441c27.771,2.13 50.271,-7.512 76.175,-13.162c40.9,-8.929 79.942,-32.175 119.392,-45.742c7.92,-2.733 15.845,-5.137 23.845,-6.791c13.159,-2.734 26.571,-5.13 40.209,-4.6c25.754,1 49.683,9.091 73.625,18.891c7.35,3 14.762,5.967 22.112,9.129c17.959,7.725 35.834,16.105 55.134,19.892c8.254,1.621 17.133,2.296 26.05,3.421c8.75,1.083 17.654,2.179 26.016,4.746c13.584,4.171 27.063,7.337 40.75,8.771c6.934,0.729 13.884,1.1 20.834,1.229c42.404,-6.65 82.037,-9.113 121.491,-7.284c14.559,0.675 31.659,3.25 46.021,8.717c40.804,19.079 169.009,3.196 177.692,3.3c19.217,0.234 38.942,1.13 59.321,3.005c3.204,0.295 6.421,0.766 9.675,1.075c7.042,0.666 14.2,0.92 21.421,1.67c7.992,0.838 15.992,2.159 24.121,3.2c9.016,0.542 18.025,2.442 27.033,1.775c8.871,-0.658 17.775,-0.308 26.658,-0.258c8.896,0.042 17.859,1.588 26.688,0.467c8.787,-1.121 17.65,-1.263 26.462,-1.663c92.334,-4.179 186.43,-17.376 280.101,-4.564c9.054,1.238 18.129,2.596 27.221,4.154c4.775,0.825 9.529,1.892 14.346,2.625c3.721,0.567 7.992,-0.2 12.542,-1.029c5.445,-1.587 11.245,-3.329 17.112,-4.246c1.204,-0.183 2.425,-0.295 3.629,-0.445c4.704,-0.584 9.409,-1.375 14.163,-1.917c1.862,-0.213 3.725,-0.413 5.6,-0.6c2.091,-0.217 4.183,-0.45 6.279,-0.617c2.354,-0.187 4.704,-0.375 7.058,-0.466c25.113,-0.992 48.62,6.63 73.108,2.718c1.391,-0.217 2.791,-0.442 4.191,-0.667c3.546,-0.575 7.088,-1.187 10.655,-1.796c2.408,-0.412 4.816,-0.8 7.233,-1.191c2.117,-0.338 4.233,-0.655 6.346,-0.959c3.321,-0.479 6.633,-1.054 9.971,-1.462c1.229,-0.15 2.45,-0.292 3.679,-0.384c51.846,-4.129 92.762,4.371 149.829,0.963" style="fill:none;fill-rule:nonzero;stroke:#133a5b;stroke-width:12.5px;"/><path d="M26.909,634.685c58.041,-1.2 125.104,-7.558 146.283,-33.654c1.975,-2.433 3.929,-4.821 5.717,-7.288c3.575,-4.937 6.766,-9.929 9.045,-15.166c6.963,-15.975 29.221,-8.838 46.321,0.954c3.4,1.187 6.754,2.233 10.075,3.162c9.829,2.792 19.263,4.609 28.059,4.942c5.5,0.208 10.87,-0.217 16.112,-1.146c0.75,-0.137 1.496,-0.258 2.246,-0.404c2.621,-1.042 4.967,-2.287 7.137,-3.629c1.18,-0.729 2.321,-1.471 3.363,-2.317c8.521,-6.962 11.492,-17.525 19.183,-26.712c1.621,-1.934 3.642,-3.413 5.459,-5.025c14.079,-4.475 24.862,-7.221 34.562,-10.492c2.613,-2.375 5.133,-4.779 7.667,-7.242c5.066,-4.925 9.962,-9.704 14.662,-14.67c2.529,-2.68 4.95,-5.463 7.488,-8.146c17.454,-14.004 53.516,-33.088 118.816,-54.892c9.138,-3.054 17.788,-5.717 26.105,-7.842c93.983,-24.016 147.854,78.367 213.141,85.638c3.721,1.083 7.117,2.233 10.142,3.471c3.033,1.237 5.65,2.625 7.879,4.133c1.279,0.863 2.571,1.679 3.863,2.442c7.766,4.583 14.616,12.058 26.679,9.504c10.279,-2.175 27.45,-2.008 37.221,-5.338c7.795,0.38 15.941,1.963 24.108,3.509c7.762,1.462 15.762,1.746 22.925,3.791c13.362,3.809 24.508,10.213 32.517,6.08c6.4,-3.305 15.454,-9.625 23.162,-14.446c10.329,-6.467 18.579,-12.225 23.042,-9.259c1.483,-2.895 -3.054,-2.133 -10.254,-4.033c2.275,-8.333 -1.134,-18.933 4.17,-15.908c43.505,13.866 83.813,119.783 146.409,156.691c9.329,-10.591 21.062,-22.845 36.387,-31.82c28.025,-16.421 55.146,-45.888 90.617,-58.984c13.492,-4.983 26.562,-9.971 40.096,-11.696c10.783,1.334 24.104,5.546 36.071,11.234c6.962,3.312 14.116,6.262 21.033,9.758c20.367,10.208 40.008,22.25 59.05,35.121c4.225,2.842 8.292,5.908 12.575,8.646c5.55,3.55 10.967,7.166 16.187,11.133c25.13,19.092 45.255,58.708 76.042,46.813c19.821,-7.646 24.038,-36.955 28.658,-60.159c3.396,-17.041 7.459,-31.021 19.55,-36.558c11.809,-5.408 21.709,-9.683 33.042,-11.671c5.679,-1 11.642,-1.646 18.229,-1.871c6.979,1.134 14.95,2.229 24.184,3.638c6.625,1.008 13.558,2.366 20.77,3.791c7.138,1.417 14.525,3.046 22.109,4.813c3.604,0.837 7.104,2.004 10.541,3.45c3.271,1.375 6.517,2.929 9.625,4.821c10.896,6.646 21.063,15.633 32.138,22.325c7.633,4.604 15.575,8.441 23.754,11.35c8.396,1.675 16.325,2.396 23.983,2.683c27.575,1.021 49.48,-9.954 75.4,-15.412c40.95,-8.617 80.171,-31.45 119.775,-44.188c7.946,-2.562 15.9,-4.792 23.917,-6.229c13.15,-2.354 26.567,-4.321 40.192,-3.621c25.633,1.313 49.621,9.254 73.625,18.713c7.391,2.895 14.841,5.725 22.212,8.787c18.034,7.5 35.946,15.708 55.217,19.479c8.379,1.642 17.358,2.392 26.367,3.504c8.804,1.088 17.762,2.13 26.22,4.538c13.646,3.879 27.146,6.729 40.805,7.854c6.933,0.567 13.866,0.779 20.791,0.746c42.188,-7.117 81.471,-10.95 120.713,-10.804c14.416,0.1 31.771,2.196 46.008,7.579c40.554,19.379 87.381,10.034 129.056,23.1c9.12,2.859 59.886,-21.787 68.482,-22.125c19.075,-0.746 38.679,-0.6 58.967,0.679c3.208,0.205 6.42,0.571 9.666,0.792c7.113,0.479 14.35,0.554 21.642,1.171c7.983,0.679 15.983,1.867 24.096,2.796c9.008,0.546 18,2.371 27,1.816c8.854,-0.545 17.75,-0.141 26.629,-0.02c8.879,0.125 17.808,1.683 26.646,0.708c8.779,-0.971 17.625,-1.021 26.429,-1.288c92.117,-2.783 186.384,-16.401 279.717,-3.226c9.042,1.275 18.1,2.671 27.163,4.287c4.771,0.855 9.517,1.934 14.325,2.717c3.733,0.613 8,-0.004 12.517,-0.683c5.458,-1.513 11.262,-3.159 17.129,-3.988c1.212,-0.175 2.425,-0.271 3.629,-0.404c4.704,-0.529 9.408,-1.242 14.162,-1.721c1.855,-0.183 3.717,-0.358 5.588,-0.521c2.092,-0.187 4.183,-0.387 6.283,-0.525c2.346,-0.145 4.696,-0.4 7.05,-0.337c25.054,0.7 48.537,7.431 73.024,3.939c1.4,-0.196 2.8,-0.392 4.209,-0.596c3.541,-0.517 7.079,-1.067 10.646,-1.612c2.408,-0.371 4.816,-0.721 7.241,-1.075c2.117,-0.3 4.234,-0.592 6.35,-0.859c3.317,-0.429 6.629,-0.929 9.967,-1.291c1.229,-0.134 2.45,-0.259 3.679,-0.346c51.513,-3.542 91.583,4.404 149.65,0.954" style="fill:none;fill-rule:nonzero;stroke:#133a5b;stroke-width:12.5px;"/><path d="M27.047,634.641c57.225,-0.959 121.908,-6.275 143.312,-29.305c2.009,-2.162 3.988,-4.266 5.809,-6.429c3.662,-4.337 6.975,-8.658 9.358,-13.25c7.271,-14.012 28.375,-6.571 44.558,3.446c3.221,1.288 6.388,2.446 9.513,3.5c9.267,3.154 18.083,5.421 26.258,6.325c5.163,0.55 10.209,0.488 15.121,-0.004c0.704,-0.071 1.408,-0.125 2.108,-0.204c2.467,-0.779 4.671,-1.738 6.725,-2.788c1.113,-0.571 2.196,-1.15 3.171,-1.846c8.025,-5.687 10.809,-14.866 18.734,-22.283c1.704,-1.596 3.8,-2.604 5.7,-3.804c14.67,-1.879 25.991,-1.954 36.145,-2.646c2.68,-1.683 5.284,-3.383 7.871,-5.175c5.184,-3.571 10.209,-6.892 15.096,-10.454c2.617,-1.908 5.121,-3.95 7.763,-5.867c17.895,-6.962 56.437,-19.75 122.729,-39.571c9.158,-2.733 17.858,-5.204 26.221,-7.254c93.679,-22.962 150.495,70.354 214.691,71.163c3.679,0.65 7.034,1.346 10.025,2.116c2.996,0.767 5.6,1.671 7.804,2.671c1.288,0.584 2.563,1.096 3.834,1.584c7.7,2.97 14.225,6.666 26.083,5.258c10.479,-1.246 26.904,-4.308 37.363,-8.329c7.737,-0.213 15.795,0.687 23.833,1.487c7.675,0.767 15.317,1.404 22.592,1.596c12.1,4.821 23.541,8.354 31.291,3.9c6.329,-3.637 15.104,-10.087 22.525,-15.208c10.367,-7.146 18.538,-13.809 23.284,-12.3c1.975,-3.879 -3.142,-4.067 -10.717,-6.717c1.512,-8.333 -2.842,-18.187 2.083,-14.775c39.054,18.725 80.234,121.733 142.838,159.083c10.108,-8.837 22.541,-19.52 38.216,-27.062c29.225,-14.058 55.413,-44.438 89.046,-59.979c12.888,-5.959 25.288,-11.95 38.279,-14.579c10.313,0.937 23.575,4.854 35.28,10.429c6.95,3.312 14.058,6.329 20.933,9.904c20.171,10.4 39.525,22.829 58.35,35.996c4.167,2.912 8.187,6.025 12.417,8.825c5.479,3.637 10.845,7.321 16.025,11.312c24.962,19.234 45.466,57.1 76.458,45.804c20.187,-7.4 25.096,-36.375 29.592,-59.433c3.304,-16.95 6.945,-31.042 17.875,-37.392c10.854,-6.304 19.679,-11.645 30.233,-14.787c5.312,-1.579 10.962,-2.829 17.308,-3.663c6.754,0.371 14.584,0.734 23.813,1.413c6.566,0.487 13.475,1.337 20.679,2.308c7.129,0.959 14.529,2.171 22.133,3.567c3.638,0.675 7.163,1.729 10.604,3.092c3.296,1.304 6.555,2.816 9.655,4.716c10.825,6.621 20.8,15.925 31.77,22.721c7.413,4.588 15.159,8.371 23.159,11.154c8.441,1.484 16.358,1.754 23.962,1.921c27.384,0.6 48.679,-12.387 74.629,-17.654c40.992,-8.313 80.396,-30.738 120.142,-42.638c7.979,-2.4 15.958,-4.458 24,-5.67c13.142,-1.975 26.542,-3.067 40.171,-2.642c25.554,0.804 49.562,9.425 73.642,18.542c7.412,2.791 14.904,5.475 22.295,8.445c18.117,7.271 36.067,15.309 55.309,19.063c8.512,1.662 17.575,2.479 26.666,3.587c8.88,1.08 17.888,2.088 26.434,4.33c13.712,3.595 27.237,6.112 40.858,6.933c6.933,0.412 13.854,0.467 20.763,0.271c41.95,-7.584 80.891,-12.871 119.92,-14.334c14.284,-0.495 31.884,1.146 45.996,6.442c40.309,19.679 86.752,11.209 128.514,23.642c9.196,2.738 80.374,-24.221 88.862,-25c18.945,-1.742 38.437,-2.321 58.633,-1.638c3.2,0.113 6.412,0.384 9.654,0.509c7.183,0.279 14.492,0.187 21.867,0.675c7.966,0.525 15.958,1.571 24.071,2.4c8.991,0.541 17.962,2.287 26.954,1.85c8.854,-0.434 17.733,0.021 26.596,0.225c8.87,0.2 17.762,1.771 26.604,0.941c8.779,-0.825 17.608,-0.775 26.396,-0.916c91.895,-1.425 186.35,-15.435 279.35,-1.889c9.025,1.316 18.067,2.75 27.1,4.421c4.771,0.883 9.496,1.983 14.292,2.816c3.767,0.659 8.013,0.184 12.492,-0.341c5.483,-1.434 11.296,-2.971 17.162,-3.73c1.204,-0.158 2.417,-0.25 3.621,-0.37c4.696,-0.475 9.408,-1.109 14.15,-1.509c1.858,-0.162 3.721,-0.312 5.592,-0.446c2.091,-0.154 4.183,-0.333 6.283,-0.433c2.346,-0.112 4.688,-0.304 7.033,-0.208c24.984,1.025 48.458,8.147 72.962,5.155c1.4,-0.175 2.8,-0.345 4.204,-0.52c3.542,-0.459 7.084,-0.95 10.646,-1.438c2.408,-0.329 4.825,-0.642 7.25,-0.958c2.117,-0.267 4.233,-0.521 6.35,-0.754c3.321,-0.375 6.633,-0.809 9.975,-1.121c1.221,-0.113 2.45,-0.238 3.679,-0.309c51.179,-3.054 90.388,4.43 149.471,0.938" style="fill:none;fill-rule:nonzero;stroke:#133a5b;stroke-width:12.5px;"/><path d="M27.194,634.592c56.4,-0.717 118.716,-4.992 140.325,-24.954c2.041,-1.888 4.041,-3.705 5.908,-5.563c3.75,-3.75 7.183,-7.396 9.667,-11.337c7.575,-12.038 27.529,-4.313 42.8,5.937c3.033,1.388 6.02,2.658 8.95,3.833c8.7,3.517 16.908,6.271 24.47,7.705c4.809,0.912 9.53,0.983 14.117,1.145c0.663,0.025 1.313,0 1.971,-0.012c2.304,-0.5 4.387,-1.175 6.308,-1.942c1.05,-0.416 2.063,-0.837 2.988,-1.375c7.533,-4.383 11.366,-10.862 18.275,-17.858c2.004,-0.913 3.971,-1.783 5.933,-2.579c15.283,0.721 27.125,3.325 37.738,5.196c2.75,-0.988 5.425,-1.992 8.07,-3.1c5.292,-2.221 10.434,-4.092 15.53,-6.234c2.687,-1.133 5.304,-2.441 8.045,-3.596c18.338,0.088 59.359,-6.437 126.646,-24.245c9.171,-2.43 17.921,-4.696 26.338,-6.675c93.358,-21.934 153.129,62.358 216.233,56.687c3.642,0.217 6.958,0.467 9.904,0.767c2.971,0.308 5.55,0.712 7.738,1.212c1.287,0.296 2.558,0.509 3.808,0.729c7.588,1.355 14.1,3.621 25.483,1c10.463,-2.412 26.35,-6.6 37.488,-11.308c7.692,-0.808 15.667,-0.325 23.571,-0.533c7.591,-0.2 15.112,-0.059 22.266,-0.604c11.571,3.833 22.563,6.483 30.063,1.716c6.258,-3.971 14.742,-10.566 21.887,-15.966c10.396,-7.846 18.496,-15.405 23.513,-15.342c2.467,-4.863 -3.213,-6.004 -11.167,-9.408c0.759,-8.334 -4.546,-17.43 0,-13.642c34.588,23.592 76.646,123.687 139.259,161.487c10.895,-7.087 24.037,-16.183 40.045,-22.308c30.463,-11.658 55.667,-43.017 87.471,-60.983c12.288,-6.942 24.017,-13.929 36.475,-17.459c9.834,0.546 23.034,4.167 34.479,9.63c6.942,3.312 14.005,6.391 20.825,10.041c19.988,10.596 39.055,23.413 57.646,36.884c4.113,2.975 8.1,6.129 12.275,9c5.404,3.716 10.717,7.475 15.867,11.495c24.8,19.35 45.7,55.559 76.867,44.792c20.579,-7.108 26.154,-35.804 30.525,-58.704c3.216,-16.854 6.437,-31.104 16.195,-38.229c9.913,-7.234 17.65,-13.617 27.442,-17.904c4.942,-2.163 10.263,-4.017 16.392,-5.446c6.516,-0.4 14.2,-0.975 23.429,-0.825c6.508,0.108 13.396,0.312 20.579,0.825c7.129,0.504 14.542,1.283 22.167,2.321c3.675,0.5 7.221,1.45 10.671,2.733c3.312,1.233 6.587,2.708 9.683,4.604c10.758,6.6 20.537,16.221 31.396,23.129c7.196,4.571 14.737,8.309 22.558,10.959c8.496,1.287 16.4,1.491 23.95,1.158c27.2,-1.204 47.888,-14.838 73.858,-19.9c41.03,-8.004 80.621,-30.025 120.521,-41.088c8,-2.229 16.009,-4.12 24.071,-5.104c13.138,-1.604 26.529,-2.304 40.146,-1.662c25.446,1.204 49.504,9.591 73.658,18.362c7.442,2.688 14.967,5.234 22.388,8.109c18.187,7.037 36.179,14.9 55.396,18.641c8.645,1.688 17.795,2.554 26.975,3.663c8.945,1.079 17.995,2.046 26.637,4.125c13.779,3.312 27.325,5.504 40.917,6.016c6.925,0.259 13.833,0.15 20.721,-0.204c41.729,-8.05 80.32,-14.796 119.141,-17.862c14.142,-1.1 31.988,0.096 45.988,5.308c40.054,19.979 86.13,12.367 127.976,24.18c9.263,2.612 20.354,4.021 31.892,2.358c10.004,-1.446 68.949,-29.008 77.345,-30.225c18.808,-2.721 38.187,-4.438 58.287,-3.954c3.196,0.075 6.404,0.304 9.633,0.221c7.267,-0.184 14.642,-0.171 22.096,0.179c7.95,0.371 15.95,1.279 24.046,1.996c8.988,0.55 17.938,1.529 26.913,1.887c8.854,0.354 17.716,0.179 26.57,0.463c8.855,0.287 17.717,1.862 26.555,1.187c8.775,-0.675 17.587,-0.696 26.37,-0.542c91.667,1.605 186.305,-14.455 278.972,-0.551c9.008,1.35 18.033,2.825 27.046,4.546c4.75,0.912 9.479,2.025 14.262,2.916c3.788,0.705 8.017,0.38 12.463,0.009c5.508,-1.371 11.325,-2.779 17.187,-3.475c1.213,-0.146 2.425,-0.221 3.621,-0.334c4.696,-0.42 9.4,-0.975 14.142,-1.312c1.858,-0.129 3.721,-0.254 5.583,-0.363c2.1,-0.125 4.192,-0.275 6.292,-0.341c2.333,-0.071 4.679,-0.2 7.017,-0.075c24.908,1.321 48.382,9.014 72.886,6.368c1.409,-0.146 2.809,-0.296 4.217,-0.45c3.537,-0.392 7.079,-0.829 10.642,-1.254c2.412,-0.288 4.829,-0.567 7.262,-0.842c2.113,-0.233 4.221,-0.454 6.346,-0.654c3.321,-0.321 6.633,-0.683 9.971,-0.95c1.229,-0.096 2.454,-0.204 3.683,-0.267c50.842,-2.646 89.204,4.459 149.292,0.925" style="fill:none;fill-rule:nonzero;stroke:#133a5b;stroke-width:12.5px;"/><path d="M27.332,634.543c55.583,-0.475 115.571,-3.688 137.346,-20.605c2.083,-1.62 4.112,-3.141 6.008,-4.695c3.85,-3.155 7.379,-6.121 9.971,-9.434c7.858,-10.046 26.692,-2.041 41.042,8.438c2.858,1.483 5.65,2.862 8.391,4.158c8.138,3.867 15.721,7.121 22.675,9.1c4.459,1.271 8.859,1.913 13.117,2.288c0.617,0.054 1.229,0.129 1.837,0.179c2.15,-0.229 4.096,-0.613 5.892,-1.092c0.988,-0.258 1.929,-0.525 2.8,-0.904c7.046,-3.058 10.738,-7.958 17.817,-13.433c2.091,-0.505 4.141,-0.971 6.183,-1.359c15.888,3.317 28.254,8.596 39.317,13.034c2.821,-0.288 5.566,-0.592 8.275,-1.025c5.387,-0.859 10.625,-1.3 15.958,-2.017c2.746,-0.371 5.483,-0.929 8.325,-1.313c18.783,7.13 62.271,6.859 130.567,-8.925c9.187,-2.12 17.979,-4.187 26.45,-6.087c93.041,-20.896 155.766,54.354 217.779,42.208c3.604,-0.221 6.883,-0.421 9.792,-0.583c2.933,-0.167 5.5,-0.167 7.666,-0.25c1.284,-0.054 2.538,-0.088 3.775,-0.129c7.442,-0.279 13.971,0.533 24.884,-3.25c10.437,-3.621 25.8,-8.904 37.62,-14.296c7.646,-1.4 15.53,-1.888 23.313,-2.558c7.504,-0.65 14.892,-1.513 21.929,-2.792c11.054,2.846 21.575,4.608 28.833,-0.467c6.18,-4.316 14.367,-11.058 21.259,-16.737c10.4,-8.559 18.45,-16.984 23.746,-18.384c2.954,-5.841 -3.296,-7.925 -11.63,-12.091c0,-8.334 -6.25,-16.667 -2.083,-12.5c30.133,28.441 73.063,125.633 135.692,163.883c11.671,-5.337 25.541,-12.825 41.862,-17.562c31.734,-9.209 55.909,-41.617 85.9,-61.98c11.679,-7.929 22.75,-15.904 34.667,-20.337c9.358,0.154 22.5,3.475 33.692,8.825c6.925,3.308 13.945,6.458 20.716,10.187c19.792,10.788 38.575,24 56.934,37.759c4.07,3.046 8.008,6.246 12.137,9.179c5.329,3.8 10.588,7.633 15.704,11.679c24.625,19.488 45.921,53.996 77.279,43.783c20.955,-6.825 27.2,-35.229 31.455,-57.983c3.129,-16.758 5.92,-31.183 14.525,-39.062c8.95,-8.192 15.62,-15.592 24.633,-21.013c4.575,-2.75 9.571,-5.2 15.475,-7.242c6.292,-1.166 13.825,-2.262 23.05,-3.05c6.454,-0.55 13.317,-0.72 20.492,-0.666c7.12,0.05 14.55,0.396 22.187,1.079c3.717,0.333 7.279,1.167 10.742,2.375c3.329,1.167 6.621,2.596 9.708,4.5c10.683,6.583 20.275,16.504 31.029,23.529c6.979,4.558 14.317,8.238 21.959,10.758c8.55,1.1 16.437,1.042 23.933,0.4c27.008,-2.316 47.087,-17.275 73.087,-22.145c41.071,-7.7 80.85,-29.305 120.888,-39.538c8.033,-2.058 16.067,-3.779 24.154,-4.542c13.133,-1.237 26.521,-1.541 40.121,-0.679c25.342,1.609 49.446,9.759 73.667,18.179c7.479,2.588 15.037,4.992 22.483,7.771c18.262,6.817 36.296,14.513 55.483,18.229c8.775,1.705 18.021,2.634 27.292,3.742c9,1.079 18.104,2.004 26.837,3.917c13.834,3.033 27.417,4.896 40.975,5.1c6.925,0.104 13.817,-0.167 20.68,-0.688c41.504,-8.512 79.745,-16.708 118.358,-21.383c14.004,-1.704 32.104,-0.954 45.971,4.171c39.804,20.279 85.522,13.517 127.443,24.717c9.325,2.487 20.375,3.696 31.883,1.929c9.871,-1.521 89.432,-31.008 97.732,-32.663c18.675,-3.712 37.938,-5.754 57.942,-6.275c3.192,-0.079 6.404,0.121 9.629,-0.054c7.329,-0.396 14.775,-0.537 22.304,-0.329c7.95,0.225 15.942,0.988 24.034,1.596c8.975,0.554 17.908,1.521 26.871,1.929c8.845,0.404 17.691,0.338 26.537,0.7c8.838,0.367 17.675,1.954 26.513,1.425c8.766,-0.525 17.562,-0.287 26.337,-0.162c91.471,1.329 186.263,-13.481 278.601,0.777c8.992,1.388 17.992,2.904 26.983,4.684c4.746,0.941 9.467,2.07 14.234,3.012c3.8,0.75 8.025,0.567 12.437,0.35c5.542,-1.296 11.35,-2.604 17.217,-3.221c1.204,-0.125 2.408,-0.196 3.616,-0.287c4.688,-0.367 9.388,-0.842 14.134,-1.117c1.854,-0.104 3.712,-0.196 5.575,-0.279c2.1,-0.092 4.191,-0.304 6.291,-0.25c2.334,0.067 4.663,-0.013 6.996,0.05c24.896,0.654 48.32,9.814 72.833,7.593c1.4,-0.125 2.808,-0.254 4.216,-0.383c3.542,-0.329 7.071,-0.7 10.638,-1.071c2.417,-0.25 4.833,-0.492 7.267,-0.729c2.116,-0.209 4.229,-0.384 6.354,-0.554c3.312,-0.263 6.633,-0.559 9.971,-0.78c1.229,-0.083 2.458,-0.175 3.679,-0.229c50.504,-2.158 88.021,4.492 149.121,0.921" style="fill:none;fill-rule:nonzero;stroke:#133a5b;stroke-width:12.5px;"/><path d="M27.479,634.494c54.762,-0.233 112.42,-2.392 134.358,-16.254c2.125,-1.342 4.183,-2.579 6.112,-3.829c3.946,-2.567 7.567,-4.838 10.28,-7.517c8.12,-8.046 25.845,0.221 39.279,10.925c2.675,1.587 5.283,3.075 7.829,4.496c7.562,4.246 14.529,7.962 20.875,10.479c4.108,1.625 8.2,2.629 12.125,3.433c0.571,0.117 1.142,0.263 1.7,0.379c1.996,0.038 3.804,-0.054 5.479,-0.25c0.921,-0.104 1.8,-0.208 2.613,-0.429c6.516,-1.775 10.108,-5.054 17.358,-9.012c2.175,-0.1 4.337,-0.504 6.429,-0.138c17.246,3.071 29.388,13.875 40.892,20.875c2.9,0.417 5.704,0.804 8.487,1.05c5.475,0.488 10.809,1.45 16.384,2.2c2.808,0.379 5.67,0.588 8.608,0.967c19.225,14.171 65.175,20.104 134.483,6.396c9.196,-1.817 18.042,-3.675 26.563,-5.5c92.725,-19.863 158.408,46.35 219.329,27.733c3.562,-0.654 6.8,-1.3 9.675,-1.933c2.9,-0.634 5.442,-1.221 7.592,-1.713c1.283,-0.291 2.516,-0.671 3.75,-0.987c7.262,-1.863 13.825,-2.596 24.283,-7.5c10.396,-4.871 25.246,-11.209 37.754,-17.284c7.6,-1.995 15.404,-3.17 23.038,-4.575c7.433,-1.366 14.691,-2.979 21.608,-4.987c10.529,1.854 20.587,2.721 27.604,-2.654c6.088,-4.663 13.988,-11.559 20.621,-17.496c10.387,-9.3 18.408,-18.575 23.983,-21.429c3.442,-6.829 -3.379,-9.854 -12.083,-14.784c-0.758,-8.333 -7.963,-15.908 -4.167,-11.362c25.675,33.3 69.471,127.592 132.113,166.283c12.454,-3.583 27.066,-9.429 43.691,-12.804c33.013,-6.704 56.13,-40.233 84.321,-62.983c11.067,-8.925 21.484,-17.884 32.859,-23.217c8.887,-0.237 21.966,2.792 32.904,8.025c6.916,3.308 13.891,6.521 20.612,10.321c19.596,10.983 38.092,24.587 56.229,38.65c4.009,3.104 7.909,6.354 11.984,9.358c5.258,3.879 10.466,7.775 15.541,11.854c24.463,19.621 46.146,52.442 77.696,42.767c21.338,-6.537 28.254,-34.654 32.379,-57.25c3.046,-16.671 5.388,-31.304 12.85,-39.9c7.971,-9.175 13.596,-17.579 21.846,-24.129c4.196,-3.338 8.875,-6.379 14.55,-9.033c6.063,-1.93 13.45,-3.746 22.679,-5.275c6.388,-1.059 13.23,-1.746 20.396,-2.15c7.113,-0.409 14.55,-0.5 22.209,-0.163c3.75,0.154 7.337,0.883 10.804,2.017c3.354,1.1 6.658,2.483 9.741,4.387c10.609,6.559 20.017,16.796 30.659,23.934c6.762,4.537 13.9,8.17 21.362,10.558c8.6,0.904 16.471,0.592 23.909,-0.358c26.829,-3.425 46.3,-19.717 72.32,-24.392c41.121,-7.392 81.071,-28.588 121.267,-37.988c8.054,-1.891 16.117,-3.445 24.225,-3.979c13.129,-0.862 26.517,-0.783 40.1,0.3c25.233,2.004 49.388,9.921 73.679,18.004c7.504,2.484 15.104,4.755 22.575,7.434c18.334,6.579 36.409,14.108 55.567,17.808c8.912,1.725 18.246,2.717 27.604,3.821c9.067,1.071 18.221,1.971 27.042,3.717c13.9,2.75 27.516,4.279 41.033,4.175c6.925,-0.055 13.8,-0.48 20.638,-1.163c41.283,-8.983 79.175,-18.629 117.579,-24.912c13.875,-2.305 32.216,-2 45.962,3.037c39.55,20.579 84.902,14.684 126.902,25.255c9.391,2.366 20.395,3.366 31.879,1.491c9.725,-1.587 19.546,-2.241 28.041,-4.804c7.563,-0.287 81.862,-28.204 90.074,-30.292c18.538,-4.708 37.688,-7.487 57.6,-8.591c3.192,-0.18 6.392,-0.2 9.613,-0.338c7.412,-0.325 14.933,-1.25 22.533,-0.825c7.921,0.45 15.917,0.688 24.009,1.192c8.958,0.558 17.879,1.508 26.82,1.966c8.838,0.455 17.688,0.5 26.517,0.946c8.821,0.442 17.625,2.038 26.463,1.659c8.766,-0.375 17.545,-0.055 26.312,0.208c91.258,2.7 186.218,-12.51 278.218,2.119c8.975,1.425 17.966,2.979 26.937,4.817c4.733,0.967 9.438,2.121 14.192,3.108c3.833,0.796 8.033,0.763 12.416,0.696c5.559,-1.225 11.38,-2.425 17.238,-2.967c1.204,-0.108 2.408,-0.17 3.612,-0.254c4.688,-0.312 9.392,-0.704 14.13,-0.904c1.854,-0.083 3.716,-0.15 5.575,-0.204c2.1,-0.063 4.2,-0.267 6.291,-0.158c2.325,0.116 4.654,0.079 6.988,0.179c24.837,1.054 48.232,10.61 72.753,8.81c1.404,-0.1 2.813,-0.205 4.221,-0.309c3.542,-0.271 7.079,-0.583 10.637,-0.891c2.417,-0.209 4.834,-0.409 7.284,-0.609c2.108,-0.171 4.225,-0.321 6.346,-0.458c3.32,-0.213 6.633,-0.438 9.97,-0.608c1.238,-0.067 2.459,-0.146 3.688,-0.188c50.154,-1.862 86.833,4.525 148.933,0.913" style="fill:none;fill-rule:nonzero;stroke:#133a5b;stroke-width:12.5px;"/><path d="M27.617,634.445c53.946,0.013 109.317,-1.067 131.379,-11.904c2.167,-1.063 4.254,-2.017 6.208,-2.963c4.063,-1.966 7.759,-3.558 10.592,-5.608c8.338,-6.037 25.004,2.492 37.521,13.429c2.492,1.679 4.908,3.279 7.271,4.821c6.996,4.608 13.321,8.808 19.079,11.863c3.746,1.991 7.537,3.341 11.129,4.579c0.521,0.183 1.042,0.391 1.563,0.575c1.837,0.308 3.504,0.504 5.058,0.596c0.854,0.054 1.662,0.104 2.425,0.037c5.975,-0.508 9.483,-2.142 16.904,-4.579c2.263,0.304 4.55,0.367 6.667,1.083c18.087,6.125 29.158,21.154 42.479,28.717c2.758,1.562 5.842,2.183 8.692,3.121c5.562,1.821 11.016,4.179 16.816,6.421c2.867,1.108 5.854,2.095 8.892,3.241c19.662,21.213 68.075,33.35 138.396,21.717c9.212,-1.525 18.104,-3.167 26.675,-4.917c92.4,-18.841 161.05,38.346 220.875,13.259c3.529,-1.092 6.721,-2.188 9.554,-3.284c2.871,-1.108 5.387,-2.191 7.525,-3.179c1.275,-0.583 2.483,-1.242 3.721,-1.837c7.066,-3.413 13.646,-5.759 23.683,-11.75c10.317,-6.163 24.704,-13.509 37.888,-20.271c7.554,-2.592 15.266,-4.471 22.779,-6.604c7.341,-2.084 14.471,-4.434 21.275,-7.18c10,0.875 19.596,0.842 26.379,-4.829c6,-5.021 13.592,-12.066 19.983,-18.262c10.367,-10.042 18.363,-20.163 24.217,-24.471c3.929,-7.813 -3.458,-11.788 -12.55,-17.475c-1.513,-8.329 -9.654,-15.146 -6.246,-10.225c21.221,38.158 65.892,129.542 128.542,168.683c13.237,-1.833 28.579,-6.008 45.521,-8.05c34.291,-4.137 56.32,-38.858 82.745,-63.979c10.442,-9.929 20.209,-19.867 31.046,-26.104c8.417,-0.625 21.438,2.104 32.113,7.221c6.904,3.308 13.837,6.591 20.508,10.466c19.4,11.18 37.613,25.171 55.525,39.53c3.958,3.17 7.813,6.462 11.833,9.533c5.188,3.962 10.338,7.937 15.384,12.037c24.3,19.75 46.366,50.896 78.108,41.763c21.721,-6.25 29.304,-34.088 33.308,-56.533c2.959,-16.571 4.817,-31.425 11.18,-40.73c6.958,-10.179 11.558,-19.566 19.037,-27.241c3.825,-3.929 8.188,-7.571 13.638,-10.825c5.829,-2.692 13.087,-5.225 22.3,-7.504c6.337,-1.567 13.15,-2.775 20.295,-3.642c7.113,-0.863 14.559,-1.367 22.242,-1.404c3.783,-0.013 7.392,0.608 10.871,1.662c3.379,1.021 6.692,2.371 9.767,4.279c10.537,6.542 19.758,17.08 30.287,24.334c6.55,4.516 13.479,8.1 20.763,10.362c8.658,0.709 16.512,0.134 23.9,-1.121c26.645,-4.537 45.5,-22.154 71.55,-26.641c41.154,-7.088 81.295,-27.863 121.629,-36.434c8.091,-1.72 16.179,-3.104 24.308,-3.412c13.129,-0.496 26.5,-0.025 40.083,1.275c25.117,2.408 49.321,10.092 73.688,17.833c7.533,2.375 15.171,4.509 22.667,7.092c18.408,6.346 36.525,13.708 55.654,17.396c9.041,1.741 18.466,2.791 27.912,3.896c9.134,1.066 18.338,1.933 27.246,3.508c13.967,2.471 27.604,3.675 41.1,3.258c6.917,-0.212 13.775,-0.796 20.588,-1.637c41.062,-9.45 78.629,-20.459 116.795,-28.442c13.746,-2.871 32.325,-3.054 45.95,1.896c39.305,20.883 84.289,15.85 126.373,25.805c9.458,2.237 20.408,3.029 31.866,1.05c9.579,-1.655 19.259,-2.013 27.729,-3.921c7.634,0.137 15.113,1.041 22.33,0.616c7.933,-0.462 80.324,-31.704 88.436,-34.225c18.4,-5.708 37.446,-9.208 57.271,-10.912c3.179,-0.271 6.379,-0.4 9.592,-0.621c7.495,-0.521 15.066,-1.588 22.754,-1.321c7.921,0.279 15.912,0.396 23.983,0.796c8.954,0.558 17.863,1.492 26.783,2c8.83,0.504 17.667,0.658 26.48,1.179c8.816,0.529 17.604,1.496 26.433,1.904c8.742,0.409 17.512,0.192 26.271,0.584c91.054,4.066 186.176,-11.531 277.842,3.452c8.959,1.467 17.938,3.059 26.879,4.95c4.73,0.996 9.425,2.167 14.171,3.209c3.846,0.845 8.038,0.954 12.384,1.037c5.591,-1.15 11.404,-2.225 17.27,-2.704c1.205,-0.1 2.4,-0.15 3.605,-0.217c4.687,-0.262 9.391,-0.575 14.129,-0.708c1.846,-0.054 3.7,-0.096 5.566,-0.121c2.096,-0.033 4.196,-0.221 6.288,-0.071c2.321,0.167 4.65,0.175 6.975,0.309c24.779,1.45 48.157,11.405 72.687,10.03c1.408,-0.079 2.816,-0.154 4.225,-0.241c3.537,-0.209 7.07,-0.455 10.633,-0.709c2.417,-0.171 4.842,-0.337 7.283,-0.496c2.125,-0.137 4.234,-0.25 6.359,-0.35c3.312,-0.158 6.629,-0.312 9.966,-0.437c1.238,-0.046 2.459,-0.121 3.688,-0.154c49.829,-1.279 85.646,4.554 148.762,0.9" style="fill:none;fill-rule:nonzero;stroke:#133a5b;stroke-width:12.5px;"/><path d="M27.759,634.401c53.129,0.25 106.229,0.32 128.404,-7.555c2.208,-0.787 4.321,-1.454 6.304,-2.104c4.163,-1.366 7.913,-2.275 10.892,-3.691c8.521,-4.055 24.167,4.754 35.767,15.916c2.312,1.784 4.541,3.496 6.708,5.159c6.429,4.975 12.108,9.654 17.283,13.25c3.379,2.35 6.871,4.083 10.125,5.725c0.488,0.245 0.959,0.516 1.434,0.762c1.675,0.579 3.212,1.063 4.645,1.446c0.78,0.204 1.521,0.408 2.238,0.508c5.421,0.742 8.846,0.759 16.446,-0.158c2.346,0.717 4.737,1.242 6.908,2.304c18.767,9.183 30.3,25.983 44.071,36.563c2.796,2.15 5.975,3.57 8.892,5.195c5.654,3.15 11.25,6.888 17.245,10.634c2.946,1.841 6.03,3.616 9.171,5.529c20.1,28.254 70.971,46.537 142.309,37.033c9.225,-1.229 18.17,-2.654 26.791,-4.329c92.075,-17.833 163.688,30.338 222.421,-1.221c3.496,-1.525 6.65,-3.071 9.442,-4.629c2.833,-1.583 5.312,-3.162 7.458,-4.642c1.263,-0.875 2.458,-1.82 3.683,-2.7c6.884,-4.929 13.43,-8.929 23.084,-16.004c10.2,-7.466 24.154,-15.8 38.021,-23.25c7.504,-3.187 15.133,-5.771 22.516,-8.625c7.254,-2.804 14.263,-5.896 20.938,-9.379c9.487,-0.108 18.604,-1.046 25.158,-7.012c5.9,-5.371 13.183,-12.571 19.354,-19.025c10.309,-10.8 18.309,-21.75 24.446,-27.513c4.421,-8.796 -3.533,-13.721 -13.004,-20.154c-2.275,-8.333 -11.367,-14.4 -8.333,-9.092c16.762,43.017 62.304,131.492 124.966,171.075c14.013,-0.075 30.121,-4.433 47.346,-3.296c35.521,2.355 56.504,-37.483 81.171,-64.979c9.808,-10.933 18.946,-21.841 29.237,-28.979c7.946,-1.021 20.9,1.417 31.325,6.421c6.884,3.308 13.78,6.65 20.4,10.608c19.209,11.367 37.138,25.75 54.821,40.409c3.904,3.233 7.717,6.575 11.684,9.708c5.12,4.046 10.216,8.087 15.229,12.221c24.137,19.883 46.587,49.354 78.512,40.75c22.1,-5.959 30.363,-33.517 34.238,-55.804c2.875,-16.484 4.225,-31.567 9.508,-41.567c5.904,-11.188 9.521,-21.546 16.242,-30.354c3.45,-4.517 7.491,-8.754 12.716,-12.621c5.6,-3.458 12.717,-6.717 21.921,-9.729c6.288,-2.084 13.067,-3.804 20.204,-5.125c7.105,-1.321 14.559,-2.271 22.267,-2.65c3.821,-0.188 7.454,0.321 10.938,1.304c3.4,0.95 6.729,2.258 9.795,4.171c10.467,6.516 19.5,17.354 29.917,24.733c6.338,4.492 13.058,8.038 20.158,10.163c8.717,0.52 16.559,-0.313 23.884,-1.875c26.475,-5.646 44.712,-24.6 70.779,-28.888c41.2,-6.779 81.525,-27.15 122.012,-34.879c8.113,-1.558 16.238,-3.163 24.38,-2.858c13.12,0.491 26.483,0.733 40.058,2.258c25.008,2.808 49.267,10.258 73.696,17.65c7.571,2.279 15.237,4.267 22.762,6.754c18.484,6.117 36.642,13.313 55.746,16.983c9.171,1.763 18.683,2.871 28.221,3.975c9.196,1.063 18.45,1.9 27.45,3.305c14.033,2.191 27.696,3.054 41.154,2.337c6.917,-0.367 13.763,-1.112 20.55,-2.121c40.838,-9.904 78.075,-22.316 116.017,-31.958c13.612,-3.463 32.437,-4.104 45.937,0.754c39.054,21.183 83.681,16.992 125.839,26.342c9.529,2.108 20.425,2.708 31.859,0.621c9.433,-1.721 18.97,-1.796 27.408,-3.05c7.7,0.562 15.237,2.462 22.542,2.246c8.05,-0.242 19.533,1.275 22,-5.35c19.083,-23.479 78.907,-30.863 86.932,-33.813c18.254,-6.712 37.196,-10.954 56.917,-13.233c3.183,-0.367 6.37,-0.592 9.587,-0.904c7.558,-0.734 15.208,-1.605 22.971,-1.817c7.912,-0.213 15.896,0.1 23.967,0.392c8.937,0.562 17.833,1.483 26.741,2.041c8.813,0.559 17.646,0.821 26.442,1.425c8.804,0.604 17.587,1.625 26.392,2.138c8.733,0.508 17.495,0.429 26.245,0.954c90.846,5.433 186.126,-10.543 277.468,4.794c8.946,1.5 17.896,3.134 26.817,5.079c4.72,1.025 9.408,2.213 14.133,3.305c3.875,0.895 8.058,1.145 12.362,1.383c5.617,-1.079 11.434,-2.058 17.3,-2.454c1.2,-0.079 2.396,-0.121 3.6,-0.175c4.68,-0.209 9.392,-0.438 14.117,-0.504c1.85,-0.03 3.704,-0.038 5.567,-0.042c2.091,-0.004 4.191,-0.054 6.291,0.021c2.321,0.087 4.638,0.262 6.959,0.437c24.716,1.846 48.082,12.152 72.611,11.248c1.409,-0.05 2.825,-0.105 4.234,-0.167c3.537,-0.146 7.071,-0.325 10.637,-0.525c2.417,-0.125 4.842,-0.254 7.292,-0.379c2.112,-0.104 4.229,-0.184 6.354,-0.25c3.313,-0.104 6.633,-0.192 9.967,-0.271c1.237,-0.029 2.466,-0.092 3.687,-0.113c49.496,-0.804 84.467,4.584 148.584,0.888" style="fill:none;fill-rule:nonzero;stroke:#133a5b;stroke-width:12.5px;"/><path d="M27.901,634.356c52.313,0.487 103.134,1.725 125.425,-3.213c2.246,-0.5 4.384,-0.879 6.405,-1.233c4.275,-0.759 8.062,-1.017 11.195,-1.779c8.663,-2.117 23.325,7.012 34.009,18.412c2.125,1.879 4.171,3.704 6.146,5.488c5.858,5.337 10.887,10.487 15.487,14.633c3.004,2.704 6.208,4.808 9.129,6.871c0.446,0.316 0.863,0.65 1.296,0.958c1.521,0.85 2.917,1.617 4.229,2.288c0.717,0.362 1.384,0.716 2.05,0.983c4.884,1.937 8.221,3.662 15.992,4.267c2.425,1.125 4.908,2.112 7.146,3.529c19.329,12.221 31.546,30.879 45.654,44.4c2.883,2.762 6.125,4.954 9.1,7.266c5.754,4.475 11.5,9.613 17.675,14.859c3.033,2.571 6.217,5.121 9.45,7.8c20.55,35.304 73.883,59.691 146.229,52.354c9.242,-0.933 18.229,-2.146 26.904,-3.738c91.742,-16.833 166.325,22.334 223.971,-15.7c3.454,-1.958 6.563,-3.966 9.317,-5.979c2.804,-2.054 5.254,-4.121 7.387,-6.104c1.263,-1.167 2.438,-2.383 3.663,-3.558c6.712,-6.421 13.175,-12.109 22.483,-20.254c10.046,-8.788 23.6,-18.096 38.154,-26.234c7.463,-3.783 14.996,-7.075 22.25,-10.646c7.167,-3.533 14.046,-7.358 20.604,-11.575c8.963,-1.095 17.6,-2.941 23.934,-9.195c5.8,-5.73 12.775,-13.084 18.716,-19.788c10.246,-11.562 18.271,-23.337 24.68,-30.554c4.912,-9.783 -3.613,-15.65 -13.463,-22.846c-3.029,-8.333 -13.062,-13.637 -10.412,-7.954c12.304,47.875 58.716,133.446 121.387,173.475c14.804,1.679 31.742,-0.821 49.179,1.458c36.525,4.775 56.654,-36.108 79.592,-65.979c9.171,-11.937 17.675,-23.821 27.433,-31.862c7.471,-1.413 20.359,0.733 30.529,5.62c6.871,3.305 13.721,6.717 20.3,10.746c19.009,11.563 36.655,26.342 54.109,41.292c3.85,3.3 7.625,6.687 11.541,9.887c5.046,4.13 10.084,8.242 15.063,12.4c23.975,20.017 46.812,47.821 78.929,39.742c22.479,-5.65 31.408,-32.942 35.167,-55.079c2.783,-16.392 3.596,-31.692 7.837,-42.404c4.821,-12.188 7.471,-23.534 13.442,-33.471c3.067,-5.1 6.796,-9.933 11.792,-14.404c5.37,-4.221 12.37,-8.175 21.55,-11.963c6.241,-2.575 12.979,-4.829 20.108,-6.612c7.096,-1.771 14.558,-3.154 22.283,-3.888c3.863,-0.366 7.521,0.046 11.013,0.946c3.416,0.879 6.762,2.146 9.821,4.063c10.395,6.5 19.25,17.629 29.55,25.137c6.125,4.467 12.637,7.967 19.558,9.963c8.771,0.325 16.596,-0.767 23.871,-2.638c26.291,-6.762 43.916,-27.037 70.004,-31.133c41.25,-6.471 81.75,-26.434 122.379,-33.329c8.15,-1.392 16.317,-2.867 24.467,-2.296c13.091,0.925 26.471,1.496 40.029,3.241c24.896,3.205 49.212,10.425 73.712,17.475c7.596,2.175 15.3,4.017 22.855,6.413c18.55,5.883 36.754,12.917 55.825,16.567c9.312,1.783 18.912,2.95 28.533,4.05c9.258,1.062 18.571,1.866 27.658,3.104c14.1,1.916 27.784,2.441 41.213,1.416c6.912,-0.529 13.746,-1.429 20.508,-2.6c40.617,-10.375 77.529,-24.191 115.233,-35.487c13.488,-4.038 32.555,-5.154 45.925,-0.375c38.809,21.479 83.089,18.138 125.298,26.875c9.596,1.988 20.454,2.388 31.862,0.188c9.292,-1.792 18.675,-1.567 27.1,-2.167c7.763,0.983 15.346,3.013 22.746,3.871c8.179,0.95 20.329,2.879 23.004,-3.438c20.559,-22.725 69.137,-27.041 82.174,-31.483c8.217,-2.771 16.3,-5.8 24.234,-9.179c18.116,-7.721 36.954,-12.684 56.583,-15.554c3.175,-0.463 6.367,-0.792 9.571,-1.188c7.641,-0.942 15.35,-1.958 23.191,-2.317c7.905,-0.362 15.88,-0.191 23.946,-0.012c8.925,0.571 17.804,1.471 26.7,2.083c8.804,0.609 17.617,0.979 26.417,1.663c8.787,0.683 17.546,1.762 26.342,2.375c8.716,0.612 17.479,0.679 26.212,1.337c90.65,6.813 186.08,-9.564 277.093,6.124c8.929,1.537 17.866,3.212 26.766,5.208c4.704,1.058 9.392,2.263 14.096,3.404c3.908,0.946 8.067,1.338 12.338,1.729c5.641,-1.004 11.466,-1.875 17.325,-2.195c1.195,-0.071 2.4,-0.092 3.6,-0.134c4.679,-0.154 9.379,-0.308 14.108,-0.308c1.85,-0 3.704,0.017 5.558,0.037c2.1,0.025 4.2,0.005 6.292,0.117c2.321,0.121 4.637,0.354 6.95,0.563c24.658,2.266 48.003,13.001 72.545,12.472c1.408,-0.029 2.825,-0.063 4.233,-0.1c3.542,-0.088 7.071,-0.204 10.638,-0.346c2.416,-0.083 4.85,-0.183 7.3,-0.262c2.116,-0.071 4.229,-0.113 6.354,-0.146c3.312,-0.054 6.633,0.054 9.971,-0.109c1.237,-0.058 2.466,-0.054 3.683,-0.062c49.154,-0.333 83.279,4.608 148.408,0.875" style="fill:none;fill-rule:nonzero;stroke:#133a5b;stroke-width:12.5px;"/><path d="M28.048,634.307c51.488,0.729 100.025,3.179 122.438,1.137c2.295,-0.204 4.462,-0.304 6.5,-0.366c4.395,-0.142 8.254,0.629 11.508,0.133c8.7,-1.329 22.487,9.275 32.25,20.904c1.946,1.979 3.8,3.917 5.583,5.821c5.292,5.704 9.654,11.321 13.692,16.021c2.625,3.054 5.537,5.541 8.133,8.012c0.4,0.379 0.775,0.775 1.167,1.154c1.358,1.121 2.612,2.167 3.808,3.134c0.642,0.516 1.254,1.012 1.863,1.45c4.371,3.121 7.966,5.466 15.537,8.696c2.7,1.158 5.063,2.97 7.388,4.754c19.808,15.191 32.854,35.837 47.233,52.237c2.979,3.392 6.275,6.334 9.308,9.342c5.867,5.796 11.755,12.342 18.1,19.075c3.125,3.308 6.396,6.633 9.734,10.075c20.996,42.346 76.796,72.837 150.146,67.679c9.254,-0.65 18.287,-1.637 27.02,-3.15c91.405,-15.846 168.967,14.329 225.521,-30.179c3.409,-2.396 6.475,-4.85 9.196,-7.329c2.767,-2.534 5.192,-5.084 7.317,-7.567c1.25,-1.45 2.416,-2.95 3.629,-4.408c6.575,-7.917 12.896,-15.284 21.887,-24.509c9.855,-10.108 23.055,-20.4 38.284,-29.225c7.412,-4.375 14.85,-8.383 21.979,-12.67c7.083,-4.255 13.846,-8.813 20.279,-13.767c8.442,-2.083 16.592,-4.829 22.708,-11.375c5.688,-6.092 12.355,-13.604 18.084,-20.554c10.158,-12.338 18.229,-24.925 24.908,-33.592c5.404,-10.762 -3.687,-17.583 -13.917,-25.537c-3.783,-8.334 -14.77,-12.88 -12.5,-6.817c7.846,52.733 55.138,135.396 117.825,175.875c15.575,3.425 33.084,4.396 50.992,6.208c38.046,3.854 56.792,-34.721 78.025,-66.975c8.513,-12.933 16.4,-25.796 25.621,-34.741c7,-1.809 19.829,0.045 29.737,4.816c6.863,3.304 13.663,6.779 20.196,10.888c18.817,11.754 36.175,26.925 53.404,42.175c3.8,3.362 7.534,6.8 11.392,10.066c4.979,4.209 9.963,8.392 14.904,12.575c23.809,20.15 47.034,46.296 79.342,38.734c22.858,-5.35 32.458,-32.371 36.092,-54.354c2.7,-16.305 2.945,-31.805 6.162,-43.238c3.708,-13.187 5.429,-25.521 10.642,-36.583c2.687,-5.7 6.104,-11.121 10.883,-16.196c5.133,-4.992 12.021,-9.654 21.167,-14.192c6.208,-3.083 12.9,-5.854 20.012,-8.096c7.092,-2.233 14.563,-4.062 22.313,-5.141c3.891,-0.538 7.571,-0.234 11.075,0.591c3.437,0.809 6.796,2.034 9.854,3.955c10.321,6.479 18.996,17.908 29.175,25.541c5.917,4.438 12.217,7.904 18.962,9.767c8.817,0.129 16.634,-1.221 23.855,-3.396c26.12,-7.879 43.12,-29.483 69.229,-33.379c41.3,-6.167 81.983,-25.717 122.762,-31.783c8.171,-1.217 16.359,-2.109 24.538,-1.73c13.129,0.605 26.454,2.255 40.012,4.217c24.775,3.6 49.142,10.592 73.721,17.3c7.629,2.071 15.367,3.775 22.942,6.075c18.621,5.642 36.875,12.521 55.916,16.15c9.442,1.796 19.134,3.029 28.842,4.129c9.325,1.054 18.692,1.834 27.867,2.892c14.166,1.646 27.875,1.837 41.266,0.504c6.909,-0.687 13.73,-1.746 20.467,-3.079c40.388,-10.833 76.988,-26.05 114.454,-39.013c13.354,-4.62 32.667,-6.2 45.913,-1.512c38.558,21.783 82.48,19.3 124.764,27.421c9.658,1.854 20.466,2.054 31.854,-0.254c9.146,-1.854 18.392,-1.342 26.779,-1.292c7.829,1.417 15.471,4.005 22.967,5.5c8.3,1.663 21.112,4.484 24,-1.525c22.037,-21.962 88.965,-31.983 101.899,-37.062c8.154,-3.179 16.146,-6.654 23.996,-10.454c17.945,-8.755 36.712,-14.421 56.237,-17.871c3.163,-0.559 6.363,-0.992 9.558,-1.471c7.709,-1.15 15.496,-2.304 23.417,-2.813c7.883,-0.504 15.867,-0.487 23.917,-0.412c8.916,0.567 17.779,1.458 26.658,2.125c8.808,0.658 17.604,1.133 26.383,1.9c8.784,0.762 17.521,1.896 26.305,2.617c8.7,0.708 17.462,0.916 26.179,1.708c90.454,8.196 186.046,-8.602 276.721,7.453c8.909,1.579 17.83,3.3 26.709,5.35c4.696,1.083 9.366,2.308 14.071,3.5c3.92,0.991 8.062,1.529 12.312,2.075c5.663,-0.938 11.483,-1.696 17.35,-1.942c1.196,-0.054 2.392,-0.071 3.588,-0.1c4.679,-0.1 9.383,-0.175 14.104,-0.104c1.846,0.029 3.704,0.071 5.558,0.116c2.1,0.063 4.2,0.059 6.292,0.205c2.316,0.158 4.621,0.45 6.933,0.7c24.583,2.683 47.928,13.793 72.474,13.684c1.417,-0.004 2.829,-0.012 4.238,-0.02c3.541,-0.03 7.075,-0.092 10.637,-0.167c2.417,-0.046 4.85,-0.108 7.309,-0.154c2.116,-0.038 4.233,-0.042 6.354,-0.038c3.312,0 6.633,0.204 9.971,0.063c1.237,-0.05 2.466,-0.029 3.687,-0.034c48.821,-0.154 82.088,4.65 148.233,0.867" style="fill:none;fill-rule:nonzero;stroke:#133a5b;stroke-width:12.5px;"/><path d="M28.186,634.258c50.675,0.971 96.896,4.708 119.459,5.492c2.333,0.083 4.533,0.271 6.6,0.496c4.5,0.487 8.383,1.437 11.812,2.045c8.963,1.588 21.646,11.542 30.5,23.396c1.754,2.079 3.429,4.121 5.017,6.15c4.737,6.067 8.417,12.134 11.9,17.404c2.242,3.4 4.85,6.292 7.129,9.167c0.354,0.442 0.688,0.9 1.033,1.35c1.205,1.388 2.309,2.713 3.392,3.975c0.579,0.667 1.125,1.313 1.679,1.925c3.904,4.308 7.404,8.608 15.079,13.117c2.792,1.641 5.221,3.825 7.634,5.975c20.271,18.079 34.179,40.871 48.812,60.079c3.079,4.037 6.413,7.721 9.513,11.421c5.962,7.129 12.012,15.071 18.537,23.287c3.209,4.046 6.575,8.146 10.009,12.359c21.437,49.383 79.712,85.925 154.062,83c9.275,-0.367 18.35,-1.138 27.133,-2.571c91.063,-14.859 171.605,6.325 227.067,-44.646c3.375,-2.838 6.396,-5.742 9.071,-8.688c2.737,-3 5.129,-6.041 7.258,-9.025c1.242,-1.741 2.404,-3.52 3.6,-5.27c6.438,-9.4 12.579,-18.45 21.279,-28.759c9.642,-11.425 22.513,-22.696 38.421,-32.208c7.367,-4.967 14.704,-9.688 21.721,-14.692c6.979,-4.987 13.621,-10.275 19.946,-15.958c7.917,-3.075 15.567,-6.729 21.475,-13.563c5.575,-6.454 11.929,-14.116 17.45,-21.316c10.062,-13.121 18.187,-26.513 25.146,-36.634c5.891,-11.75 -3.767,-19.512 -14.371,-28.225c-4.55,-8.333 -16.479,-12.12 -14.588,-5.683c3.388,57.592 51.55,137.35 114.246,178.275c16.367,5.179 34.559,7.892 52.825,10.967c39.234,6.596 56.904,-33.329 76.446,-67.984c7.858,-13.929 15.129,-27.775 23.813,-37.62c6.525,-2.2 19.291,-0.638 28.945,4.012c6.855,3.3 13.609,6.85 20.088,11.033c18.625,11.95 35.7,27.509 52.696,43.055c3.746,3.433 7.441,6.916 11.25,10.241c4.916,4.3 9.833,8.55 14.746,12.767c23.641,20.287 47.25,44.762 79.754,37.717c23.233,-5.038 33.512,-31.796 37.029,-53.625c2.604,-16.213 2.267,-31.9 4.483,-44.08c2.571,-14.154 3.375,-27.491 7.846,-39.691c2.296,-6.288 5.404,-12.304 9.954,-17.992c4.909,-5.754 11.684,-11.125 20.792,-16.417c6.175,-3.587 12.817,-6.9 19.921,-9.587c7.079,-2.7 14.558,-4.958 22.337,-6.379c3.925,-0.717 7.625,-0.513 11.142,0.237c3.458,0.742 6.829,1.921 9.879,3.846c10.25,6.463 18.75,18.175 28.808,25.938c5.709,4.412 11.8,7.833 18.359,9.566c8.871,-0.058 16.675,-1.675 23.837,-4.158c25.954,-8.996 42.334,-31.921 68.467,-35.625c41.346,-5.863 82.2,-24.996 123.129,-30.229c8.2,-1.05 16.413,-1.771 24.617,-1.167c13.133,0.971 26.441,3.013 39.987,5.204c24.663,3.992 49.088,10.75 73.734,17.121c7.658,1.963 15.429,3.525 23.037,5.733c18.692,5.413 36.988,12.117 56.004,15.73c9.571,1.816 19.354,3.116 29.15,4.212c9.392,1.05 18.804,1.796 28.067,2.688c14.242,1.37 27.967,1.183 41.329,-0.417c6.908,-0.854 13.713,-2.067 20.425,-3.554c40.171,-11.309 76.458,-27.904 113.671,-42.542c13.233,-5.2 32.783,-7.25 45.9,-2.65c38.304,22.083 81.893,20.434 124.235,27.959c9.733,1.729 20.491,1.737 31.841,-0.684c9.005,-1.92 18.1,-1.12 26.467,-0.416c7.892,1.837 15.6,5 23.175,7.133c8.433,2.367 21.908,6.079 25.008,0.379c23.521,-21.196 40.588,-37.741 56.48,-42.454c4.712,-0.533 52.319,5.529 65.149,-0.196c8.07,-3.575 15.995,-7.479 23.745,-11.712c17.813,-9.746 36.484,-16.117 55.9,-20.192c3.159,-0.65 6.346,-1.192 9.546,-1.754c7.779,-1.371 15.642,-2.65 23.642,-3.313c7.867,-0.646 15.842,-0.779 23.892,-0.812c8.904,0.575 17.758,1.45 26.612,2.162c8.796,0.709 17.592,1.292 26.358,2.138c8.763,0.846 17.488,2.037 26.255,2.858c8.691,0.813 17.437,1.158 26.154,2.079c90.25,9.542 185.988,-7.614 276.338,8.795c8.904,1.616 17.796,3.37 26.65,5.475c4.688,1.116 9.363,2.362 14.042,3.6c3.946,1.041 8.079,1.72 12.287,2.42c5.688,-0.862 11.513,-1.5 17.375,-1.687c1.196,-0.033 2.392,-0.013 3.588,-0.054c4.671,-0.154 9.375,-0.046 14.096,0.091c1.845,0.055 3.704,0.125 5.558,0.2c2.1,0.092 4.2,0.113 6.292,0.292c2.308,0.196 4.612,0.538 6.916,0.833c24.521,3.096 47.854,14.585 72.408,14.902c1.416,0.021 2.833,0.033 4.25,0.046c3.529,0.037 7.062,0.029 10.616,0.016c2.425,-0.008 4.859,-0.041 7.325,-0.033c2.117,0.008 4.234,0.021 6.359,0.058c3.312,0.05 6.629,0.321 9.966,0.234c1.238,-0.034 2.467,-0 3.688,0.012c48.479,0.521 80.908,4.671 148.054,0.854" style="fill:none;fill-rule:nonzero;stroke:#133a5b;stroke-width:12.5px;"/><path d="M28.329,634.209c49.858,1.217 93.717,6.217 116.479,9.842c2.363,0.379 4.6,0.846 6.7,1.358c4.6,1.121 8.554,2.646 12.121,3.959c9.183,3.375 20.8,13.808 28.737,25.895c1.575,2.175 3.059,4.334 4.455,6.48c4.162,6.433 7.179,12.937 10.1,18.791c1.866,3.729 4.175,7.021 6.137,10.309c0.308,0.516 0.596,1.033 0.896,1.541c1.046,1.663 2.017,3.271 2.979,4.825c0.504,0.817 1,1.617 1.488,2.392c3.466,5.512 6.77,11.737 14.62,17.546c2.863,2.121 5.375,4.671 7.875,7.196c20.73,20.912 35.505,45.962 50.4,67.92c3.188,4.696 6.555,9.109 9.713,13.492c6.062,8.471 12.283,17.821 18.971,27.508c3.308,4.792 6.758,9.659 10.296,14.638c21.875,56.429 82.67,100.671 157.975,98.321c9.283,-0.292 18.408,-0.634 27.245,-1.988c90.717,-13.908 174.242,-1.675 228.613,-59.121c3.337,-3.27 6.308,-6.633 8.958,-10.041c2.696,-3.475 5.063,-6.992 7.188,-10.484c1.225,-2.029 2.383,-4.087 3.562,-6.125c6.317,-10.895 12.259,-21.595 20.688,-33.016c9.396,-12.721 21.958,-24.992 38.55,-35.188c7.316,-5.566 14.558,-10.991 21.458,-16.716c6.879,-5.709 12.521,-12.738 19.617,-18.155c6.696,-5.116 14.55,-8.616 20.246,-15.741c5.458,-6.817 11.491,-14.629 16.812,-22.079c9.938,-13.905 18.142,-28.096 25.383,-39.68c6.38,-12.725 -3.85,-21.441 -14.837,-30.912c-5.3,-8.333 -18.179,-11.363 -16.667,-4.546c-1.062,62.454 47.967,139.3 110.679,180.675c17.138,6.929 36.009,11.4 54.646,15.717c40.384,9.358 57.009,-31.925 74.871,-68.975c7.196,-14.929 13.863,-29.759 22.004,-40.504c6.054,-2.596 18.754,-1.325 28.159,3.208c6.837,3.296 13.55,6.921 19.979,11.175c18.433,12.142 35.221,28.092 51.987,43.942c3.7,3.487 7.354,7.02 11.109,10.416c4.841,4.384 9.708,8.704 14.583,12.942c23.475,20.421 47.467,43.246 80.167,36.708c23.612,-4.721 34.562,-31.233 37.954,-52.9c2.525,-16.125 1.587,-31.971 2.808,-44.916c1.425,-15.105 1.325,-29.475 5.046,-42.805c1.921,-6.875 4.721,-13.487 9.042,-19.783c4.679,-6.517 11.341,-12.596 20.412,-18.642c6.146,-4.095 12.733,-7.929 19.829,-11.07c7.071,-3.163 14.55,-5.863 22.354,-7.625c3.959,-0.896 7.692,-0.8 11.217,-0.121c3.483,0.666 6.867,1.804 9.913,3.733c10.175,6.446 18.5,18.446 28.433,26.346c5.5,4.379 11.379,7.762 17.758,9.367c8.925,-0.259 16.721,-2.13 23.825,-4.917c25.779,-10.117 41.538,-34.358 67.692,-37.871c41.392,-5.554 82.429,-24.279 123.504,-28.679c8.225,-0.883 16.475,-1.438 24.692,-0.604c13.141,1.341 26.429,3.766 39.966,6.183c24.546,4.383 49.021,10.917 73.746,16.938c7.684,1.866 15.488,3.291 23.129,5.4c18.755,5.179 37.1,11.72 56.084,15.312c9.712,1.833 19.583,3.2 29.471,4.292c9.445,1.046 18.92,1.762 28.266,2.479c14.313,1.096 28.054,0.575 41.388,-1.333c6.908,-1.013 13.696,-2.384 20.383,-4.034c39.95,-11.771 75.938,-29.758 112.892,-46.066c13.108,-5.78 32.883,-8.3 45.891,-3.788c38.05,22.383 81.281,21.576 123.694,28.501c9.8,1.6 20.508,1.416 31.837,-1.117c8.863,-1.983 17.813,-0.9 26.146,0.458c7.962,2.267 15.725,5.992 23.392,8.754c8.558,3.088 22.704,7.688 26.016,2.292c24.992,-20.429 44.825,-36.025 63.696,-41.196c5.446,-0.812 10.854,-1.329 16.233,-1.625c29.2,-1.616 48.695,0.958 61.42,-5.404c8,-3.988 15.838,-8.308 23.504,-12.988c17.667,-10.72 36.238,-17.866 55.55,-22.508c3.159,-0.75 6.342,-1.392 9.538,-2.037c7.854,-1.584 15.787,-2.996 23.862,-3.809c7.859,-0.787 15.83,-1.075 23.867,-1.216c8.896,0.579 17.733,1.437 26.571,2.204c8.792,0.758 17.571,1.454 26.329,2.375c8.754,0.929 17.471,2.171 26.217,3.096c8.671,0.916 17.416,1.4 26.116,2.454c90.063,10.908 185.951,-6.627 275.964,10.132c8.887,1.654 17.766,3.45 26.596,5.608c4.679,1.146 9.341,2.412 14.004,3.7c3.971,1.096 8.091,1.908 12.266,2.762c5.713,-0.791 11.546,-1.325 17.405,-1.429c1.191,-0.025 2.387,0 3.583,-0.021c4.679,-0.07 9.375,0.096 14.087,0.3c1.846,0.075 3.7,0.175 5.559,0.28c2.091,0.116 4.196,0.166 6.287,0.383c2.313,0.233 4.609,0.629 6.904,0.954c24.463,3.479 47.775,15.385 72.341,16.127c1.409,0.041 2.825,0.079 4.25,0.116c3.529,0.092 7.063,0.159 10.621,0.2c2.425,0.034 4.867,0.042 7.329,0.075c2.117,0.029 4.234,0.096 6.359,0.163c3.312,0.112 6.625,0.3 9.966,0.408c1.246,0.042 2.467,0.021 3.696,0.046c48.138,0.854 79.713,4.704 147.867,0.846" style="fill:none;fill-rule:nonzero;stroke:#133a5b;stroke-width:12.5px;"/><path d="M28.471,634.164c49.042,1.454 90.496,7.725 113.5,14.188c2.392,0.675 4.658,1.429 6.796,2.225c4.692,1.75 8.754,3.85 12.429,5.871c9.442,5.187 19.963,16.07 26.983,28.387c1.388,2.275 2.688,4.546 3.892,6.813c3.588,6.8 5.942,13.725 8.304,20.175c1.484,4.054 3.479,7.762 5.138,11.454c0.262,0.575 0.504,1.162 0.758,1.737c0.892,1.934 1.733,3.821 2.563,5.667c0.441,0.971 0.879,1.925 1.308,2.871c3.029,6.741 6.087,14.812 14.154,21.966c2.921,2.588 5.525,5.509 8.121,8.421c21.15,23.721 36.817,51.088 51.987,75.763c3.292,5.354 6.705,10.483 9.921,15.562c6.184,9.788 12.538,20.567 19.392,31.729c3.4,5.534 6.942,11.167 10.579,16.909c22.317,63.479 85.579,112.066 161.892,113.646c9.308,0.191 18.466,-0.13 27.358,-1.396c90.371,-12.929 176.883,-9.684 230.158,-73.6c3.305,-3.709 6.225,-7.521 8.842,-11.392c2.658,-3.95 5.004,-7.954 7.117,-11.95c1.221,-2.317 2.375,-4.65 3.541,-6.983c6.2,-12.388 11.909,-24.725 20.084,-37.263c9.141,-14.016 21.404,-27.291 38.679,-38.175c7.275,-6.162 14.408,-12.296 21.192,-18.737c6.779,-6.438 12.412,-13.95 19.287,-20.35c6.238,-5.809 13.517,-10.509 19.025,-17.929c5.325,-7.175 11.038,-15.138 16.175,-22.838c9.796,-14.692 18.096,-29.687 25.617,-42.721c6.866,-13.712 -3.929,-23.371 -15.296,-33.604c-6.058,-8.333 -19.883,-10.6 -18.746,-3.408c-5.525,67.308 44.375,141.25 107.096,183.075c17.925,8.683 37.45,14.908 56.479,20.471c41.504,12.133 57.096,-30.513 73.292,-69.98c6.533,-15.916 12.596,-31.729 20.196,-43.379c5.583,-2.987 18.216,-2.008 27.37,2.409c6.821,3.291 13.492,6.979 19.871,11.312c18.238,12.338 34.742,28.675 51.288,44.821c3.641,3.554 7.258,7.137 10.954,10.596c4.771,4.466 9.583,8.854 14.425,13.125c23.317,20.55 47.683,41.733 80.579,35.696c23.988,-4.4 35.608,-30.659 38.883,-52.175c2.434,-16.034 0.9,-32.025 1.138,-45.75c0.267,-16.034 -0.733,-31.455 2.246,-45.917c1.529,-7.463 4.021,-14.679 8.121,-21.575c4.445,-7.283 11.012,-14.075 20.037,-20.871c6.113,-4.6 12.646,-8.958 19.725,-12.558c7.075,-3.617 14.546,-6.759 22.388,-8.867c3.987,-1.075 7.754,-1.083 11.279,-0.483c3.504,0.596 6.904,1.7 9.937,3.629c10.109,6.429 18.267,18.704 28.063,26.746c5.3,4.35 10.966,7.696 17.171,9.171c8.975,-0.455 16.762,-2.575 23.8,-5.68c25.637,-11.187 40.75,-36.8 66.925,-40.116c41.433,-5.246 82.654,-23.563 123.875,-27.125c8.254,-0.717 16.541,-1.109 24.775,-0.042c13.145,1.7 26.412,4.521 39.941,7.163c24.429,4.766 48.963,11.083 73.754,16.762c7.717,1.758 15.555,3.046 23.221,5.058c18.825,4.946 37.217,11.317 56.179,14.892c9.838,1.854 19.8,3.279 29.775,4.375c9.513,1.046 19.042,1.738 28.471,2.275c14.388,0.821 28.146,-0.042 41.442,-2.254c6.904,-1.171 13.679,-2.7 20.346,-4.513c39.721,-12.237 75.408,-31.612 112.108,-49.591c13,-6.363 33,-9.354 45.875,-4.921c37.808,22.679 80.697,22.705 123.16,29.038c9.871,1.471 20.533,1.092 31.829,-1.554c8.725,-2.046 17.529,-0.671 25.837,1.333c8.034,2.692 15.855,7 23.609,10.392c8.683,3.8 23.487,9.287 27.016,4.196c26.467,-19.667 49.067,-34.309 70.925,-39.946c6.159,-1.088 12.305,-1.863 18.417,-2.392c33.008,-2.862 59.107,-4.467 71.728,-11.471c7.938,-4.387 15.675,-9.154 23.259,-14.254c17.5,-11.758 35.995,-19.625 55.216,-24.825c3.15,-0.854 6.334,-1.596 9.517,-2.317c7.925,-1.804 15.942,-3.35 24.087,-4.312c7.855,-0.925 15.821,-1.371 23.85,-1.613c8.871,0.575 17.709,1.417 26.534,2.234c8.779,0.808 17.546,1.616 26.291,2.625c8.742,1.004 17.442,2.304 26.171,3.329c8.663,1.021 17.4,1.641 26.084,2.829c89.875,12.287 185.909,-5.66 275.596,11.469c8.863,1.692 17.734,3.525 26.542,5.738c4.671,1.175 9.317,2.466 13.971,3.796c3.996,1.141 8.087,2.104 12.241,3.108c5.738,-0.717 11.563,-1.142 17.421,-1.175c1.196,-0.008 2.384,0.008 3.584,0.025c4.679,0.062 9.375,0.221 14.083,0.496c1.842,0.104 3.696,0.229 5.546,0.358c2.096,0.15 4.204,0.229 6.287,0.475c2.313,0.275 4.6,0.721 6.896,1.088c24.388,3.887 47.699,16.18 72.27,17.339c1.413,0.07 2.829,0.129 4.254,0.191c3.534,0.154 7.063,0.275 10.621,0.379c2.425,0.071 4.867,0.125 7.342,0.196c2.112,0.054 4.229,0.159 6.354,0.263c3.312,0.158 6.633,0.421 9.971,0.575c1.241,0.058 2.471,0.054 3.691,0.087c47.805,1.309 78.525,4.729 147.692,0.838" style="fill:none;fill-rule:nonzero;stroke:#133a5b;stroke-width:12.5px;"/><path d="M28.609,634.116c48.225,1.695 87.238,9.241 110.521,18.541c2.425,0.971 4.721,2.004 6.896,3.084c4.783,2.383 8.958,5.07 12.733,7.787c9.742,7.008 19.117,18.333 25.225,30.883c1.209,2.371 2.317,4.75 3.334,7.142c3.016,7.158 4.721,14.508 6.508,21.558c1.108,4.38 2.792,8.492 4.142,12.6c0.208,0.646 0.408,1.288 0.621,1.934c0.733,2.2 1.437,4.371 2.15,6.512c0.37,1.121 0.754,2.229 1.116,3.338c2.609,7.991 5.384,17.866 13.7,26.396c2.971,3.041 5.675,6.345 8.363,9.637c21.604,26.475 38.129,56.238 53.566,83.608c3.405,6.03 6.863,11.867 10.125,17.638c6.3,11.117 12.805,23.312 19.834,35.946c3.491,6.283 7.116,12.679 10.85,19.191c22.758,70.513 88.537,125.05 165.808,128.959c9.333,0.471 18.533,0.383 27.475,-0.813c90.025,-11.987 179.521,-17.683 231.704,-88.075c3.267,-4.137 6.146,-8.404 8.725,-12.737c2.625,-4.413 4.942,-8.909 7.046,-13.417c1.217,-2.596 2.363,-5.217 3.508,-7.833c6.088,-13.892 11.563,-27.85 19.492,-41.517c8.871,-15.296 20.858,-29.587 38.817,-41.158c7.221,-6.754 14.25,-13.6 20.916,-20.763c6.68,-7.162 12.367,-15.171 18.959,-22.546c5.829,-6.525 12.487,-12.395 17.791,-20.104c5.2,-7.546 10.592,-15.654 15.546,-23.608c9.634,-15.479 18.059,-31.275 25.854,-45.758c7.35,-14.7 -4.012,-25.309 -15.754,-36.288c-6.821,-8.337 -21.591,-9.854 -20.833,-2.275c-9.979,72.167 40.796,143.204 103.525,185.467c18.708,10.437 38.875,18.421 58.308,25.225c42.592,14.916 57.184,-29.071 71.717,-70.975c5.862,-16.9 11.321,-33.713 18.387,-46.263c5.105,-3.379 17.684,-2.687 26.575,1.604c6.813,3.288 13.438,7.05 19.771,11.455c18.042,12.533 34.259,29.262 50.575,45.708c3.592,3.617 7.171,7.246 10.809,10.771c4.712,4.554 9.458,9.008 14.266,13.304c23.154,20.692 47.892,40.221 80.988,34.683c24.366,-4.071 36.662,-30.087 39.812,-51.446c2.346,-15.941 0.221,-32.066 -0.537,-46.583c-0.884,-16.946 -2.804,-33.429 -0.546,-49.029c1.133,-8.05 3.325,-15.863 7.2,-23.371c4.217,-8.046 10.675,-15.558 19.658,-23.1c6.088,-5.108 12.563,-9.983 19.634,-14.046c7.062,-4.066 14.537,-7.65 22.412,-10.108c4.017,-1.25 7.804,-1.363 11.346,-0.838c3.525,0.525 6.933,1.584 9.971,3.521c10.033,6.409 18.025,18.963 27.691,27.15c5.096,4.317 10.538,7.629 16.563,8.971c9.033,-0.646 16.808,-3.037 23.792,-6.437c25.454,-12.338 39.954,-39.242 66.15,-42.363c41.487,-4.942 82.879,-22.846 124.25,-25.579c8.279,-0.55 16.6,-0.771 24.85,0.521c13.162,2.066 26.395,5.3 39.92,8.141c24.3,5.205 48.9,11.255 73.763,16.588c7.746,1.658 15.617,2.8 23.317,4.721c18.887,4.708 37.329,10.925 56.266,14.475c9.967,1.871 20.017,3.362 30.079,4.454c9.58,1.037 19.167,1.704 28.675,2.071c14.471,0.55 28.242,-0.654 41.509,-3.179c6.896,-1.325 13.658,-3.009 20.3,-4.984c39.504,-12.704 74.896,-33.479 111.329,-53.121c12.883,-6.941 33.112,-10.4 45.858,-6.058c37.563,22.983 80.11,23.834 122.631,29.575c9.946,1.346 20.546,0.775 31.821,-1.987c8.583,-2.104 17.241,-0.45 25.52,2.217c8.096,3.112 15.975,7.987 23.817,12.012c8.817,4.521 24.283,10.892 28.029,6.113c27.938,-18.909 53.304,-32.6 78.142,-38.7c6.892,-1.363 13.762,-2.405 20.612,-3.155c36.8,-4.133 69.524,-9.896 82.041,-17.541c7.863,-4.792 15.513,-9.992 23.017,-15.521c17.333,-12.771 35.75,-21.379 54.866,-27.146c3.15,-0.95 6.321,-1.792 9.505,-2.6c7.991,-2.029 16.087,-3.696 24.308,-4.808c7.854,-1.063 15.804,-1.663 23.829,-2.017c8.863,0.587 17.683,1.412 26.488,2.275c8.775,0.862 17.529,1.779 26.262,2.858c8.729,1.088 17.413,2.446 26.129,3.575c8.65,1.117 17.384,1.884 26.059,3.2c89.691,13.65 185.859,-4.697 275.217,12.803c8.846,1.733 17.692,3.604 26.479,5.879c4.663,1.2 9.304,2.513 13.942,3.888c4.021,1.191 8.104,2.3 12.212,3.454c5.763,-0.646 11.6,-0.959 17.459,-0.917c1.187,0.008 2.375,0.029 3.571,0.058c4.67,0.117 9.366,0.359 14.079,0.696c1.841,0.134 3.687,0.288 5.541,0.446c2.1,0.179 4.209,0.279 6.292,0.563c2.304,0.32 4.583,0.812 6.875,1.216c24.325,4.309 47.628,16.981 72.208,18.56c1.416,0.092 2.833,0.175 4.254,0.258c3.533,0.213 7.066,0.405 10.621,0.563c2.425,0.112 4.875,0.204 7.35,0.312c2.108,0.096 4.229,0.23 6.345,0.363c3.321,0.217 6.634,0.542 9.98,0.746c1.245,0.071 2.475,0.079 3.695,0.129c47.467,1.762 77.342,4.762 147.517,0.821" style="fill:none;fill-rule:nonzero;stroke:#133a5b;stroke-width:12.5px;"/><path d="M28.756,634.067c47.404,1.941 83.942,10.733 107.538,22.891c2.445,1.263 4.779,2.584 6.987,3.95c4.875,3.013 9.179,6.288 13.046,9.696c10.05,8.854 18.279,20.604 23.471,33.375c1.021,2.475 1.946,4.971 2.766,7.475c2.459,7.529 3.5,15.288 4.713,22.946c0.75,4.7 2.096,9.221 3.142,13.75l0.487,2.125c0.579,2.471 1.15,4.917 1.733,7.358c0.309,1.275 0.634,2.542 0.934,3.809c2.158,9.25 4.666,20.896 13.241,30.821c3.025,3.495 5.821,7.179 8.605,10.862c22.062,29.2 39.429,61.413 55.15,91.446c3.508,6.7 7.008,13.254 10.337,19.712c6.404,12.446 13.075,26.063 20.254,40.163c3.592,7.025 7.3,14.196 11.134,21.467c23.2,77.558 91.52,137.995 169.725,144.283c9.354,0.737 18.591,0.883 27.587,-0.225c89.675,-11.046 182.163,-25.692 233.254,-102.55c3.229,-4.579 6.063,-9.292 8.604,-14.088c2.588,-4.891 4.88,-9.866 6.98,-14.879c1.204,-2.887 2.35,-5.787 3.483,-8.691c5.979,-15.4 11.192,-30.959 18.879,-45.771c8.604,-16.567 20.313,-31.888 38.95,-44.142c7.179,-7.35 14.088,-14.912 20.663,-22.787c6.55,-7.9 12.366,-16.409 18.625,-24.738c5.475,-7.287 11.445,-14.283 16.566,-22.287c5.059,-7.909 10.129,-16.159 14.904,-24.375c9.467,-16.267 18.017,-32.859 26.084,-48.8c7.846,-15.68 -4.084,-27.238 -16.204,-38.98c-7.575,-8.329 -23.296,-9.087 -22.917,-1.137c-14.442,77.029 37.208,145.158 99.954,187.871c19.483,12.187 40.275,21.929 60.125,29.983c43.658,17.704 57.267,-27.633 70.146,-71.983c5.192,-17.871 10.05,-35.684 16.575,-49.142c4.637,-3.771 17.146,-3.371 25.783,0.804c6.809,3.288 13.384,7.113 19.671,11.6c17.846,12.721 33.779,29.842 49.871,46.584c3.533,3.683 7.075,7.362 10.658,10.945c4.646,4.642 9.338,9.163 14.104,13.492c23.021,20.792 48.105,38.717 81.405,33.675c24.741,-3.75 37.72,-29.521 40.741,-50.725c2.263,-15.858 -0.458,-32.083 -2.208,-47.421c-2.033,-17.846 -4.85,-35.4 -3.35,-52.146c0.754,-8.629 2.633,-17.037 6.279,-25.154c3.988,-8.812 10.354,-17.046 19.279,-25.329c6.067,-5.625 12.484,-11.008 19.546,-15.533c7.054,-4.521 14.521,-8.55 22.438,-11.35c4.045,-1.429 7.862,-1.646 11.412,-1.196c3.542,0.446 6.971,1.467 9.992,3.412c9.962,6.396 17.796,19.225 27.325,27.555c4.896,4.275 10.129,7.558 15.962,8.77c9.092,-0.841 16.854,-3.5 23.779,-7.2c25.28,-13.483 39.163,-41.683 65.375,-44.612c41.538,-4.638 83.113,-22.125 124.63,-24.021c8.304,-0.379 16.666,-0.446 24.925,1.083c13.175,2.434 26.379,6.038 39.895,9.121c24.196,5.567 48.846,11.417 73.78,16.409c7.775,1.558 15.675,2.558 23.404,4.379c18.954,4.479 37.454,10.5 56.354,14.062c10.104,1.875 20.246,3.442 30.392,4.529c9.641,1.034 19.287,1.68 28.883,1.863c14.542,0.287 28.329,-1.258 41.567,-4.092c6.891,-1.479 13.633,-3.325 20.254,-5.462c39.279,-13.171 74.391,-35.329 110.546,-56.646c12.77,-7.525 33.229,-11.45 45.85,-7.2c37.312,23.287 79.509,25.017 122.097,30.121c10.016,1.225 20.562,0.463 31.808,-2.421c8.442,-2.166 16.963,-0.225 25.204,3.088c8.171,3.546 16.104,8.996 24.034,13.642c8.941,5.245 25.079,12.495 29.033,8.02c29.412,-18.141 57.546,-30.883 85.362,-37.45c7.617,-1.629 15.217,-2.929 22.8,-3.912c40.613,-5.333 79.945,-15.329 92.362,-23.609c7.787,-5.195 15.35,-10.837 22.762,-16.791c17.171,-13.779 35.513,-23.129 54.534,-29.467c3.141,-1.046 6.308,-1.992 9.487,-2.879c8.067,-2.246 16.238,-4.038 24.529,-5.308c7.846,-1.2 15.788,-1.959 23.813,-2.417c8.846,0.587 17.658,1.4 26.442,2.312c8.762,0.913 17.512,1.938 26.233,3.1c8.717,1.167 17.383,2.58 26.092,3.813c8.633,1.225 17.35,2.125 26.016,3.579c89.513,15.004 185.822,-3.714 274.843,14.136c8.829,1.771 17.666,3.679 26.425,6.004c4.654,1.229 9.283,2.567 13.908,3.992c4.05,1.237 8.113,2.483 12.188,3.796c5.795,-0.571 11.62,-0.775 17.483,-0.663c1.196,0.025 2.375,0.059 3.571,0.104c4.671,0.175 9.366,0.488 14.071,0.896c1.837,0.163 3.687,0.338 5.533,0.521c2.108,0.208 4.208,0.338 6.3,0.658c2.304,0.355 4.575,0.9 6.858,1.342c24.263,4.679 47.549,17.777 72.133,19.781c1.425,0.116 2.841,0.221 4.266,0.329c3.53,0.275 7.055,0.525 10.613,0.742c2.433,0.154 4.879,0.279 7.354,0.429c2.117,0.125 4.242,0.296 6.358,0.466c3.309,0.267 6.63,0.663 9.975,0.913c1.246,0.092 2.475,0.108 3.696,0.171c47.125,2.212 76.154,4.791 147.338,0.812" style="fill:none;fill-rule:nonzero;stroke:#133a5b;stroke-width:12.5px;"/><path d="M28.894,634.022c111.459,5.208 151.213,55.304 151.834,111.671c0.704,4.979 1.4,9.945 2.146,14.891c0.741,4.954 1.529,9.888 2.412,14.804c1.55,10.538 3.8,24.005 12.792,35.246c26.675,35.096 47.508,74.517 65.575,111.371c3.616,7.383 7.121,14.658 10.537,21.788c6.454,13.812 13.325,28.82 20.688,44.379c3.683,7.775 7.487,15.708 11.416,23.746c23.642,84.604 94.475,151.27 173.642,159.604c9.375,1.041 18.621,1.108 27.7,0.362c88.967,-12.862 184.8,-33.696 234.8,-117.029c29.167,-45.833 25,-104.167 76.217,-138.475c7.125,-7.95 13.937,-16.204 20.396,-24.808c6.454,-8.613 12.562,-17.575 18.287,-26.934c5.308,-8 10.408,-16.17 15.35,-24.47c14.804,-24.896 28.083,-50.938 40.583,-76.98c8.334,-16.666 -4.166,-29.166 -16.666,-41.666c-8.334,-8.334 -25,-8.334 -25,-0c-25,108.333 75,187.5 158.333,225c62.5,29.166 62.5,-75 83.338,-125c4.162,-4.167 16.662,-4.167 24.995,-0c62.5,29.166 95.834,125 175,116.666c25,-4.166 37.5,-29.166 41.667,-50c4.167,-54.166 -33.333,-112.5 14.238,-158.016c5.854,-6.317 12.4,-12.038 19.445,-17.021c7.046,-4.979 14.6,-9.225 22.463,-12.592c4.117,-1.496 7.925,-1.937 11.479,-1.554c3.567,0.371 6.888,1.554 10.029,3.304c9.463,6.988 17.563,19.471 26.946,27.954c4.692,4.242 9.708,7.492 15.371,8.571c42.529,-4.812 55.029,-50.646 88.362,-54.812c41.667,-3.471 83.334,-21.413 125,-22.475c8.334,-0.209 16.667,0.254 25.005,1.646c36.329,9.375 74.629,19.079 113.662,26.333c7.808,1.454 15.642,2.804 23.5,4.042c28.85,8.387 58.046,15.008 87.142,18.254c9.712,0.975 19.408,1.596 29.083,1.658c67.442,-0.292 117.442,-37.792 171.608,-71.125c12.5,-8.333 33.334,-12.5 45.834,-8.333c45.833,29.166 95.034,44.467 153.368,27.8c8.333,-2.083 16.666,0 24.896,3.967c8.225,3.967 16.337,9.821 24.241,15.271c9.196,5.762 25.863,14.096 30.029,9.929c104.763,-58.929 173.912,-36.954 220.249,-70.554c7.725,-5.6 15.234,-11.617 22.525,-18.055c27.209,-23.32 57.059,-35.408 88.413,-40.758c7.846,-1.337 15.779,-2.254 23.787,-2.817c17.684,1.175 35.196,3.196 52.605,5.692c8.708,1.246 17.383,2.613 26.05,4.05c8.633,1.221 17.3,2.558 25.983,3.95c88.95,18.358 185.942,-3.556 274.467,15.474c8.838,1.725 17.638,3.758 26.367,6.137c8.742,2.375 17.425,5.104 26.042,8.233c5.821,-0.5 11.654,-0.595 17.512,-0.408c5.854,0.179 11.738,0.638 17.629,1.238c3.93,0.404 7.875,0.866 11.825,1.35c27.809,6.104 54.829,20.293 83.183,22.876c5.95,0.567 11.867,1.042 17.975,1.463c5.412,0.441 10.858,1 16.333,1.654c49.05,2.754 76.784,5.133 150.854,1.008" style="fill:none;fill-rule:nonzero;stroke:#133a5b;stroke-width:12.5px;"/></g></svg>