<?xml version="1.0" encoding="UTF-8" standalone="no"?><!DOCTYPE svg PUBLIC "-//W3C//DTD SVG 1.1//EN" "http://www.w3.org/Graphics/SVG/1.1/DTD/svg11.dtd"><svg width="100%" height="100%" viewBox="0 0 4897 3191" version="1.1" xmlns="http://www.w3.org/2000/svg" xmlns:xlink="http://www.w3.org/1999/xlink" xml:space="preserve" xmlns:serif="http://www.serif.com/" style="fill-rule:evenodd;clip-rule:evenodd;stroke-linecap:round;stroke-linejoin:round;stroke-miterlimit:1.5;"><g><g><g><path d="M479.743,1259.46c669.768,-1656.05 1324.53,-1657.87 1964.24,-0.606" style="fill:none;stroke:#fff;stroke-width:33.33px;"/><path d="M2446.2,1265.44c641.582,1655.64 1296.32,1657.06 1964.24,-0.607" style="fill:none;stroke:#fff;stroke-width:33.33px;"/></g><g><g><path d="M479.748,1258.81c335.195,-885.342 662.399,-886.308 981.587,-0.303" style="fill:none;stroke:#fff;stroke-width:33.33px;"/><path d="M1462.44,1262.02c320.126,885.139 647.315,885.903 981.587,-0.303" style="fill:none;stroke:#fff;stroke-width:33.33px;"/></g><g><path d="M2446.18,1258.2c335.195,-885.342 662.398,-886.308 981.587,-0.303" style="fill:none;stroke:#fff;stroke-width:33.33px;"/><path d="M3428.88,1261.42c320.125,885.139 647.314,885.903 981.587,-0.303" style="fill:none;stroke:#fff;stroke-width:33.33px;"/></g></g><g><g><path d="M479.786,1254.38c223.42,-590.114 441.514,-590.757 654.265,-0.202" style="fill:none;stroke:#fff;stroke-width:33.33px;"/><path d="M1134.79,1256.52c213.376,589.979 431.46,590.488 654.265,-0.202" style="fill:none;stroke:#fff;stroke-width:33.33px;"/></g><g><path d="M1790.49,1253.98c223.42,-590.114 441.513,-590.758 654.265,-0.202" style="fill:none;stroke:#fff;stroke-width:33.33px;"/><path d="M2445.49,1256.12c213.376,589.979 431.46,590.488 654.265,-0.202" style="fill:none;stroke:#fff;stroke-width:33.33px;"/></g><g><path d="M3101.24,1253.57c223.42,-590.114 441.514,-590.758 654.265,-0.202" style="fill:none;stroke:#fff;stroke-width:33.33px;"/><path d="M3756.24,1255.71c213.376,589.979 431.46,590.488 654.265,-0.202" style="fill:none;stroke:#fff;stroke-width:33.33px;"/></g></g><g><g><path d="M479.831,1249.08c167.399,-427.769 330.929,-428.238 490.578,-0.151" style="fill:none;stroke:#fff;stroke-width:33.33px;"/><path d="M970.962,1250.63c160.118,427.669 323.641,428.036 490.579,-0.151" style="fill:none;stroke:#fff;stroke-width:33.33px;"/></g><g><path d="M1462.62,1248.78c167.399,-427.77 330.929,-428.238 490.579,-0.151" style="fill:none;stroke:#fff;stroke-width:33.33px;"/><g><path d="M1953.75,1250.33c160.118,427.668 323.64,428.036 490.578,-0.152" style="fill:none;stroke:#fff;stroke-width:33.33px;"/><g><g><path d="M2446.07,1248.48c167.399,-427.769 330.928,-428.238 490.578,-0.151" style="fill:none;stroke:#fff;stroke-width:33.33px;"/><path d="M2937.2,1250.03c160.118,427.669 323.641,428.036 490.579,-0.151" style="fill:none;stroke:#fff;stroke-width:33.33px;"/></g><g><path d="M3428.85,1248.17c167.399,-427.77 330.929,-428.238 490.578,-0.151" style="fill:none;stroke:#fff;stroke-width:33.33px;"/><path d="M3919.98,1249.72c160.118,427.668 323.641,428.036 490.579,-0.152" style="fill:none;stroke:#fff;stroke-width:33.33px;"/></g></g></g></g></g><g><g><path d="M479.767,1256.64c134.019,-342.473 264.942,-342.848 392.758,-0.121" style="fill:none;stroke:#fff;stroke-width:33.33px;"/><path d="M872.968,1257.88c128.19,342.392 259.107,342.687 392.758,-0.121" style="fill:none;stroke:#fff;stroke-width:33.33px;"/></g><g><path d="M3628.55,1255.67c134.02,-342.473 264.942,-342.848 392.758,-0.121" style="fill:none;stroke:#fff;stroke-width:33.33px;"/><path d="M4021.75,1256.91c128.191,342.393 259.107,342.687 392.758,-0.121" style="fill:none;stroke:#fff;stroke-width:33.33px;"/></g><g><path d="M1266.59,1256.4c134.02,-342.473 264.942,-342.848 392.758,-0.121" style="fill:none;stroke:#fff;stroke-width:33.33px;"/><g><path d="M1659.79,1257.64c128.191,342.393 259.107,342.687 392.758,-0.121" style="fill:none;stroke:#fff;stroke-width:33.33px;"/><g><g><path d="M2053.94,1256.16c134.02,-342.473 264.942,-342.848 392.758,-0.121" style="fill:none;stroke:#fff;stroke-width:33.33px;"/><path d="M2447.14,1257.4c128.191,342.393 259.108,342.687 392.758,-0.121" style="fill:none;stroke:#fff;stroke-width:33.33px;"/></g><g><path d="M2840.76,1255.91c134.02,-342.473 264.942,-342.848 392.758,-0.121" style="fill:none;stroke:#fff;stroke-width:33.33px;"/><path d="M3233.96,1257.15c128.191,342.393 259.108,342.687 392.758,-0.121" style="fill:none;stroke:#fff;stroke-width:33.33px;"/></g></g></g></g></g><g><g><path d="M479.764,1256.98c111.753,-285.574 220.924,-285.886 327.504,-0.101" style="fill:none;stroke:#fff;stroke-width:33.33px;"/><path d="M807.637,1258.01c106.893,285.506 216.058,285.751 327.504,-0.101" style="fill:none;stroke:#fff;stroke-width:33.33px;"/></g><g><path d="M3105.4,1256.17c111.753,-285.573 220.924,-285.886 327.504,-0.101" style="fill:none;stroke:#fff;stroke-width:33.33px;"/><path d="M3433.27,1257.2c106.893,285.506 216.059,285.752 327.504,-0.101" style="fill:none;stroke:#fff;stroke-width:33.33px;"/></g><g><path d="M3759.13,1255.97c111.753,-285.574 220.924,-285.887 327.504,-0.101" style="fill:none;stroke:#fff;stroke-width:33.33px;"/><path d="M4087,1257c106.893,285.506 216.059,285.751 327.504,-0.102" style="fill:none;stroke:#fff;stroke-width:33.33px;"/></g><g><path d="M1135.86,1256.78c111.754,-285.573 220.924,-285.886 327.504,-0.101" style="fill:none;stroke:#fff;stroke-width:33.33px;"/><g><path d="M1463.73,1257.81c106.893,285.506 216.059,285.752 327.504,-0.101" style="fill:none;stroke:#fff;stroke-width:33.33px;"/><g><g><path d="M1792.4,1256.57c111.754,-285.574 220.924,-285.887 327.504,-0.101" style="fill:none;stroke:#fff;stroke-width:33.33px;"/><path d="M2120.27,1257.61c106.893,285.506 216.059,285.751 327.504,-0.101" style="fill:none;stroke:#fff;stroke-width:33.33px;"/></g><g><path d="M2448.49,1256.37c111.753,-285.573 220.924,-285.886 327.504,-0.101" style="fill:none;stroke:#fff;stroke-width:33.33px;"/><path d="M2776.37,1257.4c106.893,285.506 216.059,285.751 327.504,-0.101" style="fill:none;stroke:#fff;stroke-width:33.33px;"/></g></g></g></g></g><g><g><path d="M479.744,1259.26c95.84,-244.909 189.465,-245.177 280.869,-0.086" style="fill:none;stroke:#fff;stroke-width:33.33px;"/><path d="M760.93,1260.15c91.671,244.851 185.292,245.061 280.868,-0.087" style="fill:none;stroke:#fff;stroke-width:33.33px;"/></g><g><path d="M2731.5,1258.57c95.841,-244.909 189.466,-245.177 280.869,-0.087" style="fill:none;stroke:#fff;stroke-width:33.33px;"/><path d="M3012.68,1259.45c91.671,244.851 185.292,245.061 280.868,-0.087" style="fill:none;stroke:#fff;stroke-width:33.33px;"/></g><g><path d="M3292.14,1258.39c95.84,-244.909 189.465,-245.177 280.869,-0.087" style="fill:none;stroke:#fff;stroke-width:33.33px;"/><path d="M3573.33,1259.28c91.672,244.851 185.293,245.061 280.869,-0.087" style="fill:none;stroke:#fff;stroke-width:33.33px;"/></g><g><path d="M3852.44,1258.22c95.84,-244.909 189.465,-245.177 280.869,-0.087" style="fill:none;stroke:#fff;stroke-width:33.33px;"/><path d="M4133.62,1259.11c91.671,244.851 185.292,245.061 280.868,-0.087" style="fill:none;stroke:#fff;stroke-width:33.33px;"/></g><g><path d="M1042.41,1259.09c95.84,-244.909 189.465,-245.178 280.869,-0.087" style="fill:none;stroke:#fff;stroke-width:33.33px;"/><g><path d="M1323.6,1259.97c91.671,244.851 185.292,245.062 280.868,-0.086" style="fill:none;stroke:#fff;stroke-width:33.33px;"/><g><g><path d="M1605.46,1258.91c95.84,-244.909 189.465,-245.177 280.869,-0.087" style="fill:none;stroke:#fff;stroke-width:33.33px;"/><path d="M1886.65,1259.8c91.672,244.851 185.293,245.062 280.869,-0.086" style="fill:none;stroke:#fff;stroke-width:33.33px;"/></g><g><path d="M2168.13,1258.74c95.84,-244.909 189.465,-245.177 280.869,-0.087" style="fill:none;stroke:#fff;stroke-width:33.33px;"/><path d="M2449.32,1259.63c91.672,244.851 185.293,245.061 280.869,-0.087" style="fill:none;stroke:#fff;stroke-width:33.33px;"/></g></g></g></g></g><g><g><g><path d="M479.789,1254.05c83.814,-214.179 165.691,-214.413 245.625,-0.076" style="fill:none;stroke:#fff;stroke-width:33.33px;"/><path d="M725.691,1254.83c80.169,214.128 162.043,214.312 245.626,-0.076" style="fill:none;stroke:#fff;stroke-width:33.33px;"/></g><g><path d="M971.856,1253.9c83.815,-214.179 165.692,-214.413 245.626,-0.076" style="fill:none;stroke:#fff;stroke-width:33.33px;"/><g><path d="M1217.76,1254.67c80.169,214.128 162.043,214.312 245.626,-0.076" style="fill:none;stroke:#fff;stroke-width:33.33px;"/><g><g><path d="M1464.26,1253.75c83.814,-214.178 165.691,-214.413 245.626,-0.076" style="fill:none;stroke:#fff;stroke-width:33.33px;"/><path d="M1710.16,1254.52c80.169,214.128 162.042,214.312 245.626,-0.076" style="fill:none;stroke:#fff;stroke-width:33.33px;"/></g><g><path d="M1956.32,1253.6c83.815,-214.178 165.692,-214.413 245.626,-0.076" style="fill:none;stroke:#fff;stroke-width:33.33px;"/><path d="M2202.22,1254.37c80.169,214.128 162.043,214.312 245.626,-0.075" style="fill:none;stroke:#fff;stroke-width:33.33px;"/></g></g></g></g></g><g><g><path d="M2449,1253.44c83.815,-214.178 165.692,-214.413 245.626,-0.076" style="fill:none;stroke:#fff;stroke-width:33.33px;"/><path d="M2694.9,1254.22c80.169,214.128 162.043,214.312 245.626,-0.075" style="fill:none;stroke:#fff;stroke-width:33.33px;"/></g><g><path d="M2941.06,1253.29c83.814,-214.178 165.692,-214.413 245.626,-0.076" style="fill:none;stroke:#fff;stroke-width:33.33px;"/><g><path d="M3186.97,1254.07c80.169,214.128 162.042,214.312 245.626,-0.075" style="fill:none;stroke:#fff;stroke-width:33.33px;"/><g><g><path d="M3433.46,1253.14c83.814,-214.178 165.691,-214.413 245.626,-0.076" style="fill:none;stroke:#fff;stroke-width:33.33px;"/><path d="M3679.37,1253.91c80.168,214.128 162.042,214.312 245.625,-0.075" style="fill:none;stroke:#fff;stroke-width:33.33px;"/></g><g><path d="M3925.53,1252.99c83.815,-214.178 165.692,-214.413 245.626,-0.076" style="fill:none;stroke:#fff;stroke-width:33.33px;"/><path d="M4171.43,1253.76c80.169,214.127 162.043,214.311 245.626,-0.076" style="fill:none;stroke:#fff;stroke-width:33.33px;"/></g></g></g></g></g></g></g></g><g><path d="M10.417,3177.61l307.168,-0l-0,-6.106l-299.779,0l0.047,-111.303l263.62,0l0,-6.105l-263.617,0l0.047,-111.595l299.682,0l-0,-6.105l-307.06,-0l-0.108,241.214Z" style="fill:#fff;fill-rule:nonzero;stroke:#fff;stroke-width:20.83px;stroke-linecap:butt;stroke-miterlimit:2;"/><path d="M370.732,2937.08l-7.381,-0l-0,240.533l302.924,-0l0,-6.106l-295.543,0l0,-234.427Z" style="fill:#fff;fill-rule:nonzero;stroke:#fff;stroke-width:20.83px;stroke-linecap:butt;stroke-miterlimit:2;"/><rect x="734.049" y="2936.62" width="7.382" height="240.992" style="fill:#fff;fill-rule:nonzero;stroke:#fff;stroke-width:20.83px;stroke-linecap:butt;stroke-miterlimit:2;"/><path d="M944.324,2942.08c34.844,0.288 87.157,0.004 131.504,6.526c51.55,7.585 77.69,22.043 77.69,42.97l7.492,-0c0,-24.369 -28.217,-40.88 -83.87,-49.069c-44.694,-6.577 -97.123,-6.623 -132.78,-6.623l-0.735,-0c-100.478,-0 -149.323,21.287 -149.323,65.073c0,49.961 61.747,59.1 183.353,59.1c121.949,0 175.863,2.384 175.863,58.952c0,52.411 -77.607,52.411 -175.863,52.411c-102.971,-0 -175.861,-3.564 -175.861,-49.679l-7.492,-0c0,55.875 93.209,55.875 183.353,55.875c102.441,0 183.355,0 183.355,-58.607c0,-65.148 -69.014,-65.148 -183.355,-65.148c-116.639,0 -175.861,-8.184 -175.861,-52.904c0,-39.617 46.395,-58.877 142.53,-58.877Z" style="fill:#fff;fill-rule:nonzero;stroke:#fff;stroke-width:20.83px;stroke-linecap:butt;stroke-miterlimit:2;"/><path d="M1364.89,2936.08l-173.493,240.986l8.589,0l64.855,-90.097l206.941,0l65.173,90.097l8.604,0l-174.34,-240.991l-6.329,0.005Zm-95.652,144.785l98.823,-137.285l99.305,137.285l-198.128,-0Z" style="fill:#fff;fill-rule:nonzero;stroke:#fff;stroke-width:20.83px;stroke-linecap:butt;stroke-miterlimit:2;"/><path d="M1809.46,3056.02c43.266,-9.128 50.085,-34.705 50.085,-59.828c0,-42.291 -37.553,-60.334 -125.58,-60.334l-160.049,0.506l0,240.695l205.611,0c62.721,0 93.21,-20.715 93.21,-63.325c0,-34.382 -17.415,-51.633 -63.277,-57.714Zm-228.162,-113.563l152.682,-0.495c82.84,-0 118.184,16.219 118.184,54.23c0,29.717 -9.901,57.219 -81.749,57.219l-5.475,0c-1.283,-0.009 -2.577,-0.012 -3.886,-0.012l-179.757,0.012l0,-110.954l0.001,-0Zm198.229,228.497l-198.229,0l0,-111.438l183.697,0c74.932,0.463 100.361,14.363 100.361,54.218c0,26.641 -9.753,57.22 -85.829,57.22Z" style="fill:#fff;fill-rule:nonzero;stroke:#fff;stroke-width:20.83px;stroke-linecap:butt;stroke-miterlimit:2;"/><path d="M1907.84,3177.61l307.169,-0l-0,-6.106l-299.779,0l0.046,-111.303l263.621,0l0,-6.105l-263.617,0l0.047,-111.595l299.682,0l-0,-6.105l-307.06,-0l-0.109,241.214Z" style="fill:#fff;fill-rule:nonzero;stroke:#fff;stroke-width:20.83px;stroke-linecap:butt;stroke-miterlimit:2;"/><path d="M2251.45,2942.04l189.186,0l-0,235.568l7.382,-0l-0,-235.568l189.159,0l0,-6.105l-385.727,-0l0,6.105Z" style="fill:#fff;fill-rule:nonzero;stroke:#fff;stroke-width:20.83px;stroke-linecap:butt;stroke-miterlimit:2;"/><path d="M3007.73,3057.79l-329.344,0l0,-121.174l-7.382,0l0,240.992l7.382,-0l0,-113.712l329.344,-0l0,113.712l7.381,-0l0,-240.992l-7.381,0l0,121.174Z" style="fill:#fff;fill-rule:nonzero;stroke:#fff;stroke-width:20.83px;stroke-linecap:butt;stroke-miterlimit:2;"/><path d="M3566.41,2936.62l-13.567,0l-273.213,151.23l0,-151.23l-7.382,0l0,240.992l7.382,-0l0,-82.414l91.459,-50.574l186.593,132.988l11.313,-0l-191.536,-136.51l188.951,-104.482Z" style="fill:#fff;fill-rule:nonzero;stroke:#fff;stroke-width:20.83px;stroke-linecap:butt;stroke-miterlimit:2;"/><path d="M3820.05,2938.87c-92.631,-0 -200.8,30.459 -200.8,116.308c0,85.217 64.669,124.905 203.52,124.905c143.22,0 207.088,-37.196 207.088,-120.606c0,-108.856 -146.726,-120.607 -209.808,-120.607Zm2.72,235.108c-133.813,-0 -196.138,-37.751 -196.138,-118.8c0,-104.892 161.119,-110.204 193.418,-110.204c60.865,0 202.427,11.158 202.427,114.502c-0,79.19 -61.59,114.502 -199.707,114.502Z" style="fill:#fff;fill-rule:nonzero;stroke:#fff;stroke-width:20.83px;stroke-linecap:butt;stroke-miterlimit:2;"/><path d="M4290.21,3171.51c-175.608,0 -199.814,-57.026 -199.814,-118.648c-0,-75.091 62.613,-110.063 197.043,-110.063c166.904,-0 195.298,54.048 195.566,54.593l6.862,-2.248c-1.132,-2.385 -29.768,-58.451 -202.428,-58.451c-137.557,0 -204.424,37.998 -204.424,116.169c0,88.609 60.026,124.753 207.196,124.753c181.685,0 199.165,-55.715 199.822,-58.087l-7.192,-1.38c-0.158,0.534 -17.786,53.362 -192.631,53.362Z" style="fill:#fff;fill-rule:nonzero;stroke:#fff;stroke-width:20.83px;stroke-linecap:butt;stroke-miterlimit:2;"/><path d="M4879,3057.79l-329.344,0l-0,-121.174l-7.382,0l-0,240.992l7.382,-0l-0,-113.712l329.344,-0l-0,113.712l7.381,-0l-0,-240.992l-7.381,0l-0,121.174Z" style="fill:#fff;fill-rule:nonzero;stroke:#fff;stroke-width:20.83px;stroke-linecap:butt;stroke-miterlimit:2;"/></g></svg>